%TF.GenerationSoftware,KiCad,Pcbnew,7.0.7-7.0.7~ubuntu20.04.1*%
%TF.CreationDate,2023-09-06T17:53:36-07:00*%
%TF.ProjectId,teensy-control-panel,7465656e-7379-42d6-936f-6e74726f6c2d,rev?*%
%TF.SameCoordinates,Original*%
%TF.FileFunction,Copper,L2,Bot*%
%TF.FilePolarity,Positive*%
%FSLAX46Y46*%
G04 Gerber Fmt 4.6, Leading zero omitted, Abs format (unit mm)*
G04 Created by KiCad (PCBNEW 7.0.7-7.0.7~ubuntu20.04.1) date 2023-09-06 17:53:36*
%MOMM*%
%LPD*%
G01*
G04 APERTURE LIST*
%TA.AperFunction,ComponentPad*%
%ADD10C,1.600000*%
%TD*%
%TA.AperFunction,ComponentPad*%
%ADD11C,2.520000*%
%TD*%
%TA.AperFunction,ComponentPad*%
%ADD12R,1.398000X1.398000*%
%TD*%
%TA.AperFunction,ComponentPad*%
%ADD13C,1.398000*%
%TD*%
%TA.AperFunction,ViaPad*%
%ADD14C,0.800000*%
%TD*%
G04 APERTURE END LIST*
D10*
%TO.P,U101,33,VIN*%
%TO.N,+VDC*%
X57490000Y-85160000D03*
%TO.P,U101,32,GND*%
%TO.N,GND*%
X60030000Y-85160000D03*
%TO.P,U101,31,3V3*%
%TO.N,+3.3V*%
X62570000Y-85160000D03*
%TO.P,U101,30,23_A9_CRX1_MCLK1*%
%TO.N,A9*%
X65110000Y-85160000D03*
%TO.P,U101,29,22_A8_CTX1*%
%TO.N,A8*%
X67650000Y-85160000D03*
%TO.P,U101,28,21_A7_RX5_BCLK1*%
%TO.N,A7*%
X70190000Y-85160000D03*
%TO.P,U101,27,20_A6_TX5_LRCLK1*%
%TO.N,A6*%
X72730000Y-85160000D03*
%TO.P,U101,26,19_A5_SCL0*%
%TO.N,A5*%
X75270000Y-85160000D03*
%TO.P,U101,25,18_A4_SDA0*%
%TO.N,A4*%
X77810000Y-85160000D03*
%TO.P,U101,24,17_A3_TX4_SDA1*%
%TO.N,SDA*%
X80350000Y-85160000D03*
%TO.P,U101,23,16_A2_RX4_SCL1*%
%TO.N,SCL*%
X82890000Y-85160000D03*
%TO.P,U101,22,15_A1_RX3_SPDIF_IN*%
%TO.N,A1*%
X85430000Y-85160000D03*
%TO.P,U101,21,14_A0_TX3_SPDIF_OUT*%
%TO.N,A0*%
X87970000Y-85160000D03*
%TO.P,U101,20,13_SCK_CRX1_LED*%
%TO.N,SW_0*%
X90510000Y-85160000D03*
%TO.P,U101,19,ON_OFF*%
%TO.N,unconnected-(U101-ON_OFF-Pad19)*%
X90510000Y-87700000D03*
%TO.P,U101,18,PROGRAM*%
%TO.N,PGRM*%
X90510000Y-90240000D03*
%TO.P,U101,17,GND*%
%TO.N,GND*%
X90510000Y-92780000D03*
%TO.P,U101,16,3V3*%
%TO.N,unconnected-(U101-3V3-Pad16)*%
X90510000Y-95320000D03*
%TO.P,U101,15,VBAT*%
%TO.N,unconnected-(U101-VBAT-Pad15)*%
X90510000Y-97860000D03*
%TO.P,U101,14,12_MISO_MQSL*%
%TO.N,SW_1*%
X90510000Y-100400000D03*
%TO.P,U101,13,11_MOSI_CTX1*%
%TO.N,SW_2*%
X87970000Y-100400000D03*
%TO.P,U101,12,10_CS_MQSR*%
%TO.N,D10*%
X85430000Y-100400000D03*
%TO.P,U101,11,9_OUT1C*%
%TO.N,D9*%
X82890000Y-100400000D03*
%TO.P,U101,10,8_TX2_IN1*%
%TO.N,D8*%
X80350000Y-100400000D03*
%TO.P,U101,9,7_RX2_OUT1A*%
%TO.N,D7*%
X77810000Y-100400000D03*
%TO.P,U101,8,6_OUT1D*%
%TO.N,D6*%
X75270000Y-100400000D03*
%TO.P,U101,7,5_IN2*%
%TO.N,D5*%
X72730000Y-100400000D03*
%TO.P,U101,6,4_BCLK2*%
%TO.N,D4*%
X70190000Y-100400000D03*
%TO.P,U101,5,3_LRCLK2*%
%TO.N,D3*%
X67650000Y-100400000D03*
%TO.P,U101,4,2_OUT2*%
%TO.N,encoder_push*%
X65110000Y-100400000D03*
%TO.P,U101,3,1_TX1_CTX2_MISO1*%
%TO.N,encoder_B*%
X62570000Y-100400000D03*
%TO.P,U101,2,0_RX1_CRX2_CS1*%
%TO.N,encoder_A*%
X60030000Y-100400000D03*
%TO.P,U101,1,GND*%
%TO.N,GND*%
X57490000Y-100400000D03*
%TD*%
D11*
%TO.P,CO101,S*%
%TO.N,GND*%
X119850000Y-114725340D03*
X104150000Y-114725340D03*
D12*
%TO.P,CO101,Or\u002A*%
X109465000Y-110835340D03*
D13*
%TO.P,CO101,Or*%
%TO.N,D8*%
X108445000Y-112865340D03*
%TO.P,CO101,Gr\u002A*%
%TO.N,GND*%
X110475000Y-112865340D03*
%TO.P,CO101,Gr*%
%TO.N,D9*%
X113525000Y-110835340D03*
%TO.P,CO101,Br\u002A*%
%TO.N,GND*%
X115555000Y-110835340D03*
%TO.P,CO101,Br*%
%TO.N,D10*%
X114535000Y-112865340D03*
%TO.P,CO101,Bl\u002A*%
%TO.N,GND*%
X111495000Y-110835340D03*
%TO.P,CO101,Bl*%
%TO.N,D7*%
X112505000Y-112865340D03*
%TD*%
D11*
%TO.P,CO102,S*%
%TO.N,GND*%
X94850000Y-114725340D03*
X79150000Y-114725340D03*
D12*
%TO.P,CO102,Or\u002A*%
X84465000Y-110835340D03*
D13*
%TO.P,CO102,Or*%
%TO.N,D4*%
X83445000Y-112865340D03*
%TO.P,CO102,Gr\u002A*%
%TO.N,GND*%
X85475000Y-112865340D03*
%TO.P,CO102,Gr*%
%TO.N,D5*%
X88525000Y-110835340D03*
%TO.P,CO102,Br\u002A*%
%TO.N,GND*%
X90555000Y-110835340D03*
%TO.P,CO102,Br*%
%TO.N,D6*%
X89535000Y-112865340D03*
%TO.P,CO102,Bl\u002A*%
%TO.N,GND*%
X86495000Y-110835340D03*
%TO.P,CO102,Bl*%
%TO.N,D3*%
X87505000Y-112865340D03*
%TD*%
D14*
%TO.N,GND*%
X75600000Y-69800000D03*
X98600000Y-69200000D03*
X108600000Y-69400000D03*
X116800000Y-70400000D03*
X127200000Y-70600000D03*
X71400000Y-69800000D03*
X66600000Y-70600000D03*
X57400000Y-70600000D03*
X67400000Y-110800000D03*
X61400000Y-110800000D03*
X107250000Y-98750000D03*
X121000000Y-98750000D03*
X121000000Y-88750000D03*
X107000000Y-88500000D03*
X127000000Y-66500000D03*
X117000000Y-66500000D03*
X107000000Y-66750000D03*
X97000000Y-66750000D03*
X86750000Y-66750000D03*
X77250000Y-66250000D03*
X67000000Y-66750000D03*
X57000000Y-66500000D03*
X93000000Y-78500000D03*
X87000000Y-74500000D03*
%TD*%
%TA.AperFunction,Conductor*%
%TO.N,GND*%
G36*
X87053408Y-111041435D02*
G01*
X87064439Y-111051226D01*
X87503147Y-111489934D01*
X87518776Y-111469238D01*
X87518780Y-111469231D01*
X87545996Y-111414573D01*
X87593498Y-111363336D01*
X87661160Y-111345913D01*
X87727501Y-111367837D01*
X87752850Y-111391178D01*
X87850353Y-111509986D01*
X87994932Y-111628639D01*
X87994939Y-111628643D01*
X88159879Y-111716806D01*
X88159881Y-111716806D01*
X88159884Y-111716808D01*
X88338865Y-111771101D01*
X88338864Y-111771101D01*
X88357196Y-111772906D01*
X88525000Y-111789434D01*
X88711135Y-111771101D01*
X88890116Y-111716808D01*
X89055066Y-111628640D01*
X89199646Y-111509986D01*
X89297149Y-111391178D01*
X89354894Y-111351844D01*
X89424739Y-111349973D01*
X89484507Y-111386160D01*
X89504002Y-111414571D01*
X89531224Y-111469240D01*
X89546851Y-111489934D01*
X89983372Y-111053413D01*
X90044695Y-111019928D01*
X90114386Y-111024912D01*
X90167999Y-111063780D01*
X90248905Y-111165232D01*
X90321322Y-111214605D01*
X90365624Y-111268634D01*
X90373682Y-111338038D01*
X90342940Y-111400780D01*
X90339151Y-111404740D01*
X89888651Y-111855239D01*
X89885978Y-111870803D01*
X89838797Y-111922337D01*
X89771245Y-111940182D01*
X89738640Y-111934889D01*
X89721135Y-111929579D01*
X89721133Y-111929578D01*
X89721135Y-111929578D01*
X89535000Y-111911246D01*
X89348866Y-111929578D01*
X89169879Y-111983873D01*
X89004939Y-112072036D01*
X89004932Y-112072040D01*
X88860353Y-112190693D01*
X88741700Y-112335272D01*
X88741696Y-112335279D01*
X88653532Y-112500222D01*
X88638660Y-112549249D01*
X88600363Y-112607687D01*
X88536550Y-112636144D01*
X88467484Y-112625583D01*
X88415090Y-112579358D01*
X88401340Y-112549249D01*
X88386467Y-112500222D01*
X88298303Y-112335279D01*
X88298299Y-112335272D01*
X88179646Y-112190693D01*
X88035067Y-112072040D01*
X88035060Y-112072036D01*
X87870120Y-111983873D01*
X87780625Y-111956725D01*
X87691135Y-111929579D01*
X87691133Y-111929578D01*
X87691135Y-111929578D01*
X87505000Y-111911246D01*
X87318864Y-111929578D01*
X87318858Y-111929580D01*
X87311717Y-111931746D01*
X87241850Y-111932366D01*
X87182739Y-111895115D01*
X87166514Y-111860406D01*
X86713311Y-111407204D01*
X86679826Y-111345881D01*
X86684810Y-111276190D01*
X86726681Y-111220256D01*
X86747192Y-111207803D01*
X86748509Y-111207169D01*
X86846844Y-111115927D01*
X86869372Y-111076906D01*
X86919936Y-111028692D01*
X86988543Y-111015468D01*
X87053408Y-111041435D01*
G37*
%TD.AperFunction*%
%TA.AperFunction,Conductor*%
G36*
X112053408Y-111041435D02*
G01*
X112064439Y-111051226D01*
X112503147Y-111489934D01*
X112518776Y-111469238D01*
X112518780Y-111469231D01*
X112545996Y-111414573D01*
X112593498Y-111363336D01*
X112661160Y-111345913D01*
X112727501Y-111367837D01*
X112752850Y-111391178D01*
X112850353Y-111509986D01*
X112994932Y-111628639D01*
X112994939Y-111628643D01*
X113159879Y-111716806D01*
X113159881Y-111716806D01*
X113159884Y-111716808D01*
X113338865Y-111771101D01*
X113338864Y-111771101D01*
X113357196Y-111772906D01*
X113525000Y-111789434D01*
X113711135Y-111771101D01*
X113890116Y-111716808D01*
X114055066Y-111628640D01*
X114199646Y-111509986D01*
X114297149Y-111391178D01*
X114354894Y-111351844D01*
X114424739Y-111349973D01*
X114484507Y-111386160D01*
X114504002Y-111414571D01*
X114531224Y-111469240D01*
X114546851Y-111489934D01*
X114983372Y-111053413D01*
X115044695Y-111019928D01*
X115114386Y-111024912D01*
X115167999Y-111063780D01*
X115248905Y-111165232D01*
X115321322Y-111214605D01*
X115365624Y-111268634D01*
X115373682Y-111338038D01*
X115342940Y-111400780D01*
X115339151Y-111404740D01*
X114888651Y-111855239D01*
X114885978Y-111870803D01*
X114838797Y-111922337D01*
X114771245Y-111940182D01*
X114738640Y-111934889D01*
X114721135Y-111929579D01*
X114721133Y-111929578D01*
X114721135Y-111929578D01*
X114551688Y-111912889D01*
X114535000Y-111911246D01*
X114534999Y-111911246D01*
X114348866Y-111929578D01*
X114169879Y-111983873D01*
X114004939Y-112072036D01*
X114004932Y-112072040D01*
X113860353Y-112190693D01*
X113741700Y-112335272D01*
X113741696Y-112335279D01*
X113653532Y-112500222D01*
X113638660Y-112549249D01*
X113600363Y-112607687D01*
X113536550Y-112636144D01*
X113467484Y-112625583D01*
X113415090Y-112579358D01*
X113401340Y-112549249D01*
X113386467Y-112500222D01*
X113298303Y-112335279D01*
X113298299Y-112335272D01*
X113179646Y-112190693D01*
X113035067Y-112072040D01*
X113035060Y-112072036D01*
X112870120Y-111983873D01*
X112780625Y-111956725D01*
X112691135Y-111929579D01*
X112691133Y-111929578D01*
X112691135Y-111929578D01*
X112505000Y-111911246D01*
X112318864Y-111929578D01*
X112318858Y-111929580D01*
X112311717Y-111931746D01*
X112241850Y-111932366D01*
X112182739Y-111895115D01*
X112166514Y-111860406D01*
X111713311Y-111407204D01*
X111679826Y-111345881D01*
X111684810Y-111276190D01*
X111726681Y-111220256D01*
X111747192Y-111207803D01*
X111748509Y-111207169D01*
X111846844Y-111115927D01*
X111869372Y-111076906D01*
X111919936Y-111028692D01*
X111988543Y-111015468D01*
X112053408Y-111041435D01*
G37*
%TD.AperFunction*%
%TA.AperFunction,Conductor*%
G36*
X130501619Y-48500584D02*
G01*
X130633628Y-48507503D01*
X130817027Y-48517803D01*
X130823212Y-48518465D01*
X130975647Y-48542608D01*
X131138194Y-48570226D01*
X131143811Y-48571453D01*
X131296693Y-48612418D01*
X131389122Y-48639046D01*
X131451724Y-48657082D01*
X131456759Y-48658769D01*
X131606183Y-48716127D01*
X131754007Y-48777358D01*
X131758412Y-48779388D01*
X131824180Y-48812899D01*
X131901921Y-48852511D01*
X131977428Y-48894241D01*
X132041480Y-48929641D01*
X132045215Y-48931882D01*
X132119487Y-48980115D01*
X132180872Y-49019980D01*
X132268357Y-49082053D01*
X132310764Y-49112142D01*
X132313886Y-49114510D01*
X132438748Y-49215621D01*
X132441034Y-49217567D01*
X132558721Y-49322738D01*
X132561248Y-49325128D01*
X132674870Y-49438750D01*
X132677260Y-49441277D01*
X132782431Y-49558964D01*
X132784385Y-49561260D01*
X132885480Y-49686102D01*
X132887862Y-49689243D01*
X132980019Y-49819127D01*
X133033758Y-49901875D01*
X133068106Y-49954767D01*
X133070364Y-49958531D01*
X133147488Y-50098078D01*
X133220604Y-50241575D01*
X133222643Y-50245997D01*
X133283877Y-50393829D01*
X133341221Y-50543217D01*
X133342916Y-50548273D01*
X133387579Y-50703297D01*
X133428541Y-50856171D01*
X133429778Y-50861835D01*
X133457394Y-51024369D01*
X133481530Y-51176758D01*
X133482196Y-51182985D01*
X133492509Y-51366617D01*
X133499415Y-51498377D01*
X133499500Y-51501623D01*
X133499500Y-132498376D01*
X133499415Y-132501622D01*
X133492509Y-132633382D01*
X133482196Y-132817013D01*
X133481530Y-132823240D01*
X133457394Y-132975630D01*
X133429778Y-133138163D01*
X133428541Y-133143827D01*
X133387579Y-133296702D01*
X133342916Y-133451725D01*
X133341221Y-133456781D01*
X133283877Y-133606170D01*
X133222643Y-133754001D01*
X133220604Y-133758423D01*
X133147488Y-133901921D01*
X133070364Y-134041467D01*
X133068097Y-134045246D01*
X132980019Y-134180872D01*
X132887862Y-134310755D01*
X132885480Y-134313896D01*
X132784385Y-134438738D01*
X132782431Y-134441034D01*
X132677260Y-134558721D01*
X132674870Y-134561248D01*
X132561248Y-134674870D01*
X132558721Y-134677260D01*
X132441034Y-134782431D01*
X132438738Y-134784385D01*
X132313896Y-134885480D01*
X132310755Y-134887862D01*
X132180872Y-134980019D01*
X132045246Y-135068097D01*
X132041467Y-135070364D01*
X131901921Y-135147488D01*
X131758423Y-135220604D01*
X131754001Y-135222643D01*
X131606170Y-135283877D01*
X131456781Y-135341221D01*
X131451725Y-135342916D01*
X131296702Y-135387579D01*
X131143827Y-135428541D01*
X131138163Y-135429778D01*
X130975630Y-135457394D01*
X130823240Y-135481530D01*
X130817013Y-135482196D01*
X130633382Y-135492509D01*
X130501622Y-135499415D01*
X130498376Y-135499500D01*
X49501624Y-135499500D01*
X49498378Y-135499415D01*
X49366617Y-135492509D01*
X49182985Y-135482196D01*
X49176758Y-135481530D01*
X49024369Y-135457394D01*
X48861835Y-135429778D01*
X48856171Y-135428541D01*
X48703297Y-135387579D01*
X48548273Y-135342916D01*
X48543217Y-135341221D01*
X48393829Y-135283877D01*
X48245997Y-135222643D01*
X48241575Y-135220604D01*
X48098078Y-135147488D01*
X47958531Y-135070364D01*
X47954767Y-135068106D01*
X47901875Y-135033758D01*
X47819127Y-134980019D01*
X47689243Y-134887862D01*
X47686102Y-134885480D01*
X47561260Y-134784385D01*
X47558964Y-134782431D01*
X47441277Y-134677260D01*
X47438750Y-134674870D01*
X47325128Y-134561248D01*
X47322738Y-134558721D01*
X47217567Y-134441034D01*
X47215613Y-134438738D01*
X47176848Y-134390867D01*
X47114510Y-134313886D01*
X47112136Y-134310755D01*
X47019979Y-134180872D01*
X46931892Y-134045230D01*
X46929634Y-134041467D01*
X46927884Y-134038301D01*
X46912421Y-133979533D01*
X46869588Y-129567763D01*
X51145787Y-129567763D01*
X51175413Y-129837013D01*
X51175415Y-129837024D01*
X51243926Y-130099082D01*
X51243928Y-130099088D01*
X51349870Y-130348390D01*
X51421998Y-130466575D01*
X51490979Y-130579605D01*
X51490986Y-130579615D01*
X51664253Y-130787819D01*
X51664259Y-130787824D01*
X51865998Y-130968582D01*
X52091910Y-131118044D01*
X52337176Y-131233020D01*
X52337183Y-131233022D01*
X52337185Y-131233023D01*
X52596557Y-131311057D01*
X52596564Y-131311058D01*
X52596569Y-131311060D01*
X52864561Y-131350500D01*
X52864566Y-131350500D01*
X53067636Y-131350500D01*
X53119133Y-131346730D01*
X53270156Y-131335677D01*
X53382758Y-131310593D01*
X53534546Y-131276782D01*
X53534548Y-131276781D01*
X53534553Y-131276780D01*
X53787558Y-131180014D01*
X54023777Y-131047441D01*
X54238177Y-130881888D01*
X54426186Y-130686881D01*
X54583799Y-130466579D01*
X54657787Y-130322669D01*
X54707649Y-130225690D01*
X54707651Y-130225684D01*
X54707656Y-130225675D01*
X54795118Y-129969305D01*
X54844319Y-129702933D01*
X54849259Y-129567763D01*
X75645787Y-129567763D01*
X75675413Y-129837013D01*
X75675415Y-129837024D01*
X75743926Y-130099082D01*
X75743928Y-130099088D01*
X75849870Y-130348390D01*
X75921998Y-130466575D01*
X75990979Y-130579605D01*
X75990986Y-130579615D01*
X76164253Y-130787819D01*
X76164259Y-130787824D01*
X76365998Y-130968582D01*
X76591910Y-131118044D01*
X76837176Y-131233020D01*
X76837183Y-131233022D01*
X76837185Y-131233023D01*
X77096557Y-131311057D01*
X77096564Y-131311058D01*
X77096569Y-131311060D01*
X77364561Y-131350500D01*
X77364566Y-131350500D01*
X77567636Y-131350500D01*
X77619133Y-131346730D01*
X77770156Y-131335677D01*
X77882758Y-131310593D01*
X78034546Y-131276782D01*
X78034548Y-131276781D01*
X78034553Y-131276780D01*
X78287558Y-131180014D01*
X78523777Y-131047441D01*
X78738177Y-130881888D01*
X78926186Y-130686881D01*
X79083799Y-130466579D01*
X79157787Y-130322669D01*
X79207649Y-130225690D01*
X79207651Y-130225684D01*
X79207656Y-130225675D01*
X79295118Y-129969305D01*
X79344319Y-129702933D01*
X79349259Y-129567763D01*
X88145787Y-129567763D01*
X88175413Y-129837013D01*
X88175415Y-129837024D01*
X88243926Y-130099082D01*
X88243928Y-130099088D01*
X88349870Y-130348390D01*
X88421998Y-130466575D01*
X88490979Y-130579605D01*
X88490986Y-130579615D01*
X88664253Y-130787819D01*
X88664259Y-130787824D01*
X88865998Y-130968582D01*
X89091910Y-131118044D01*
X89337176Y-131233020D01*
X89337183Y-131233022D01*
X89337185Y-131233023D01*
X89596557Y-131311057D01*
X89596564Y-131311058D01*
X89596569Y-131311060D01*
X89864561Y-131350500D01*
X89864566Y-131350500D01*
X90067636Y-131350500D01*
X90119133Y-131346730D01*
X90270156Y-131335677D01*
X90382758Y-131310593D01*
X90534546Y-131276782D01*
X90534548Y-131276781D01*
X90534553Y-131276780D01*
X90787558Y-131180014D01*
X91023777Y-131047441D01*
X91238177Y-130881888D01*
X91426186Y-130686881D01*
X91583799Y-130466579D01*
X91657787Y-130322669D01*
X91707649Y-130225690D01*
X91707651Y-130225684D01*
X91707656Y-130225675D01*
X91795118Y-129969305D01*
X91844319Y-129702933D01*
X91849259Y-129567763D01*
X100645787Y-129567763D01*
X100675413Y-129837013D01*
X100675415Y-129837024D01*
X100743926Y-130099082D01*
X100743928Y-130099088D01*
X100849870Y-130348390D01*
X100921998Y-130466575D01*
X100990979Y-130579605D01*
X100990986Y-130579615D01*
X101164253Y-130787819D01*
X101164259Y-130787824D01*
X101365998Y-130968582D01*
X101591910Y-131118044D01*
X101837176Y-131233020D01*
X101837183Y-131233022D01*
X101837185Y-131233023D01*
X102096557Y-131311057D01*
X102096564Y-131311058D01*
X102096569Y-131311060D01*
X102364561Y-131350500D01*
X102364566Y-131350500D01*
X102567636Y-131350500D01*
X102619133Y-131346730D01*
X102770156Y-131335677D01*
X102882758Y-131310593D01*
X103034546Y-131276782D01*
X103034548Y-131276781D01*
X103034553Y-131276780D01*
X103287558Y-131180014D01*
X103523777Y-131047441D01*
X103738177Y-130881888D01*
X103926186Y-130686881D01*
X104083799Y-130466579D01*
X104157787Y-130322669D01*
X104207649Y-130225690D01*
X104207651Y-130225684D01*
X104207656Y-130225675D01*
X104295118Y-129969305D01*
X104344319Y-129702933D01*
X104349259Y-129567763D01*
X125145787Y-129567763D01*
X125175413Y-129837013D01*
X125175415Y-129837024D01*
X125243926Y-130099082D01*
X125243928Y-130099088D01*
X125349870Y-130348390D01*
X125421998Y-130466575D01*
X125490979Y-130579605D01*
X125490986Y-130579615D01*
X125664253Y-130787819D01*
X125664259Y-130787824D01*
X125865998Y-130968582D01*
X126091910Y-131118044D01*
X126337176Y-131233020D01*
X126337183Y-131233022D01*
X126337185Y-131233023D01*
X126596557Y-131311057D01*
X126596564Y-131311058D01*
X126596569Y-131311060D01*
X126864561Y-131350500D01*
X126864566Y-131350500D01*
X127067636Y-131350500D01*
X127119133Y-131346730D01*
X127270156Y-131335677D01*
X127382758Y-131310593D01*
X127534546Y-131276782D01*
X127534548Y-131276781D01*
X127534553Y-131276780D01*
X127787558Y-131180014D01*
X128023777Y-131047441D01*
X128238177Y-130881888D01*
X128426186Y-130686881D01*
X128583799Y-130466579D01*
X128657787Y-130322669D01*
X128707649Y-130225690D01*
X128707651Y-130225684D01*
X128707656Y-130225675D01*
X128795118Y-129969305D01*
X128844319Y-129702933D01*
X128854212Y-129432235D01*
X128824586Y-129162982D01*
X128756072Y-128900912D01*
X128650130Y-128651610D01*
X128509018Y-128420390D01*
X128419747Y-128313119D01*
X128335746Y-128212180D01*
X128335740Y-128212175D01*
X128134002Y-128031418D01*
X127908092Y-127881957D01*
X127908090Y-127881956D01*
X127662824Y-127766980D01*
X127662819Y-127766978D01*
X127662814Y-127766976D01*
X127403442Y-127688942D01*
X127403428Y-127688939D01*
X127287791Y-127671921D01*
X127135439Y-127649500D01*
X126932369Y-127649500D01*
X126932364Y-127649500D01*
X126729844Y-127664323D01*
X126729831Y-127664325D01*
X126465453Y-127723217D01*
X126465446Y-127723220D01*
X126212439Y-127819987D01*
X125976226Y-127952557D01*
X125761822Y-128118112D01*
X125573822Y-128313109D01*
X125573816Y-128313116D01*
X125416202Y-128533419D01*
X125416199Y-128533424D01*
X125292350Y-128774309D01*
X125292343Y-128774327D01*
X125204884Y-129030685D01*
X125204881Y-129030699D01*
X125155681Y-129297068D01*
X125155680Y-129297075D01*
X125145787Y-129567763D01*
X104349259Y-129567763D01*
X104354212Y-129432235D01*
X104324586Y-129162982D01*
X104256072Y-128900912D01*
X104150130Y-128651610D01*
X104009018Y-128420390D01*
X103919747Y-128313119D01*
X103835746Y-128212180D01*
X103835740Y-128212175D01*
X103634002Y-128031418D01*
X103408092Y-127881957D01*
X103408090Y-127881956D01*
X103162824Y-127766980D01*
X103162819Y-127766978D01*
X103162814Y-127766976D01*
X102903442Y-127688942D01*
X102903428Y-127688939D01*
X102787791Y-127671921D01*
X102635439Y-127649500D01*
X102432369Y-127649500D01*
X102432364Y-127649500D01*
X102229844Y-127664323D01*
X102229831Y-127664325D01*
X101965453Y-127723217D01*
X101965446Y-127723220D01*
X101712439Y-127819987D01*
X101476226Y-127952557D01*
X101261822Y-128118112D01*
X101073822Y-128313109D01*
X101073816Y-128313116D01*
X100916202Y-128533419D01*
X100916199Y-128533424D01*
X100792350Y-128774309D01*
X100792343Y-128774327D01*
X100704884Y-129030685D01*
X100704881Y-129030699D01*
X100655681Y-129297068D01*
X100655680Y-129297075D01*
X100645787Y-129567763D01*
X91849259Y-129567763D01*
X91854212Y-129432235D01*
X91824586Y-129162982D01*
X91756072Y-128900912D01*
X91650130Y-128651610D01*
X91509018Y-128420390D01*
X91419747Y-128313119D01*
X91335746Y-128212180D01*
X91335740Y-128212175D01*
X91134002Y-128031418D01*
X90908092Y-127881957D01*
X90908090Y-127881956D01*
X90662824Y-127766980D01*
X90662819Y-127766978D01*
X90662814Y-127766976D01*
X90403442Y-127688942D01*
X90403428Y-127688939D01*
X90287791Y-127671921D01*
X90135439Y-127649500D01*
X89932369Y-127649500D01*
X89932364Y-127649500D01*
X89729844Y-127664323D01*
X89729831Y-127664325D01*
X89465453Y-127723217D01*
X89465446Y-127723220D01*
X89212439Y-127819987D01*
X88976226Y-127952557D01*
X88761822Y-128118112D01*
X88573822Y-128313109D01*
X88573816Y-128313116D01*
X88416202Y-128533419D01*
X88416199Y-128533424D01*
X88292350Y-128774309D01*
X88292343Y-128774327D01*
X88204884Y-129030685D01*
X88204881Y-129030699D01*
X88155681Y-129297068D01*
X88155680Y-129297075D01*
X88145787Y-129567763D01*
X79349259Y-129567763D01*
X79354212Y-129432235D01*
X79324586Y-129162982D01*
X79256072Y-128900912D01*
X79150130Y-128651610D01*
X79009018Y-128420390D01*
X78919747Y-128313119D01*
X78835746Y-128212180D01*
X78835740Y-128212175D01*
X78634002Y-128031418D01*
X78408092Y-127881957D01*
X78408090Y-127881956D01*
X78162824Y-127766980D01*
X78162819Y-127766978D01*
X78162814Y-127766976D01*
X77903442Y-127688942D01*
X77903428Y-127688939D01*
X77787791Y-127671921D01*
X77635439Y-127649500D01*
X77432369Y-127649500D01*
X77432364Y-127649500D01*
X77229844Y-127664323D01*
X77229831Y-127664325D01*
X76965453Y-127723217D01*
X76965446Y-127723220D01*
X76712439Y-127819987D01*
X76476226Y-127952557D01*
X76261822Y-128118112D01*
X76073822Y-128313109D01*
X76073816Y-128313116D01*
X75916202Y-128533419D01*
X75916199Y-128533424D01*
X75792350Y-128774309D01*
X75792343Y-128774327D01*
X75704884Y-129030685D01*
X75704881Y-129030699D01*
X75655681Y-129297068D01*
X75655680Y-129297075D01*
X75645787Y-129567763D01*
X54849259Y-129567763D01*
X54854212Y-129432235D01*
X54824586Y-129162982D01*
X54756072Y-128900912D01*
X54650130Y-128651610D01*
X54509018Y-128420390D01*
X54419747Y-128313119D01*
X54335746Y-128212180D01*
X54335740Y-128212175D01*
X54134002Y-128031418D01*
X53908092Y-127881957D01*
X53908090Y-127881956D01*
X53662824Y-127766980D01*
X53662819Y-127766978D01*
X53662814Y-127766976D01*
X53403442Y-127688942D01*
X53403428Y-127688939D01*
X53287791Y-127671921D01*
X53135439Y-127649500D01*
X52932369Y-127649500D01*
X52932364Y-127649500D01*
X52729844Y-127664323D01*
X52729831Y-127664325D01*
X52465453Y-127723217D01*
X52465446Y-127723220D01*
X52212439Y-127819987D01*
X51976226Y-127952557D01*
X51761822Y-128118112D01*
X51573822Y-128313109D01*
X51573816Y-128313116D01*
X51416202Y-128533419D01*
X51416199Y-128533424D01*
X51292350Y-128774309D01*
X51292343Y-128774327D01*
X51204884Y-129030685D01*
X51204881Y-129030699D01*
X51155681Y-129297068D01*
X51155680Y-129297075D01*
X51145787Y-129567763D01*
X46869588Y-129567763D01*
X46763629Y-118654018D01*
X79405737Y-118654018D01*
X79435762Y-118926899D01*
X79435763Y-118926909D01*
X79505202Y-119192518D01*
X79505204Y-119192522D01*
X79612577Y-119445192D01*
X79755592Y-119679531D01*
X79755599Y-119679541D01*
X79931199Y-119890547D01*
X79931204Y-119890552D01*
X79931209Y-119890558D01*
X79931216Y-119890564D01*
X80135672Y-120073759D01*
X80135674Y-120073760D01*
X80135677Y-120073763D01*
X80364641Y-120225244D01*
X80613221Y-120341773D01*
X80876119Y-120420867D01*
X81147731Y-120460840D01*
X81147736Y-120460840D01*
X81353552Y-120460840D01*
X81405744Y-120457019D01*
X81558805Y-120445817D01*
X81826775Y-120386124D01*
X82083198Y-120288051D01*
X82322609Y-120153687D01*
X82539904Y-119985897D01*
X82730454Y-119788256D01*
X82890196Y-119564977D01*
X83015727Y-119320819D01*
X83104370Y-119060986D01*
X83154236Y-118791014D01*
X83159242Y-118654018D01*
X90835737Y-118654018D01*
X90865762Y-118926899D01*
X90865763Y-118926909D01*
X90935202Y-119192518D01*
X90935204Y-119192522D01*
X91042577Y-119445192D01*
X91185592Y-119679531D01*
X91185599Y-119679541D01*
X91361199Y-119890547D01*
X91361204Y-119890552D01*
X91361209Y-119890558D01*
X91361216Y-119890564D01*
X91565672Y-120073759D01*
X91565674Y-120073760D01*
X91565677Y-120073763D01*
X91794641Y-120225244D01*
X92043221Y-120341773D01*
X92306119Y-120420867D01*
X92577731Y-120460840D01*
X92577736Y-120460840D01*
X92783552Y-120460840D01*
X92835744Y-120457019D01*
X92988805Y-120445817D01*
X93256775Y-120386124D01*
X93513198Y-120288051D01*
X93752609Y-120153687D01*
X93969904Y-119985897D01*
X94160454Y-119788256D01*
X94320196Y-119564977D01*
X94445727Y-119320819D01*
X94534370Y-119060986D01*
X94584236Y-118791014D01*
X94589242Y-118654018D01*
X104405737Y-118654018D01*
X104435762Y-118926899D01*
X104435763Y-118926909D01*
X104505202Y-119192518D01*
X104505204Y-119192522D01*
X104612577Y-119445192D01*
X104755592Y-119679531D01*
X104755599Y-119679541D01*
X104931199Y-119890547D01*
X104931204Y-119890552D01*
X104931209Y-119890558D01*
X104931216Y-119890564D01*
X105135672Y-120073759D01*
X105135674Y-120073760D01*
X105135677Y-120073763D01*
X105364641Y-120225244D01*
X105613221Y-120341773D01*
X105876119Y-120420867D01*
X106147731Y-120460840D01*
X106147736Y-120460840D01*
X106353552Y-120460840D01*
X106405744Y-120457019D01*
X106558805Y-120445817D01*
X106826775Y-120386124D01*
X107083198Y-120288051D01*
X107322609Y-120153687D01*
X107539904Y-119985897D01*
X107730454Y-119788256D01*
X107890196Y-119564977D01*
X108015727Y-119320819D01*
X108104370Y-119060986D01*
X108154236Y-118791014D01*
X108159242Y-118654018D01*
X115835737Y-118654018D01*
X115865762Y-118926899D01*
X115865763Y-118926909D01*
X115935202Y-119192518D01*
X115935204Y-119192522D01*
X116042577Y-119445192D01*
X116185592Y-119679531D01*
X116185599Y-119679541D01*
X116361199Y-119890547D01*
X116361204Y-119890552D01*
X116361209Y-119890558D01*
X116361216Y-119890564D01*
X116565672Y-120073759D01*
X116565674Y-120073760D01*
X116565677Y-120073763D01*
X116794641Y-120225244D01*
X117043221Y-120341773D01*
X117306119Y-120420867D01*
X117577731Y-120460840D01*
X117577736Y-120460840D01*
X117783552Y-120460840D01*
X117835744Y-120457019D01*
X117988805Y-120445817D01*
X118256775Y-120386124D01*
X118513198Y-120288051D01*
X118752609Y-120153687D01*
X118969904Y-119985897D01*
X119160454Y-119788256D01*
X119320196Y-119564977D01*
X119445727Y-119320819D01*
X119534370Y-119060986D01*
X119584236Y-118791014D01*
X119594262Y-118516660D01*
X119564236Y-118243769D01*
X119494796Y-117978158D01*
X119387423Y-117725488D01*
X119244405Y-117491144D01*
X119242666Y-117489055D01*
X119068800Y-117280132D01*
X119068795Y-117280127D01*
X119068791Y-117280122D01*
X118962385Y-117184781D01*
X118864327Y-117096920D01*
X118864324Y-117096918D01*
X118864323Y-117096917D01*
X118635359Y-116945436D01*
X118386779Y-116828907D01*
X118239362Y-116784556D01*
X118123879Y-116749812D01*
X117990915Y-116730244D01*
X117852269Y-116709840D01*
X117646453Y-116709840D01*
X117646448Y-116709840D01*
X117441195Y-116724863D01*
X117441185Y-116724864D01*
X117173229Y-116784554D01*
X117173224Y-116784556D01*
X116916799Y-116882630D01*
X116677392Y-117016992D01*
X116677387Y-117016995D01*
X116460097Y-117184781D01*
X116460088Y-117184790D01*
X116269549Y-117382420D01*
X116269547Y-117382422D01*
X116109805Y-117605701D01*
X116109802Y-117605706D01*
X115984275Y-117849855D01*
X115984271Y-117849865D01*
X115895632Y-118109684D01*
X115895629Y-118109698D01*
X115845765Y-118379654D01*
X115845763Y-118379674D01*
X115835737Y-118654018D01*
X108159242Y-118654018D01*
X108164262Y-118516660D01*
X108134236Y-118243769D01*
X108064796Y-117978158D01*
X107957423Y-117725488D01*
X107814405Y-117491144D01*
X107812666Y-117489055D01*
X107638800Y-117280132D01*
X107638795Y-117280127D01*
X107638791Y-117280122D01*
X107532385Y-117184781D01*
X107434327Y-117096920D01*
X107434324Y-117096918D01*
X107434323Y-117096917D01*
X107205359Y-116945436D01*
X106956779Y-116828907D01*
X106809362Y-116784556D01*
X106693879Y-116749812D01*
X106560915Y-116730244D01*
X106422269Y-116709840D01*
X106216453Y-116709840D01*
X106216448Y-116709840D01*
X106011195Y-116724863D01*
X106011185Y-116724864D01*
X105743229Y-116784554D01*
X105743224Y-116784556D01*
X105486799Y-116882630D01*
X105247392Y-117016992D01*
X105247387Y-117016995D01*
X105030097Y-117184781D01*
X105030088Y-117184790D01*
X104839549Y-117382420D01*
X104839547Y-117382422D01*
X104679805Y-117605701D01*
X104679802Y-117605706D01*
X104554275Y-117849855D01*
X104554271Y-117849865D01*
X104465632Y-118109684D01*
X104465629Y-118109698D01*
X104415765Y-118379654D01*
X104415763Y-118379674D01*
X104405737Y-118654018D01*
X94589242Y-118654018D01*
X94594262Y-118516660D01*
X94564236Y-118243769D01*
X94494796Y-117978158D01*
X94387423Y-117725488D01*
X94244405Y-117491144D01*
X94242666Y-117489055D01*
X94068800Y-117280132D01*
X94068795Y-117280127D01*
X94068791Y-117280122D01*
X93962385Y-117184781D01*
X93864327Y-117096920D01*
X93864324Y-117096918D01*
X93864323Y-117096917D01*
X93635359Y-116945436D01*
X93386779Y-116828907D01*
X93239362Y-116784556D01*
X93123879Y-116749812D01*
X92990915Y-116730244D01*
X92852269Y-116709840D01*
X92646453Y-116709840D01*
X92646448Y-116709840D01*
X92441195Y-116724863D01*
X92441185Y-116724864D01*
X92173229Y-116784554D01*
X92173224Y-116784556D01*
X91916799Y-116882630D01*
X91677392Y-117016992D01*
X91677387Y-117016995D01*
X91460097Y-117184781D01*
X91460088Y-117184790D01*
X91269549Y-117382420D01*
X91269547Y-117382422D01*
X91109805Y-117605701D01*
X91109802Y-117605706D01*
X90984275Y-117849855D01*
X90984271Y-117849865D01*
X90895632Y-118109684D01*
X90895629Y-118109698D01*
X90845765Y-118379654D01*
X90845763Y-118379674D01*
X90835737Y-118654018D01*
X83159242Y-118654018D01*
X83164262Y-118516660D01*
X83134236Y-118243769D01*
X83064796Y-117978158D01*
X82957423Y-117725488D01*
X82814405Y-117491144D01*
X82812666Y-117489055D01*
X82638800Y-117280132D01*
X82638795Y-117280127D01*
X82638791Y-117280122D01*
X82532385Y-117184781D01*
X82434327Y-117096920D01*
X82434324Y-117096918D01*
X82434323Y-117096917D01*
X82205359Y-116945436D01*
X81956779Y-116828907D01*
X81809362Y-116784556D01*
X81693879Y-116749812D01*
X81560915Y-116730244D01*
X81422269Y-116709840D01*
X81216453Y-116709840D01*
X81216448Y-116709840D01*
X81011195Y-116724863D01*
X81011185Y-116724864D01*
X80743229Y-116784554D01*
X80743224Y-116784556D01*
X80486799Y-116882630D01*
X80247392Y-117016992D01*
X80247387Y-117016995D01*
X80030097Y-117184781D01*
X80030088Y-117184790D01*
X79839549Y-117382420D01*
X79839547Y-117382422D01*
X79679805Y-117605701D01*
X79679802Y-117605706D01*
X79554275Y-117849855D01*
X79554271Y-117849865D01*
X79465632Y-118109684D01*
X79465629Y-118109698D01*
X79415765Y-118379654D01*
X79415763Y-118379674D01*
X79405737Y-118654018D01*
X46763629Y-118654018D01*
X46725487Y-114725344D01*
X77385065Y-114725344D01*
X77404777Y-114988387D01*
X77463473Y-115245552D01*
X77463478Y-115245569D01*
X77559849Y-115491117D01*
X77691741Y-115719562D01*
X77740757Y-115781028D01*
X78296570Y-115225215D01*
X78357893Y-115191730D01*
X78427584Y-115196714D01*
X78478759Y-115232620D01*
X78512508Y-115272352D01*
X78568926Y-115338772D01*
X78638326Y-115391529D01*
X78679783Y-115447769D01*
X78684253Y-115517496D01*
X78650966Y-115577925D01*
X78093634Y-116135256D01*
X78267539Y-116253822D01*
X78267540Y-116253823D01*
X78505191Y-116368269D01*
X78505210Y-116368276D01*
X78757252Y-116446020D01*
X78757262Y-116446022D01*
X79018100Y-116485339D01*
X79018107Y-116485340D01*
X79281893Y-116485340D01*
X79281899Y-116485339D01*
X79542737Y-116446022D01*
X79542747Y-116446020D01*
X79794789Y-116368276D01*
X79794808Y-116368269D01*
X80032465Y-116253820D01*
X80206364Y-116135256D01*
X79652567Y-115581460D01*
X79619082Y-115520137D01*
X79624066Y-115450446D01*
X79658229Y-115404489D01*
X79656463Y-115402625D01*
X79793990Y-115272352D01*
X79813452Y-115243648D01*
X79867366Y-115199207D01*
X79936749Y-115190969D01*
X79999571Y-115221549D01*
X80003767Y-115225554D01*
X80559241Y-115781028D01*
X80608257Y-115719562D01*
X80740150Y-115491117D01*
X80836521Y-115245569D01*
X80836526Y-115245552D01*
X80895222Y-114988387D01*
X80914935Y-114725344D01*
X93085065Y-114725344D01*
X93104777Y-114988387D01*
X93163473Y-115245552D01*
X93163478Y-115245569D01*
X93259849Y-115491117D01*
X93391741Y-115719562D01*
X93440757Y-115781028D01*
X93996570Y-115225215D01*
X94057893Y-115191730D01*
X94127584Y-115196714D01*
X94178759Y-115232620D01*
X94212508Y-115272352D01*
X94268926Y-115338772D01*
X94338326Y-115391529D01*
X94379783Y-115447769D01*
X94384253Y-115517496D01*
X94350966Y-115577925D01*
X93793634Y-116135256D01*
X93967539Y-116253822D01*
X93967540Y-116253823D01*
X94205191Y-116368269D01*
X94205210Y-116368276D01*
X94457252Y-116446020D01*
X94457262Y-116446022D01*
X94718100Y-116485339D01*
X94718107Y-116485340D01*
X94981893Y-116485340D01*
X94981899Y-116485339D01*
X95242737Y-116446022D01*
X95242747Y-116446020D01*
X95494789Y-116368276D01*
X95494808Y-116368269D01*
X95732465Y-116253820D01*
X95906364Y-116135256D01*
X95352567Y-115581460D01*
X95319082Y-115520137D01*
X95324066Y-115450446D01*
X95358229Y-115404489D01*
X95356463Y-115402625D01*
X95493990Y-115272352D01*
X95513452Y-115243648D01*
X95567366Y-115199207D01*
X95636749Y-115190969D01*
X95699571Y-115221549D01*
X95703767Y-115225554D01*
X96259241Y-115781028D01*
X96308257Y-115719562D01*
X96440150Y-115491117D01*
X96536521Y-115245569D01*
X96536526Y-115245552D01*
X96595222Y-114988387D01*
X96614935Y-114725344D01*
X102385065Y-114725344D01*
X102404777Y-114988387D01*
X102463473Y-115245552D01*
X102463478Y-115245569D01*
X102559849Y-115491117D01*
X102691741Y-115719562D01*
X102740757Y-115781028D01*
X103296570Y-115225215D01*
X103357893Y-115191730D01*
X103427584Y-115196714D01*
X103478759Y-115232620D01*
X103512508Y-115272352D01*
X103568926Y-115338772D01*
X103638326Y-115391529D01*
X103679783Y-115447769D01*
X103684253Y-115517496D01*
X103650966Y-115577925D01*
X103093634Y-116135256D01*
X103267539Y-116253822D01*
X103267540Y-116253823D01*
X103505191Y-116368269D01*
X103505210Y-116368276D01*
X103757252Y-116446020D01*
X103757262Y-116446022D01*
X104018100Y-116485339D01*
X104018107Y-116485340D01*
X104281893Y-116485340D01*
X104281899Y-116485339D01*
X104542737Y-116446022D01*
X104542747Y-116446020D01*
X104794789Y-116368276D01*
X104794808Y-116368269D01*
X105032465Y-116253820D01*
X105206364Y-116135256D01*
X104652567Y-115581460D01*
X104619082Y-115520137D01*
X104624066Y-115450446D01*
X104658229Y-115404489D01*
X104656463Y-115402625D01*
X104793990Y-115272352D01*
X104813452Y-115243648D01*
X104867366Y-115199207D01*
X104936749Y-115190969D01*
X104999571Y-115221549D01*
X105003767Y-115225554D01*
X105559241Y-115781028D01*
X105608257Y-115719562D01*
X105740150Y-115491117D01*
X105836521Y-115245569D01*
X105836526Y-115245552D01*
X105895222Y-114988387D01*
X105914935Y-114725344D01*
X118085065Y-114725344D01*
X118104777Y-114988387D01*
X118163473Y-115245552D01*
X118163478Y-115245569D01*
X118259849Y-115491117D01*
X118391741Y-115719562D01*
X118440757Y-115781028D01*
X118996570Y-115225215D01*
X119057893Y-115191730D01*
X119127584Y-115196714D01*
X119178759Y-115232620D01*
X119212508Y-115272352D01*
X119268926Y-115338772D01*
X119338326Y-115391529D01*
X119379783Y-115447769D01*
X119384253Y-115517496D01*
X119350966Y-115577925D01*
X118793634Y-116135256D01*
X118967539Y-116253822D01*
X118967540Y-116253823D01*
X119205191Y-116368269D01*
X119205210Y-116368276D01*
X119457252Y-116446020D01*
X119457262Y-116446022D01*
X119718100Y-116485339D01*
X119718107Y-116485340D01*
X119981893Y-116485340D01*
X119981899Y-116485339D01*
X120242737Y-116446022D01*
X120242747Y-116446020D01*
X120494789Y-116368276D01*
X120494808Y-116368269D01*
X120732465Y-116253820D01*
X120906364Y-116135256D01*
X120352567Y-115581460D01*
X120319082Y-115520137D01*
X120324066Y-115450446D01*
X120358229Y-115404489D01*
X120356463Y-115402625D01*
X120493990Y-115272352D01*
X120513452Y-115243648D01*
X120567366Y-115199207D01*
X120636749Y-115190969D01*
X120699571Y-115221549D01*
X120703767Y-115225554D01*
X121259241Y-115781028D01*
X121308257Y-115719562D01*
X121440150Y-115491117D01*
X121536521Y-115245569D01*
X121536526Y-115245552D01*
X121595222Y-114988387D01*
X121614935Y-114725344D01*
X121614935Y-114725335D01*
X121595222Y-114462292D01*
X121536526Y-114205127D01*
X121536521Y-114205110D01*
X121440150Y-113959562D01*
X121308258Y-113731117D01*
X121259240Y-113669651D01*
X120703428Y-114225463D01*
X120642105Y-114258948D01*
X120572413Y-114253964D01*
X120521239Y-114218058D01*
X120431074Y-114111908D01*
X120361672Y-114059150D01*
X120320214Y-114002909D01*
X120315745Y-113933182D01*
X120349032Y-113872753D01*
X120906364Y-113315422D01*
X120732461Y-113196857D01*
X120732460Y-113196856D01*
X120494808Y-113082410D01*
X120494789Y-113082403D01*
X120242747Y-113004659D01*
X120242737Y-113004657D01*
X119981899Y-112965340D01*
X119718100Y-112965340D01*
X119457262Y-113004657D01*
X119457252Y-113004659D01*
X119205210Y-113082403D01*
X119205191Y-113082410D01*
X118967540Y-113196856D01*
X118967532Y-113196861D01*
X118793634Y-113315422D01*
X119347431Y-113869219D01*
X119380916Y-113930542D01*
X119375932Y-114000234D01*
X119341790Y-114046210D01*
X119343537Y-114048055D01*
X119206007Y-114178329D01*
X119206004Y-114178333D01*
X119186544Y-114207034D01*
X119132629Y-114251474D01*
X119063246Y-114259710D01*
X119000425Y-114229127D01*
X118996232Y-114225125D01*
X118440758Y-113669651D01*
X118391738Y-113731121D01*
X118259849Y-113959562D01*
X118163478Y-114205110D01*
X118163473Y-114205127D01*
X118104777Y-114462292D01*
X118085065Y-114725335D01*
X118085065Y-114725344D01*
X105914935Y-114725344D01*
X105914935Y-114725335D01*
X105895222Y-114462292D01*
X105836526Y-114205127D01*
X105836521Y-114205110D01*
X105740150Y-113959562D01*
X105608258Y-113731117D01*
X105559240Y-113669651D01*
X105003428Y-114225463D01*
X104942105Y-114258948D01*
X104872413Y-114253964D01*
X104821239Y-114218058D01*
X104731074Y-114111908D01*
X104661672Y-114059150D01*
X104620214Y-114002909D01*
X104615745Y-113933182D01*
X104649032Y-113872753D01*
X105206364Y-113315422D01*
X105032461Y-113196857D01*
X105032460Y-113196856D01*
X104794808Y-113082410D01*
X104794789Y-113082403D01*
X104542747Y-113004659D01*
X104542737Y-113004657D01*
X104281899Y-112965340D01*
X104018100Y-112965340D01*
X103757262Y-113004657D01*
X103757252Y-113004659D01*
X103505210Y-113082403D01*
X103505191Y-113082410D01*
X103267540Y-113196856D01*
X103267532Y-113196861D01*
X103093634Y-113315422D01*
X103647431Y-113869219D01*
X103680916Y-113930542D01*
X103675932Y-114000234D01*
X103641790Y-114046210D01*
X103643537Y-114048055D01*
X103506007Y-114178329D01*
X103506004Y-114178333D01*
X103486544Y-114207034D01*
X103432629Y-114251474D01*
X103363246Y-114259710D01*
X103300425Y-114229127D01*
X103296232Y-114225125D01*
X102740758Y-113669651D01*
X102691738Y-113731121D01*
X102559849Y-113959562D01*
X102463478Y-114205110D01*
X102463473Y-114205127D01*
X102404777Y-114462292D01*
X102385065Y-114725335D01*
X102385065Y-114725344D01*
X96614935Y-114725344D01*
X96614935Y-114725335D01*
X96595222Y-114462292D01*
X96536526Y-114205127D01*
X96536521Y-114205110D01*
X96440150Y-113959562D01*
X96308258Y-113731117D01*
X96259240Y-113669651D01*
X95703428Y-114225463D01*
X95642105Y-114258948D01*
X95572413Y-114253964D01*
X95521239Y-114218058D01*
X95431074Y-114111908D01*
X95361672Y-114059150D01*
X95320214Y-114002909D01*
X95315745Y-113933182D01*
X95349032Y-113872753D01*
X95906364Y-113315422D01*
X95732461Y-113196857D01*
X95732460Y-113196856D01*
X95494808Y-113082410D01*
X95494789Y-113082403D01*
X95242747Y-113004659D01*
X95242737Y-113004657D01*
X94981899Y-112965340D01*
X94718100Y-112965340D01*
X94457262Y-113004657D01*
X94457252Y-113004659D01*
X94205210Y-113082403D01*
X94205191Y-113082410D01*
X93967540Y-113196856D01*
X93967532Y-113196861D01*
X93793634Y-113315422D01*
X94347431Y-113869219D01*
X94380916Y-113930542D01*
X94375932Y-114000234D01*
X94341790Y-114046210D01*
X94343537Y-114048055D01*
X94206007Y-114178329D01*
X94206004Y-114178333D01*
X94186544Y-114207034D01*
X94132629Y-114251474D01*
X94063246Y-114259710D01*
X94000425Y-114229127D01*
X93996232Y-114225125D01*
X93440758Y-113669651D01*
X93391738Y-113731121D01*
X93259849Y-113959562D01*
X93163478Y-114205110D01*
X93163473Y-114205127D01*
X93104777Y-114462292D01*
X93085065Y-114725335D01*
X93085065Y-114725344D01*
X80914935Y-114725344D01*
X80914935Y-114725335D01*
X80895222Y-114462292D01*
X80836526Y-114205127D01*
X80836521Y-114205110D01*
X80740150Y-113959562D01*
X80608258Y-113731117D01*
X80559240Y-113669651D01*
X80003428Y-114225463D01*
X79942105Y-114258948D01*
X79872413Y-114253964D01*
X79821239Y-114218058D01*
X79731074Y-114111908D01*
X79661672Y-114059150D01*
X79620214Y-114002909D01*
X79615745Y-113933182D01*
X79649032Y-113872753D01*
X80206364Y-113315422D01*
X80032461Y-113196857D01*
X80032460Y-113196856D01*
X79794808Y-113082410D01*
X79794789Y-113082403D01*
X79542747Y-113004659D01*
X79542737Y-113004657D01*
X79281899Y-112965340D01*
X79018100Y-112965340D01*
X78757262Y-113004657D01*
X78757252Y-113004659D01*
X78505210Y-113082403D01*
X78505191Y-113082410D01*
X78267540Y-113196856D01*
X78267532Y-113196861D01*
X78093634Y-113315422D01*
X78647431Y-113869219D01*
X78680916Y-113930542D01*
X78675932Y-114000234D01*
X78641790Y-114046210D01*
X78643537Y-114048055D01*
X78506007Y-114178329D01*
X78506004Y-114178333D01*
X78486544Y-114207034D01*
X78432629Y-114251474D01*
X78363246Y-114259710D01*
X78300425Y-114229127D01*
X78296232Y-114225125D01*
X77740758Y-113669651D01*
X77691738Y-113731121D01*
X77559849Y-113959562D01*
X77463478Y-114205110D01*
X77463473Y-114205127D01*
X77404777Y-114462292D01*
X77385065Y-114725335D01*
X77385065Y-114725344D01*
X46725487Y-114725344D01*
X46707429Y-112865340D01*
X82490906Y-112865340D01*
X82509238Y-113051473D01*
X82563533Y-113230460D01*
X82651696Y-113395400D01*
X82651700Y-113395407D01*
X82770353Y-113539986D01*
X82914932Y-113658639D01*
X82914939Y-113658643D01*
X83079879Y-113746806D01*
X83079881Y-113746806D01*
X83079884Y-113746808D01*
X83258865Y-113801101D01*
X83258864Y-113801101D01*
X83275553Y-113802744D01*
X83445000Y-113819434D01*
X83631135Y-113801101D01*
X83810116Y-113746808D01*
X83975066Y-113658640D01*
X84119646Y-113539986D01*
X84217149Y-113421178D01*
X84274894Y-113381844D01*
X84344739Y-113379973D01*
X84404507Y-113416160D01*
X84424002Y-113444571D01*
X84451224Y-113499240D01*
X84466851Y-113519934D01*
X84903372Y-113083413D01*
X84964695Y-113049928D01*
X85034386Y-113054912D01*
X85087999Y-113093780D01*
X85168905Y-113195232D01*
X85241322Y-113244605D01*
X85285624Y-113298634D01*
X85293682Y-113368038D01*
X85262940Y-113430780D01*
X85259151Y-113434740D01*
X84822397Y-113871493D01*
X84938268Y-113943238D01*
X84938270Y-113943239D01*
X85145473Y-114023509D01*
X85363899Y-114064340D01*
X85586101Y-114064340D01*
X85804525Y-114023509D01*
X85804535Y-114023506D01*
X86011729Y-113943239D01*
X86011731Y-113943238D01*
X86127601Y-113871493D01*
X85693311Y-113437204D01*
X85659826Y-113375881D01*
X85664810Y-113306190D01*
X85706681Y-113250256D01*
X85727192Y-113237803D01*
X85728509Y-113237169D01*
X85826844Y-113145927D01*
X85849372Y-113106906D01*
X85899936Y-113058692D01*
X85968543Y-113045468D01*
X86033408Y-113071435D01*
X86044439Y-113081226D01*
X86483147Y-113519934D01*
X86498776Y-113499238D01*
X86498780Y-113499231D01*
X86525996Y-113444573D01*
X86573498Y-113393336D01*
X86641160Y-113375913D01*
X86707501Y-113397837D01*
X86732850Y-113421178D01*
X86830353Y-113539986D01*
X86974932Y-113658639D01*
X86974939Y-113658643D01*
X87139879Y-113746806D01*
X87139881Y-113746806D01*
X87139884Y-113746808D01*
X87318865Y-113801101D01*
X87318864Y-113801101D01*
X87335553Y-113802744D01*
X87505000Y-113819434D01*
X87691135Y-113801101D01*
X87870116Y-113746808D01*
X88035066Y-113658640D01*
X88179646Y-113539986D01*
X88298300Y-113395406D01*
X88386468Y-113230456D01*
X88401339Y-113181429D01*
X88439637Y-113122992D01*
X88503449Y-113094536D01*
X88572516Y-113105096D01*
X88624910Y-113151320D01*
X88638661Y-113181431D01*
X88653533Y-113230460D01*
X88741696Y-113395400D01*
X88741700Y-113395407D01*
X88860353Y-113539986D01*
X89004932Y-113658639D01*
X89004939Y-113658643D01*
X89169879Y-113746806D01*
X89169881Y-113746806D01*
X89169884Y-113746808D01*
X89348865Y-113801101D01*
X89348864Y-113801101D01*
X89367196Y-113802906D01*
X89535000Y-113819434D01*
X89721135Y-113801101D01*
X89900116Y-113746808D01*
X90065066Y-113658640D01*
X90209646Y-113539986D01*
X90328300Y-113395406D01*
X90416468Y-113230456D01*
X90470761Y-113051475D01*
X90489094Y-112865340D01*
X107490906Y-112865340D01*
X107509238Y-113051473D01*
X107563533Y-113230460D01*
X107651696Y-113395400D01*
X107651700Y-113395407D01*
X107770353Y-113539986D01*
X107914932Y-113658639D01*
X107914939Y-113658643D01*
X108079879Y-113746806D01*
X108079881Y-113746806D01*
X108079884Y-113746808D01*
X108258865Y-113801101D01*
X108258864Y-113801101D01*
X108277196Y-113802906D01*
X108445000Y-113819434D01*
X108631135Y-113801101D01*
X108810116Y-113746808D01*
X108975066Y-113658640D01*
X109119646Y-113539986D01*
X109217149Y-113421178D01*
X109274894Y-113381844D01*
X109344739Y-113379973D01*
X109404507Y-113416160D01*
X109424002Y-113444571D01*
X109451224Y-113499240D01*
X109466851Y-113519934D01*
X109903372Y-113083413D01*
X109964695Y-113049928D01*
X110034386Y-113054912D01*
X110087999Y-113093780D01*
X110168905Y-113195232D01*
X110241322Y-113244605D01*
X110285624Y-113298634D01*
X110293682Y-113368038D01*
X110262940Y-113430780D01*
X110259151Y-113434740D01*
X109822397Y-113871493D01*
X109938268Y-113943238D01*
X109938270Y-113943239D01*
X110145473Y-114023509D01*
X110363899Y-114064340D01*
X110586101Y-114064340D01*
X110804525Y-114023509D01*
X110804535Y-114023506D01*
X111011729Y-113943239D01*
X111011731Y-113943238D01*
X111127601Y-113871493D01*
X110693311Y-113437204D01*
X110659826Y-113375881D01*
X110664810Y-113306190D01*
X110706681Y-113250256D01*
X110727192Y-113237803D01*
X110728509Y-113237169D01*
X110826844Y-113145927D01*
X110849372Y-113106906D01*
X110899936Y-113058692D01*
X110968543Y-113045468D01*
X111033408Y-113071435D01*
X111044439Y-113081226D01*
X111483147Y-113519934D01*
X111498776Y-113499238D01*
X111498780Y-113499231D01*
X111525996Y-113444573D01*
X111573498Y-113393336D01*
X111641160Y-113375913D01*
X111707501Y-113397837D01*
X111732850Y-113421178D01*
X111830353Y-113539986D01*
X111974932Y-113658639D01*
X111974939Y-113658643D01*
X112139879Y-113746806D01*
X112139881Y-113746806D01*
X112139884Y-113746808D01*
X112318865Y-113801101D01*
X112318864Y-113801101D01*
X112335553Y-113802744D01*
X112505000Y-113819434D01*
X112691135Y-113801101D01*
X112870116Y-113746808D01*
X113035066Y-113658640D01*
X113179646Y-113539986D01*
X113298300Y-113395406D01*
X113386468Y-113230456D01*
X113401339Y-113181429D01*
X113439637Y-113122992D01*
X113503449Y-113094536D01*
X113572516Y-113105096D01*
X113624910Y-113151320D01*
X113638661Y-113181431D01*
X113653533Y-113230460D01*
X113741696Y-113395400D01*
X113741700Y-113395407D01*
X113860353Y-113539986D01*
X114004932Y-113658639D01*
X114004939Y-113658643D01*
X114169879Y-113746806D01*
X114169881Y-113746806D01*
X114169884Y-113746808D01*
X114348865Y-113801101D01*
X114348864Y-113801101D01*
X114367197Y-113802906D01*
X114535000Y-113819434D01*
X114721135Y-113801101D01*
X114900116Y-113746808D01*
X115065066Y-113658640D01*
X115209646Y-113539986D01*
X115328300Y-113395406D01*
X115416468Y-113230456D01*
X115470761Y-113051475D01*
X115489094Y-112865340D01*
X115470761Y-112679205D01*
X115416468Y-112500224D01*
X115416466Y-112500221D01*
X115416466Y-112500219D01*
X115328303Y-112335279D01*
X115328299Y-112335272D01*
X115231543Y-112217375D01*
X115204230Y-112153065D01*
X115216021Y-112084197D01*
X115263173Y-112032637D01*
X115330716Y-112014754D01*
X115350181Y-112016821D01*
X115443899Y-112034340D01*
X115666101Y-112034340D01*
X115884525Y-111993509D01*
X115884535Y-111993506D01*
X116091729Y-111913239D01*
X116091731Y-111913238D01*
X116207601Y-111841493D01*
X115773311Y-111407204D01*
X115739826Y-111345881D01*
X115744810Y-111276190D01*
X115786681Y-111220256D01*
X115807192Y-111207803D01*
X115808509Y-111207169D01*
X115906844Y-111115927D01*
X115929372Y-111076906D01*
X115979936Y-111028692D01*
X116048543Y-111015468D01*
X116113408Y-111041435D01*
X116124439Y-111051226D01*
X116563147Y-111489934D01*
X116578776Y-111469238D01*
X116578783Y-111469226D01*
X116677817Y-111270339D01*
X116677825Y-111270319D01*
X116738633Y-111056601D01*
X116738634Y-111056599D01*
X116759136Y-110835340D01*
X116759136Y-110835339D01*
X116738634Y-110614080D01*
X116738633Y-110614078D01*
X116677825Y-110400360D01*
X116677819Y-110400345D01*
X116578781Y-110201450D01*
X116578776Y-110201443D01*
X116563146Y-110180744D01*
X116126626Y-110617264D01*
X116065303Y-110650749D01*
X115995611Y-110645765D01*
X115941998Y-110606896D01*
X115924807Y-110585340D01*
X115861095Y-110505448D01*
X115788674Y-110456072D01*
X115744375Y-110402045D01*
X115736315Y-110332642D01*
X115767058Y-110269899D01*
X115770847Y-110265939D01*
X116207601Y-109829185D01*
X116207600Y-109829184D01*
X116091733Y-109757442D01*
X116091727Y-109757439D01*
X115884526Y-109677170D01*
X115666101Y-109636340D01*
X115443899Y-109636340D01*
X115225474Y-109677170D01*
X115225473Y-109677170D01*
X115018272Y-109757439D01*
X115018266Y-109757443D01*
X114902398Y-109829184D01*
X114902397Y-109829185D01*
X115336688Y-110263475D01*
X115370173Y-110324798D01*
X115365189Y-110394489D01*
X115323318Y-110450423D01*
X115302814Y-110462874D01*
X115301489Y-110463511D01*
X115203156Y-110554752D01*
X115180628Y-110593773D01*
X115130060Y-110641988D01*
X115061453Y-110655210D01*
X114996589Y-110629242D01*
X114985560Y-110619453D01*
X114546852Y-110180744D01*
X114531222Y-110201443D01*
X114531221Y-110201444D01*
X114504001Y-110256109D01*
X114456498Y-110307346D01*
X114388835Y-110324766D01*
X114322495Y-110302839D01*
X114297149Y-110279501D01*
X114199646Y-110160693D01*
X114055067Y-110042040D01*
X114055060Y-110042036D01*
X113890120Y-109953873D01*
X113800625Y-109926725D01*
X113711135Y-109899579D01*
X113711133Y-109899578D01*
X113711135Y-109899578D01*
X113541688Y-109882889D01*
X113525000Y-109881246D01*
X113524999Y-109881246D01*
X113338866Y-109899578D01*
X113159879Y-109953873D01*
X112994939Y-110042036D01*
X112994932Y-110042040D01*
X112850353Y-110160693D01*
X112752850Y-110279501D01*
X112695104Y-110318835D01*
X112625259Y-110320706D01*
X112565491Y-110284518D01*
X112545996Y-110256107D01*
X112518778Y-110201446D01*
X112518776Y-110201443D01*
X112503146Y-110180744D01*
X112066626Y-110617264D01*
X112005303Y-110650749D01*
X111935611Y-110645765D01*
X111881998Y-110606896D01*
X111864807Y-110585340D01*
X111801095Y-110505448D01*
X111728674Y-110456072D01*
X111684375Y-110402045D01*
X111676315Y-110332642D01*
X111707058Y-110269899D01*
X111710847Y-110265939D01*
X112147601Y-109829185D01*
X112147600Y-109829184D01*
X112031733Y-109757442D01*
X112031727Y-109757439D01*
X111824526Y-109677170D01*
X111606101Y-109636340D01*
X111383899Y-109636340D01*
X111165474Y-109677170D01*
X111165473Y-109677170D01*
X110958272Y-109757439D01*
X110958266Y-109757442D01*
X110769347Y-109874416D01*
X110769342Y-109874419D01*
X110765178Y-109878216D01*
X110702373Y-109908831D01*
X110632986Y-109900631D01*
X110582376Y-109860887D01*
X110521186Y-109779149D01*
X110406093Y-109692989D01*
X110406086Y-109692985D01*
X110271379Y-109642743D01*
X110271372Y-109642741D01*
X110211844Y-109636340D01*
X109715000Y-109636340D01*
X109715000Y-110278751D01*
X109695315Y-110345790D01*
X109642511Y-110391545D01*
X109573353Y-110401489D01*
X109554451Y-110397242D01*
X109532075Y-110390340D01*
X109532073Y-110390340D01*
X109431654Y-110390340D01*
X109431646Y-110390340D01*
X109357481Y-110401519D01*
X109288256Y-110392046D01*
X109235143Y-110346651D01*
X109215003Y-110279747D01*
X109215000Y-110278904D01*
X109215000Y-109636340D01*
X108718155Y-109636340D01*
X108658627Y-109642741D01*
X108658620Y-109642743D01*
X108523913Y-109692985D01*
X108523906Y-109692989D01*
X108408812Y-109779149D01*
X108408809Y-109779152D01*
X108322649Y-109894246D01*
X108322645Y-109894253D01*
X108272403Y-110028960D01*
X108272401Y-110028967D01*
X108266000Y-110088495D01*
X108266000Y-110585340D01*
X108910126Y-110585340D01*
X108977165Y-110605025D01*
X109022920Y-110657829D01*
X109032864Y-110726987D01*
X109031017Y-110736933D01*
X109016232Y-110801710D01*
X109016231Y-110801710D01*
X109026951Y-110944746D01*
X109025178Y-110944878D01*
X109021592Y-111003476D01*
X108980299Y-111059838D01*
X108915089Y-111084927D01*
X108904971Y-111085340D01*
X108266000Y-111085340D01*
X108266000Y-111582184D01*
X108272401Y-111641712D01*
X108272403Y-111641720D01*
X108321350Y-111772954D01*
X108326334Y-111842646D01*
X108292849Y-111903969D01*
X108241164Y-111934947D01*
X108079882Y-111983872D01*
X107914939Y-112072036D01*
X107914932Y-112072040D01*
X107770353Y-112190693D01*
X107651700Y-112335272D01*
X107651696Y-112335279D01*
X107563533Y-112500219D01*
X107509238Y-112679206D01*
X107490906Y-112865340D01*
X90489094Y-112865340D01*
X90470761Y-112679205D01*
X90416468Y-112500224D01*
X90416466Y-112500221D01*
X90416466Y-112500219D01*
X90328303Y-112335279D01*
X90328299Y-112335272D01*
X90231543Y-112217375D01*
X90204230Y-112153065D01*
X90216021Y-112084197D01*
X90263173Y-112032637D01*
X90330716Y-112014754D01*
X90350181Y-112016821D01*
X90443899Y-112034340D01*
X90666101Y-112034340D01*
X90884525Y-111993509D01*
X90884535Y-111993506D01*
X91091729Y-111913239D01*
X91091731Y-111913238D01*
X91207601Y-111841493D01*
X90773311Y-111407204D01*
X90739826Y-111345881D01*
X90744810Y-111276190D01*
X90786681Y-111220256D01*
X90807192Y-111207803D01*
X90808509Y-111207169D01*
X90906844Y-111115927D01*
X90929372Y-111076906D01*
X90979936Y-111028692D01*
X91048543Y-111015468D01*
X91113408Y-111041435D01*
X91124439Y-111051226D01*
X91563147Y-111489934D01*
X91578776Y-111469238D01*
X91578783Y-111469226D01*
X91677817Y-111270339D01*
X91677825Y-111270319D01*
X91738633Y-111056601D01*
X91738634Y-111056599D01*
X91759136Y-110835340D01*
X91759136Y-110835339D01*
X91738634Y-110614080D01*
X91738633Y-110614078D01*
X91677825Y-110400360D01*
X91677819Y-110400345D01*
X91578781Y-110201450D01*
X91578776Y-110201443D01*
X91563146Y-110180744D01*
X91126626Y-110617264D01*
X91065303Y-110650749D01*
X90995611Y-110645765D01*
X90941998Y-110606896D01*
X90924807Y-110585340D01*
X90861095Y-110505448D01*
X90788674Y-110456072D01*
X90744375Y-110402045D01*
X90736315Y-110332642D01*
X90767058Y-110269899D01*
X90770847Y-110265939D01*
X91207601Y-109829185D01*
X91207600Y-109829184D01*
X91091733Y-109757442D01*
X91091727Y-109757439D01*
X90884526Y-109677170D01*
X90666101Y-109636340D01*
X90443899Y-109636340D01*
X90225474Y-109677170D01*
X90225473Y-109677170D01*
X90018272Y-109757439D01*
X90018266Y-109757443D01*
X89902398Y-109829184D01*
X89902397Y-109829185D01*
X90336688Y-110263475D01*
X90370173Y-110324798D01*
X90365189Y-110394489D01*
X90323318Y-110450423D01*
X90302814Y-110462874D01*
X90301489Y-110463511D01*
X90203156Y-110554752D01*
X90180628Y-110593773D01*
X90130060Y-110641988D01*
X90061453Y-110655210D01*
X89996589Y-110629242D01*
X89985560Y-110619453D01*
X89546852Y-110180744D01*
X89531222Y-110201443D01*
X89531221Y-110201444D01*
X89504001Y-110256109D01*
X89456498Y-110307346D01*
X89388835Y-110324766D01*
X89322495Y-110302839D01*
X89297149Y-110279501D01*
X89199646Y-110160693D01*
X89055067Y-110042040D01*
X89055060Y-110042036D01*
X88890120Y-109953873D01*
X88800625Y-109926725D01*
X88711135Y-109899579D01*
X88711133Y-109899578D01*
X88711135Y-109899578D01*
X88541688Y-109882889D01*
X88525000Y-109881246D01*
X88524999Y-109881246D01*
X88338866Y-109899578D01*
X88159879Y-109953873D01*
X87994939Y-110042036D01*
X87994932Y-110042040D01*
X87850353Y-110160693D01*
X87752850Y-110279501D01*
X87695104Y-110318835D01*
X87625259Y-110320706D01*
X87565491Y-110284518D01*
X87545996Y-110256107D01*
X87518778Y-110201446D01*
X87518776Y-110201443D01*
X87503146Y-110180744D01*
X87066626Y-110617264D01*
X87005303Y-110650749D01*
X86935611Y-110645765D01*
X86881998Y-110606896D01*
X86864807Y-110585340D01*
X86801095Y-110505448D01*
X86728674Y-110456072D01*
X86684375Y-110402045D01*
X86676315Y-110332642D01*
X86707058Y-110269899D01*
X86710847Y-110265939D01*
X87147601Y-109829185D01*
X87147600Y-109829184D01*
X87031733Y-109757442D01*
X87031727Y-109757439D01*
X86824526Y-109677170D01*
X86606101Y-109636340D01*
X86383899Y-109636340D01*
X86165474Y-109677170D01*
X86165473Y-109677170D01*
X85958272Y-109757439D01*
X85958266Y-109757442D01*
X85769347Y-109874416D01*
X85769342Y-109874419D01*
X85765178Y-109878216D01*
X85702373Y-109908831D01*
X85632986Y-109900631D01*
X85582376Y-109860887D01*
X85521186Y-109779149D01*
X85406093Y-109692989D01*
X85406086Y-109692985D01*
X85271379Y-109642743D01*
X85271372Y-109642741D01*
X85211844Y-109636340D01*
X84715000Y-109636340D01*
X84715000Y-110278751D01*
X84695315Y-110345790D01*
X84642511Y-110391545D01*
X84573353Y-110401489D01*
X84554451Y-110397242D01*
X84532075Y-110390340D01*
X84532073Y-110390340D01*
X84431654Y-110390340D01*
X84431646Y-110390340D01*
X84357481Y-110401519D01*
X84288256Y-110392046D01*
X84235143Y-110346651D01*
X84215003Y-110279747D01*
X84215000Y-110278904D01*
X84215000Y-109636340D01*
X83718155Y-109636340D01*
X83658627Y-109642741D01*
X83658620Y-109642743D01*
X83523913Y-109692985D01*
X83523906Y-109692989D01*
X83408812Y-109779149D01*
X83408809Y-109779152D01*
X83322649Y-109894246D01*
X83322645Y-109894253D01*
X83272403Y-110028960D01*
X83272401Y-110028967D01*
X83266000Y-110088495D01*
X83266000Y-110585340D01*
X83910126Y-110585340D01*
X83977165Y-110605025D01*
X84022920Y-110657829D01*
X84032864Y-110726987D01*
X84031017Y-110736933D01*
X84016232Y-110801710D01*
X84016231Y-110801710D01*
X84026951Y-110944746D01*
X84025178Y-110944878D01*
X84021592Y-111003476D01*
X83980299Y-111059838D01*
X83915089Y-111084927D01*
X83904971Y-111085340D01*
X83266000Y-111085340D01*
X83266000Y-111582184D01*
X83272401Y-111641712D01*
X83272403Y-111641720D01*
X83321350Y-111772954D01*
X83326334Y-111842646D01*
X83292849Y-111903969D01*
X83241164Y-111934947D01*
X83079882Y-111983872D01*
X82914939Y-112072036D01*
X82914932Y-112072040D01*
X82770353Y-112190693D01*
X82651700Y-112335272D01*
X82651696Y-112335279D01*
X82563533Y-112500219D01*
X82509238Y-112679206D01*
X82490906Y-112865340D01*
X46707429Y-112865340D01*
X46586407Y-100400002D01*
X56185034Y-100400002D01*
X56204858Y-100626599D01*
X56204860Y-100626610D01*
X56263730Y-100846317D01*
X56263734Y-100846326D01*
X56359865Y-101052481D01*
X56359866Y-101052483D01*
X56410973Y-101125471D01*
X56410973Y-101125472D01*
X56841481Y-100694963D01*
X56902804Y-100661478D01*
X56972495Y-100666462D01*
X57028429Y-100708333D01*
X57031514Y-100713249D01*
X57031549Y-100713225D01*
X57036441Y-100720156D01*
X57139637Y-100830651D01*
X57139638Y-100830652D01*
X57174698Y-100851973D01*
X57221749Y-100903623D01*
X57233407Y-100972513D01*
X57205970Y-101036770D01*
X57197950Y-101045601D01*
X56764526Y-101479025D01*
X56764526Y-101479026D01*
X56837512Y-101530131D01*
X56837516Y-101530133D01*
X57043673Y-101626265D01*
X57043682Y-101626269D01*
X57263389Y-101685139D01*
X57263400Y-101685141D01*
X57489998Y-101704966D01*
X57490002Y-101704966D01*
X57716599Y-101685141D01*
X57716610Y-101685139D01*
X57936317Y-101626269D01*
X57936331Y-101626264D01*
X58142478Y-101530136D01*
X58215472Y-101479025D01*
X57783165Y-101046719D01*
X57749680Y-100985396D01*
X57754664Y-100915705D01*
X57792589Y-100862852D01*
X57895739Y-100778934D01*
X57946052Y-100707655D01*
X58000793Y-100664239D01*
X58070318Y-100657309D01*
X58132553Y-100689067D01*
X58135037Y-100691483D01*
X58569025Y-101125472D01*
X58620136Y-101052478D01*
X58716264Y-100846331D01*
X58716269Y-100846317D01*
X58768673Y-100650743D01*
X58805038Y-100591082D01*
X58867885Y-100560553D01*
X58937260Y-100568848D01*
X58991138Y-100613333D01*
X59007108Y-100646840D01*
X59054768Y-100803954D01*
X59152315Y-100986450D01*
X59152317Y-100986452D01*
X59283589Y-101146410D01*
X59380209Y-101225702D01*
X59443550Y-101277685D01*
X59626046Y-101375232D01*
X59824066Y-101435300D01*
X59824065Y-101435300D01*
X59842529Y-101437118D01*
X60030000Y-101455583D01*
X60235934Y-101435300D01*
X60433954Y-101375232D01*
X60616450Y-101277685D01*
X60776410Y-101146410D01*
X60907685Y-100986450D01*
X61005232Y-100803954D01*
X61065300Y-100605934D01*
X61085583Y-100400000D01*
X61514417Y-100400000D01*
X61534699Y-100605932D01*
X61549710Y-100655415D01*
X61594768Y-100803954D01*
X61692315Y-100986450D01*
X61692317Y-100986452D01*
X61823589Y-101146410D01*
X61920209Y-101225702D01*
X61983550Y-101277685D01*
X62166046Y-101375232D01*
X62364066Y-101435300D01*
X62364065Y-101435300D01*
X62384348Y-101437297D01*
X62570000Y-101455583D01*
X62775934Y-101435300D01*
X62973954Y-101375232D01*
X63156450Y-101277685D01*
X63316410Y-101146410D01*
X63447685Y-100986450D01*
X63545232Y-100803954D01*
X63605300Y-100605934D01*
X63625583Y-100400000D01*
X63625583Y-100399999D01*
X64054417Y-100399999D01*
X64074699Y-100605932D01*
X64089710Y-100655415D01*
X64134768Y-100803954D01*
X64232315Y-100986450D01*
X64232317Y-100986452D01*
X64363589Y-101146410D01*
X64460209Y-101225702D01*
X64523550Y-101277685D01*
X64706046Y-101375232D01*
X64904066Y-101435300D01*
X64904065Y-101435300D01*
X64924347Y-101437297D01*
X65110000Y-101455583D01*
X65315934Y-101435300D01*
X65513954Y-101375232D01*
X65696450Y-101277685D01*
X65856410Y-101146410D01*
X65987685Y-100986450D01*
X66085232Y-100803954D01*
X66145300Y-100605934D01*
X66165583Y-100400000D01*
X66594417Y-100400000D01*
X66614699Y-100605932D01*
X66629710Y-100655415D01*
X66674768Y-100803954D01*
X66772315Y-100986450D01*
X66772317Y-100986452D01*
X66903589Y-101146410D01*
X67000209Y-101225702D01*
X67063550Y-101277685D01*
X67246046Y-101375232D01*
X67444066Y-101435300D01*
X67444065Y-101435300D01*
X67462529Y-101437118D01*
X67650000Y-101455583D01*
X67855934Y-101435300D01*
X68053954Y-101375232D01*
X68236450Y-101277685D01*
X68396410Y-101146410D01*
X68527685Y-100986450D01*
X68625232Y-100803954D01*
X68685300Y-100605934D01*
X68705583Y-100400000D01*
X68705583Y-100399999D01*
X69134417Y-100399999D01*
X69154699Y-100605932D01*
X69169710Y-100655415D01*
X69214768Y-100803954D01*
X69312315Y-100986450D01*
X69312317Y-100986452D01*
X69443589Y-101146410D01*
X69540209Y-101225702D01*
X69603550Y-101277685D01*
X69786046Y-101375232D01*
X69984066Y-101435300D01*
X69984065Y-101435300D01*
X70002529Y-101437118D01*
X70190000Y-101455583D01*
X70395934Y-101435300D01*
X70593954Y-101375232D01*
X70776450Y-101277685D01*
X70936410Y-101146410D01*
X71067685Y-100986450D01*
X71165232Y-100803954D01*
X71225300Y-100605934D01*
X71245583Y-100400000D01*
X71674417Y-100400000D01*
X71694699Y-100605932D01*
X71709710Y-100655415D01*
X71754768Y-100803954D01*
X71852315Y-100986450D01*
X71852317Y-100986452D01*
X71983589Y-101146410D01*
X72080209Y-101225702D01*
X72143550Y-101277685D01*
X72326046Y-101375232D01*
X72524066Y-101435300D01*
X72524065Y-101435300D01*
X72544348Y-101437297D01*
X72730000Y-101455583D01*
X72935934Y-101435300D01*
X73133954Y-101375232D01*
X73316450Y-101277685D01*
X73476410Y-101146410D01*
X73607685Y-100986450D01*
X73705232Y-100803954D01*
X73765300Y-100605934D01*
X73785583Y-100400000D01*
X74214417Y-100400000D01*
X74234699Y-100605932D01*
X74249710Y-100655415D01*
X74294768Y-100803954D01*
X74392315Y-100986450D01*
X74392317Y-100986452D01*
X74523589Y-101146410D01*
X74620209Y-101225702D01*
X74683550Y-101277685D01*
X74866046Y-101375232D01*
X75064066Y-101435300D01*
X75064065Y-101435300D01*
X75082529Y-101437118D01*
X75270000Y-101455583D01*
X75475934Y-101435300D01*
X75673954Y-101375232D01*
X75856450Y-101277685D01*
X76016410Y-101146410D01*
X76147685Y-100986450D01*
X76245232Y-100803954D01*
X76305300Y-100605934D01*
X76325583Y-100400000D01*
X76325583Y-100399999D01*
X76754417Y-100399999D01*
X76774699Y-100605932D01*
X76789710Y-100655415D01*
X76834768Y-100803954D01*
X76932315Y-100986450D01*
X76932317Y-100986452D01*
X77063589Y-101146410D01*
X77160209Y-101225702D01*
X77223550Y-101277685D01*
X77406046Y-101375232D01*
X77604066Y-101435300D01*
X77604065Y-101435300D01*
X77624347Y-101437297D01*
X77810000Y-101455583D01*
X78015934Y-101435300D01*
X78213954Y-101375232D01*
X78396450Y-101277685D01*
X78556410Y-101146410D01*
X78687685Y-100986450D01*
X78785232Y-100803954D01*
X78845300Y-100605934D01*
X78865583Y-100400000D01*
X79294417Y-100400000D01*
X79314699Y-100605932D01*
X79329710Y-100655415D01*
X79374768Y-100803954D01*
X79472315Y-100986450D01*
X79472317Y-100986452D01*
X79603589Y-101146410D01*
X79700209Y-101225702D01*
X79763550Y-101277685D01*
X79946046Y-101375232D01*
X80144066Y-101435300D01*
X80144065Y-101435300D01*
X80162529Y-101437118D01*
X80350000Y-101455583D01*
X80555934Y-101435300D01*
X80753954Y-101375232D01*
X80936450Y-101277685D01*
X81096410Y-101146410D01*
X81227685Y-100986450D01*
X81325232Y-100803954D01*
X81385300Y-100605934D01*
X81405583Y-100400000D01*
X81405583Y-100399999D01*
X81834417Y-100399999D01*
X81854699Y-100605932D01*
X81869710Y-100655415D01*
X81914768Y-100803954D01*
X82012315Y-100986450D01*
X82012317Y-100986452D01*
X82143589Y-101146410D01*
X82240209Y-101225702D01*
X82303550Y-101277685D01*
X82486046Y-101375232D01*
X82684066Y-101435300D01*
X82684065Y-101435300D01*
X82702529Y-101437118D01*
X82890000Y-101455583D01*
X83095934Y-101435300D01*
X83293954Y-101375232D01*
X83476450Y-101277685D01*
X83636410Y-101146410D01*
X83767685Y-100986450D01*
X83865232Y-100803954D01*
X83925300Y-100605934D01*
X83945583Y-100400000D01*
X84374417Y-100400000D01*
X84394699Y-100605932D01*
X84409710Y-100655415D01*
X84454768Y-100803954D01*
X84552315Y-100986450D01*
X84552317Y-100986452D01*
X84683589Y-101146410D01*
X84780209Y-101225702D01*
X84843550Y-101277685D01*
X85026046Y-101375232D01*
X85224066Y-101435300D01*
X85224065Y-101435300D01*
X85244347Y-101437297D01*
X85430000Y-101455583D01*
X85635934Y-101435300D01*
X85833954Y-101375232D01*
X86016450Y-101277685D01*
X86176410Y-101146410D01*
X86307685Y-100986450D01*
X86405232Y-100803954D01*
X86465300Y-100605934D01*
X86485583Y-100400000D01*
X86485583Y-100399999D01*
X86914417Y-100399999D01*
X86934699Y-100605932D01*
X86949710Y-100655415D01*
X86994768Y-100803954D01*
X87092315Y-100986450D01*
X87092317Y-100986452D01*
X87223589Y-101146410D01*
X87320209Y-101225702D01*
X87383550Y-101277685D01*
X87566046Y-101375232D01*
X87764066Y-101435300D01*
X87764065Y-101435300D01*
X87784347Y-101437297D01*
X87970000Y-101455583D01*
X88175934Y-101435300D01*
X88373954Y-101375232D01*
X88556450Y-101277685D01*
X88716410Y-101146410D01*
X88847685Y-100986450D01*
X88945232Y-100803954D01*
X89005300Y-100605934D01*
X89025583Y-100400000D01*
X89454417Y-100400000D01*
X89474699Y-100605932D01*
X89489710Y-100655415D01*
X89534768Y-100803954D01*
X89632315Y-100986450D01*
X89632317Y-100986452D01*
X89763589Y-101146410D01*
X89860209Y-101225702D01*
X89923550Y-101277685D01*
X90106046Y-101375232D01*
X90304066Y-101435300D01*
X90304065Y-101435300D01*
X90322529Y-101437118D01*
X90510000Y-101455583D01*
X90715934Y-101435300D01*
X90913954Y-101375232D01*
X91096450Y-101277685D01*
X91256410Y-101146410D01*
X91387685Y-100986450D01*
X91485232Y-100803954D01*
X91545300Y-100605934D01*
X91565583Y-100400000D01*
X91545300Y-100194066D01*
X91485232Y-99996046D01*
X91387685Y-99813550D01*
X91333489Y-99747512D01*
X91256410Y-99653589D01*
X91096452Y-99522317D01*
X91096453Y-99522317D01*
X91096450Y-99522315D01*
X90913954Y-99424768D01*
X90715934Y-99364700D01*
X90715932Y-99364699D01*
X90715934Y-99364699D01*
X90510000Y-99344417D01*
X90304067Y-99364699D01*
X90106043Y-99424769D01*
X89995898Y-99483643D01*
X89923550Y-99522315D01*
X89923548Y-99522316D01*
X89923547Y-99522317D01*
X89763589Y-99653589D01*
X89632317Y-99813547D01*
X89632315Y-99813550D01*
X89624867Y-99827485D01*
X89534769Y-99996043D01*
X89474699Y-100194067D01*
X89454417Y-100400000D01*
X89025583Y-100400000D01*
X89005300Y-100194066D01*
X88945232Y-99996046D01*
X88847685Y-99813550D01*
X88793489Y-99747512D01*
X88716410Y-99653589D01*
X88556452Y-99522317D01*
X88556453Y-99522317D01*
X88556450Y-99522315D01*
X88373954Y-99424768D01*
X88175934Y-99364700D01*
X88175932Y-99364699D01*
X88175934Y-99364699D01*
X87970000Y-99344417D01*
X87764067Y-99364699D01*
X87566043Y-99424769D01*
X87455898Y-99483643D01*
X87383550Y-99522315D01*
X87383548Y-99522316D01*
X87383547Y-99522317D01*
X87223589Y-99653589D01*
X87092317Y-99813547D01*
X87092315Y-99813550D01*
X87084867Y-99827485D01*
X86994769Y-99996043D01*
X86934699Y-100194067D01*
X86914417Y-100399999D01*
X86485583Y-100399999D01*
X86465300Y-100194066D01*
X86405232Y-99996046D01*
X86307685Y-99813550D01*
X86253489Y-99747512D01*
X86176410Y-99653589D01*
X86016452Y-99522317D01*
X86016453Y-99522317D01*
X86016450Y-99522315D01*
X85833954Y-99424768D01*
X85635934Y-99364700D01*
X85635932Y-99364699D01*
X85635934Y-99364699D01*
X85448463Y-99346235D01*
X85430000Y-99344417D01*
X85429999Y-99344417D01*
X85224067Y-99364699D01*
X85026043Y-99424769D01*
X84915898Y-99483643D01*
X84843550Y-99522315D01*
X84843548Y-99522316D01*
X84843547Y-99522317D01*
X84683589Y-99653589D01*
X84552317Y-99813547D01*
X84552315Y-99813550D01*
X84544867Y-99827485D01*
X84454769Y-99996043D01*
X84394699Y-100194067D01*
X84374417Y-100400000D01*
X83945583Y-100400000D01*
X83925300Y-100194066D01*
X83865232Y-99996046D01*
X83767685Y-99813550D01*
X83713489Y-99747512D01*
X83636410Y-99653589D01*
X83476452Y-99522317D01*
X83476453Y-99522317D01*
X83476450Y-99522315D01*
X83293954Y-99424768D01*
X83095934Y-99364700D01*
X83095932Y-99364699D01*
X83095934Y-99364699D01*
X82908463Y-99346235D01*
X82890000Y-99344417D01*
X82889999Y-99344417D01*
X82684067Y-99364699D01*
X82486043Y-99424769D01*
X82375898Y-99483643D01*
X82303550Y-99522315D01*
X82303548Y-99522316D01*
X82303547Y-99522317D01*
X82143589Y-99653589D01*
X82012317Y-99813547D01*
X82012315Y-99813550D01*
X82004867Y-99827485D01*
X81914769Y-99996043D01*
X81854699Y-100194067D01*
X81834417Y-100399999D01*
X81405583Y-100399999D01*
X81385300Y-100194066D01*
X81325232Y-99996046D01*
X81227685Y-99813550D01*
X81173489Y-99747512D01*
X81096410Y-99653589D01*
X80936452Y-99522317D01*
X80936453Y-99522317D01*
X80936450Y-99522315D01*
X80753954Y-99424768D01*
X80555934Y-99364700D01*
X80555932Y-99364699D01*
X80555934Y-99364699D01*
X80350000Y-99344417D01*
X80144067Y-99364699D01*
X79946043Y-99424769D01*
X79835898Y-99483643D01*
X79763550Y-99522315D01*
X79763548Y-99522316D01*
X79763547Y-99522317D01*
X79603589Y-99653589D01*
X79472317Y-99813547D01*
X79472315Y-99813550D01*
X79464867Y-99827485D01*
X79374769Y-99996043D01*
X79314699Y-100194067D01*
X79294417Y-100400000D01*
X78865583Y-100400000D01*
X78845300Y-100194066D01*
X78785232Y-99996046D01*
X78687685Y-99813550D01*
X78633489Y-99747512D01*
X78556410Y-99653589D01*
X78396452Y-99522317D01*
X78396453Y-99522317D01*
X78396450Y-99522315D01*
X78213954Y-99424768D01*
X78015934Y-99364700D01*
X78015932Y-99364699D01*
X78015934Y-99364699D01*
X77810000Y-99344417D01*
X77604067Y-99364699D01*
X77406043Y-99424769D01*
X77295898Y-99483643D01*
X77223550Y-99522315D01*
X77223548Y-99522316D01*
X77223547Y-99522317D01*
X77063589Y-99653589D01*
X76932317Y-99813547D01*
X76932315Y-99813550D01*
X76924867Y-99827485D01*
X76834769Y-99996043D01*
X76774699Y-100194067D01*
X76754417Y-100399999D01*
X76325583Y-100399999D01*
X76305300Y-100194066D01*
X76245232Y-99996046D01*
X76147685Y-99813550D01*
X76093489Y-99747512D01*
X76016410Y-99653589D01*
X75856452Y-99522317D01*
X75856453Y-99522317D01*
X75856450Y-99522315D01*
X75673954Y-99424768D01*
X75475934Y-99364700D01*
X75475932Y-99364699D01*
X75475934Y-99364699D01*
X75270000Y-99344417D01*
X75064067Y-99364699D01*
X74866043Y-99424769D01*
X74755898Y-99483643D01*
X74683550Y-99522315D01*
X74683548Y-99522316D01*
X74683547Y-99522317D01*
X74523589Y-99653589D01*
X74392317Y-99813547D01*
X74392315Y-99813550D01*
X74384867Y-99827485D01*
X74294769Y-99996043D01*
X74234699Y-100194067D01*
X74214417Y-100400000D01*
X73785583Y-100400000D01*
X73765300Y-100194066D01*
X73705232Y-99996046D01*
X73607685Y-99813550D01*
X73553489Y-99747512D01*
X73476410Y-99653589D01*
X73316452Y-99522317D01*
X73316453Y-99522317D01*
X73316450Y-99522315D01*
X73133954Y-99424768D01*
X72935934Y-99364700D01*
X72935932Y-99364699D01*
X72935934Y-99364699D01*
X72748463Y-99346235D01*
X72730000Y-99344417D01*
X72729999Y-99344417D01*
X72524067Y-99364699D01*
X72326043Y-99424769D01*
X72215898Y-99483643D01*
X72143550Y-99522315D01*
X72143548Y-99522316D01*
X72143547Y-99522317D01*
X71983589Y-99653589D01*
X71852317Y-99813547D01*
X71852315Y-99813550D01*
X71844867Y-99827485D01*
X71754769Y-99996043D01*
X71694699Y-100194067D01*
X71674417Y-100400000D01*
X71245583Y-100400000D01*
X71225300Y-100194066D01*
X71165232Y-99996046D01*
X71067685Y-99813550D01*
X71013489Y-99747512D01*
X70936410Y-99653589D01*
X70776452Y-99522317D01*
X70776453Y-99522317D01*
X70776450Y-99522315D01*
X70593954Y-99424768D01*
X70395934Y-99364700D01*
X70395932Y-99364699D01*
X70395934Y-99364699D01*
X70208463Y-99346235D01*
X70190000Y-99344417D01*
X70189999Y-99344417D01*
X69984067Y-99364699D01*
X69786043Y-99424769D01*
X69675898Y-99483643D01*
X69603550Y-99522315D01*
X69603548Y-99522316D01*
X69603547Y-99522317D01*
X69443589Y-99653589D01*
X69312317Y-99813547D01*
X69312315Y-99813550D01*
X69304867Y-99827485D01*
X69214769Y-99996043D01*
X69154699Y-100194067D01*
X69134417Y-100399999D01*
X68705583Y-100399999D01*
X68685300Y-100194066D01*
X68625232Y-99996046D01*
X68527685Y-99813550D01*
X68473489Y-99747512D01*
X68396410Y-99653589D01*
X68236452Y-99522317D01*
X68236453Y-99522317D01*
X68236450Y-99522315D01*
X68053954Y-99424768D01*
X67855934Y-99364700D01*
X67855932Y-99364699D01*
X67855934Y-99364699D01*
X67650000Y-99344417D01*
X67444067Y-99364699D01*
X67246043Y-99424769D01*
X67135898Y-99483643D01*
X67063550Y-99522315D01*
X67063548Y-99522316D01*
X67063547Y-99522317D01*
X66903589Y-99653589D01*
X66772317Y-99813547D01*
X66772315Y-99813550D01*
X66764867Y-99827485D01*
X66674769Y-99996043D01*
X66614699Y-100194067D01*
X66594417Y-100400000D01*
X66165583Y-100400000D01*
X66145300Y-100194066D01*
X66085232Y-99996046D01*
X65987685Y-99813550D01*
X65933489Y-99747512D01*
X65856410Y-99653589D01*
X65696452Y-99522317D01*
X65696453Y-99522317D01*
X65696450Y-99522315D01*
X65513954Y-99424768D01*
X65315934Y-99364700D01*
X65315932Y-99364699D01*
X65315934Y-99364699D01*
X65110000Y-99344417D01*
X64904067Y-99364699D01*
X64706043Y-99424769D01*
X64595898Y-99483643D01*
X64523550Y-99522315D01*
X64523548Y-99522316D01*
X64523547Y-99522317D01*
X64363589Y-99653589D01*
X64232317Y-99813547D01*
X64232315Y-99813550D01*
X64224867Y-99827485D01*
X64134769Y-99996043D01*
X64074699Y-100194067D01*
X64054417Y-100399999D01*
X63625583Y-100399999D01*
X63605300Y-100194066D01*
X63545232Y-99996046D01*
X63447685Y-99813550D01*
X63393489Y-99747512D01*
X63316410Y-99653589D01*
X63156452Y-99522317D01*
X63156453Y-99522317D01*
X63156450Y-99522315D01*
X62973954Y-99424768D01*
X62775934Y-99364700D01*
X62775932Y-99364699D01*
X62775934Y-99364699D01*
X62588463Y-99346235D01*
X62570000Y-99344417D01*
X62569999Y-99344417D01*
X62364067Y-99364699D01*
X62166043Y-99424769D01*
X62055898Y-99483643D01*
X61983550Y-99522315D01*
X61983548Y-99522316D01*
X61983547Y-99522317D01*
X61823589Y-99653589D01*
X61692317Y-99813547D01*
X61692315Y-99813550D01*
X61684867Y-99827485D01*
X61594769Y-99996043D01*
X61534699Y-100194067D01*
X61514417Y-100400000D01*
X61085583Y-100400000D01*
X61065300Y-100194066D01*
X61005232Y-99996046D01*
X60907685Y-99813550D01*
X60853489Y-99747512D01*
X60776410Y-99653589D01*
X60616452Y-99522317D01*
X60616453Y-99522317D01*
X60616450Y-99522315D01*
X60433954Y-99424768D01*
X60235934Y-99364700D01*
X60235932Y-99364699D01*
X60235934Y-99364699D01*
X60048463Y-99346235D01*
X60030000Y-99344417D01*
X60029999Y-99344417D01*
X59824067Y-99364699D01*
X59626043Y-99424769D01*
X59515898Y-99483643D01*
X59443550Y-99522315D01*
X59443548Y-99522316D01*
X59443547Y-99522317D01*
X59283589Y-99653589D01*
X59152317Y-99813547D01*
X59152315Y-99813550D01*
X59144867Y-99827485D01*
X59054769Y-99996043D01*
X59007109Y-100153158D01*
X58968811Y-100211597D01*
X58904999Y-100240053D01*
X58835932Y-100229493D01*
X58783538Y-100183269D01*
X58768673Y-100149256D01*
X58716269Y-99953682D01*
X58716265Y-99953673D01*
X58620133Y-99747516D01*
X58620131Y-99747512D01*
X58569025Y-99674526D01*
X58138517Y-100105035D01*
X58077194Y-100138520D01*
X58007502Y-100133536D01*
X57951569Y-100091664D01*
X57948486Y-100086750D01*
X57948451Y-100086775D01*
X57943558Y-100079843D01*
X57840360Y-99969346D01*
X57840358Y-99969345D01*
X57805300Y-99948026D01*
X57758248Y-99896375D01*
X57746590Y-99827485D01*
X57774027Y-99763228D01*
X57782047Y-99754397D01*
X58215472Y-99320973D01*
X58142483Y-99269866D01*
X58142481Y-99269865D01*
X57936326Y-99173734D01*
X57936317Y-99173730D01*
X57716610Y-99114860D01*
X57716599Y-99114858D01*
X57490002Y-99095034D01*
X57489998Y-99095034D01*
X57263400Y-99114858D01*
X57263389Y-99114860D01*
X57043682Y-99173730D01*
X57043673Y-99173734D01*
X56837513Y-99269868D01*
X56764527Y-99320972D01*
X56764526Y-99320973D01*
X57196834Y-99753280D01*
X57230319Y-99814603D01*
X57225335Y-99884294D01*
X57187408Y-99937149D01*
X57084261Y-100021066D01*
X57084260Y-100021067D01*
X57084258Y-100021069D01*
X57033947Y-100092344D01*
X56979205Y-100135761D01*
X56909680Y-100142690D01*
X56847445Y-100110931D01*
X56844962Y-100108516D01*
X56410973Y-99674526D01*
X56410972Y-99674527D01*
X56359868Y-99747513D01*
X56263734Y-99953673D01*
X56263730Y-99953682D01*
X56204860Y-100173389D01*
X56204858Y-100173400D01*
X56185034Y-100399997D01*
X56185034Y-100400002D01*
X46586407Y-100400002D01*
X46561747Y-97859999D01*
X89454417Y-97859999D01*
X89474699Y-98065932D01*
X89474700Y-98065934D01*
X89534768Y-98263954D01*
X89632315Y-98446450D01*
X89632317Y-98446452D01*
X89763589Y-98606410D01*
X89860209Y-98685702D01*
X89923550Y-98737685D01*
X90106046Y-98835232D01*
X90304066Y-98895300D01*
X90304065Y-98895300D01*
X90324348Y-98897297D01*
X90510000Y-98915583D01*
X90715934Y-98895300D01*
X90913954Y-98835232D01*
X91096450Y-98737685D01*
X91256410Y-98606410D01*
X91387685Y-98446450D01*
X91485232Y-98263954D01*
X91545300Y-98065934D01*
X91565583Y-97860000D01*
X91545300Y-97654066D01*
X91485232Y-97456046D01*
X91387685Y-97273550D01*
X91335702Y-97210209D01*
X91256410Y-97113589D01*
X91096452Y-96982317D01*
X91096453Y-96982317D01*
X91096450Y-96982315D01*
X90913954Y-96884768D01*
X90715934Y-96824700D01*
X90715932Y-96824699D01*
X90715934Y-96824699D01*
X90510000Y-96804417D01*
X90304067Y-96824699D01*
X90106043Y-96884769D01*
X89995898Y-96943643D01*
X89923550Y-96982315D01*
X89923548Y-96982316D01*
X89923547Y-96982317D01*
X89763589Y-97113589D01*
X89632317Y-97273547D01*
X89534769Y-97456043D01*
X89474699Y-97654067D01*
X89454417Y-97859999D01*
X46561747Y-97859999D01*
X46512427Y-92780002D01*
X89205034Y-92780002D01*
X89224858Y-93006599D01*
X89224860Y-93006610D01*
X89283730Y-93226317D01*
X89283734Y-93226326D01*
X89379865Y-93432481D01*
X89379866Y-93432483D01*
X89430973Y-93505471D01*
X89430973Y-93505472D01*
X89861481Y-93074963D01*
X89922804Y-93041478D01*
X89992495Y-93046462D01*
X90048429Y-93088333D01*
X90051514Y-93093249D01*
X90051549Y-93093225D01*
X90056441Y-93100156D01*
X90159637Y-93210651D01*
X90159638Y-93210652D01*
X90194698Y-93231973D01*
X90241749Y-93283623D01*
X90253407Y-93352513D01*
X90225970Y-93416770D01*
X90217950Y-93425601D01*
X89784526Y-93859025D01*
X89784526Y-93859026D01*
X89857512Y-93910131D01*
X89857516Y-93910133D01*
X90063673Y-94006265D01*
X90063682Y-94006269D01*
X90259256Y-94058673D01*
X90318917Y-94095038D01*
X90349446Y-94157885D01*
X90341151Y-94227261D01*
X90296666Y-94281138D01*
X90263158Y-94297109D01*
X90106043Y-94344769D01*
X89995898Y-94403643D01*
X89923550Y-94442315D01*
X89923548Y-94442316D01*
X89923547Y-94442317D01*
X89763589Y-94573589D01*
X89632317Y-94733547D01*
X89534769Y-94916043D01*
X89474699Y-95114067D01*
X89454417Y-95319999D01*
X89474699Y-95525932D01*
X89474700Y-95525934D01*
X89534768Y-95723954D01*
X89632315Y-95906450D01*
X89632317Y-95906452D01*
X89763589Y-96066410D01*
X89860209Y-96145702D01*
X89923550Y-96197685D01*
X90106046Y-96295232D01*
X90304066Y-96355300D01*
X90304065Y-96355300D01*
X90322529Y-96357118D01*
X90510000Y-96375583D01*
X90715934Y-96355300D01*
X90913954Y-96295232D01*
X91096450Y-96197685D01*
X91256410Y-96066410D01*
X91387685Y-95906450D01*
X91485232Y-95723954D01*
X91545300Y-95525934D01*
X91565583Y-95320000D01*
X91545300Y-95114066D01*
X91485232Y-94916046D01*
X91387685Y-94733550D01*
X91335702Y-94670209D01*
X91256410Y-94573589D01*
X91096452Y-94442317D01*
X91096453Y-94442317D01*
X91096450Y-94442315D01*
X90913954Y-94344768D01*
X90756840Y-94297108D01*
X90698402Y-94258811D01*
X90669946Y-94194999D01*
X90680506Y-94125932D01*
X90726730Y-94073538D01*
X90760743Y-94058673D01*
X90956317Y-94006269D01*
X90956331Y-94006264D01*
X91162478Y-93910136D01*
X91235472Y-93859025D01*
X90803165Y-93426719D01*
X90769680Y-93365396D01*
X90774664Y-93295705D01*
X90812589Y-93242852D01*
X90915739Y-93158934D01*
X90966052Y-93087655D01*
X91020793Y-93044239D01*
X91090318Y-93037309D01*
X91152553Y-93069067D01*
X91155037Y-93071483D01*
X91589025Y-93505472D01*
X91640136Y-93432478D01*
X91736264Y-93226331D01*
X91736269Y-93226317D01*
X91795139Y-93006610D01*
X91795141Y-93006599D01*
X91814966Y-92780002D01*
X91814966Y-92779997D01*
X91795141Y-92553400D01*
X91795139Y-92553389D01*
X91736269Y-92333682D01*
X91736265Y-92333673D01*
X91640133Y-92127516D01*
X91640131Y-92127512D01*
X91589025Y-92054526D01*
X91158517Y-92485035D01*
X91097194Y-92518520D01*
X91027502Y-92513536D01*
X90971569Y-92471664D01*
X90968486Y-92466750D01*
X90968451Y-92466775D01*
X90963558Y-92459843D01*
X90860360Y-92349346D01*
X90860358Y-92349345D01*
X90825300Y-92328026D01*
X90778248Y-92276375D01*
X90766590Y-92207485D01*
X90794027Y-92143228D01*
X90802047Y-92134397D01*
X91235472Y-91700973D01*
X91162483Y-91649866D01*
X91162481Y-91649865D01*
X90956326Y-91553734D01*
X90956319Y-91553731D01*
X90760742Y-91501326D01*
X90701082Y-91464961D01*
X90670553Y-91402114D01*
X90678848Y-91332738D01*
X90723333Y-91278860D01*
X90756837Y-91262892D01*
X90913954Y-91215232D01*
X91096450Y-91117685D01*
X91256410Y-90986410D01*
X91387685Y-90826450D01*
X91485232Y-90643954D01*
X91545300Y-90445934D01*
X91565583Y-90240000D01*
X91545300Y-90034066D01*
X91485232Y-89836046D01*
X91387685Y-89653550D01*
X91335702Y-89590209D01*
X91256410Y-89493589D01*
X91096452Y-89362317D01*
X91096453Y-89362317D01*
X91096450Y-89362315D01*
X90913954Y-89264768D01*
X90715934Y-89204700D01*
X90715932Y-89204699D01*
X90715934Y-89204699D01*
X90510000Y-89184417D01*
X90304067Y-89204699D01*
X90106043Y-89264769D01*
X89995898Y-89323643D01*
X89923550Y-89362315D01*
X89923548Y-89362316D01*
X89923547Y-89362317D01*
X89763589Y-89493589D01*
X89632317Y-89653547D01*
X89534769Y-89836043D01*
X89474699Y-90034067D01*
X89454417Y-90240000D01*
X89474699Y-90445932D01*
X89474700Y-90445934D01*
X89534768Y-90643954D01*
X89632315Y-90826450D01*
X89632317Y-90826452D01*
X89763589Y-90986410D01*
X89860209Y-91065702D01*
X89923550Y-91117685D01*
X90106046Y-91215232D01*
X90263160Y-91262891D01*
X90321597Y-91301187D01*
X90350053Y-91364999D01*
X90339493Y-91434067D01*
X90293269Y-91486460D01*
X90259257Y-91501326D01*
X90063680Y-91553731D01*
X90063673Y-91553734D01*
X89857513Y-91649868D01*
X89784527Y-91700972D01*
X89784526Y-91700973D01*
X90216834Y-92133280D01*
X90250319Y-92194603D01*
X90245335Y-92264294D01*
X90207408Y-92317149D01*
X90104261Y-92401066D01*
X90104260Y-92401067D01*
X90104258Y-92401069D01*
X90053947Y-92472344D01*
X89999205Y-92515761D01*
X89929680Y-92522690D01*
X89867445Y-92490931D01*
X89864962Y-92488516D01*
X89430973Y-92054526D01*
X89430972Y-92054527D01*
X89379868Y-92127513D01*
X89283734Y-92333673D01*
X89283730Y-92333682D01*
X89224860Y-92553389D01*
X89224858Y-92553400D01*
X89205034Y-92779997D01*
X89205034Y-92780002D01*
X46512427Y-92780002D01*
X46500500Y-91551500D01*
X46500500Y-87700000D01*
X89454417Y-87700000D01*
X89474699Y-87905932D01*
X89474700Y-87905934D01*
X89534768Y-88103954D01*
X89632315Y-88286450D01*
X89632317Y-88286452D01*
X89763589Y-88446410D01*
X89860209Y-88525702D01*
X89923550Y-88577685D01*
X90106046Y-88675232D01*
X90304066Y-88735300D01*
X90304065Y-88735300D01*
X90324348Y-88737297D01*
X90510000Y-88755583D01*
X90715934Y-88735300D01*
X90913954Y-88675232D01*
X91096450Y-88577685D01*
X91256410Y-88446410D01*
X91387685Y-88286450D01*
X91485232Y-88103954D01*
X91545300Y-87905934D01*
X91565583Y-87700000D01*
X91545300Y-87494066D01*
X91485232Y-87296046D01*
X91387685Y-87113550D01*
X91335702Y-87050209D01*
X91256410Y-86953589D01*
X91096452Y-86822317D01*
X91096453Y-86822317D01*
X91096450Y-86822315D01*
X90913954Y-86724768D01*
X90715934Y-86664700D01*
X90715932Y-86664699D01*
X90715934Y-86664699D01*
X90510000Y-86644417D01*
X90304067Y-86664699D01*
X90106043Y-86724769D01*
X89995898Y-86783643D01*
X89923550Y-86822315D01*
X89923548Y-86822316D01*
X89923547Y-86822317D01*
X89763589Y-86953589D01*
X89632317Y-87113547D01*
X89534769Y-87296043D01*
X89474699Y-87494067D01*
X89454417Y-87700000D01*
X46500500Y-87700000D01*
X46500500Y-85160000D01*
X56434417Y-85160000D01*
X56454699Y-85365932D01*
X56469710Y-85415415D01*
X56514768Y-85563954D01*
X56612315Y-85746450D01*
X56612317Y-85746452D01*
X56743589Y-85906410D01*
X56840209Y-85985702D01*
X56903550Y-86037685D01*
X57086046Y-86135232D01*
X57284066Y-86195300D01*
X57284065Y-86195300D01*
X57304347Y-86197297D01*
X57490000Y-86215583D01*
X57695934Y-86195300D01*
X57893954Y-86135232D01*
X58076450Y-86037685D01*
X58236410Y-85906410D01*
X58367685Y-85746450D01*
X58465232Y-85563954D01*
X58512891Y-85406839D01*
X58551187Y-85348403D01*
X58614999Y-85319946D01*
X58684066Y-85330505D01*
X58736460Y-85376729D01*
X58751326Y-85410742D01*
X58803731Y-85606319D01*
X58803734Y-85606326D01*
X58899865Y-85812481D01*
X58899866Y-85812483D01*
X58950973Y-85885471D01*
X58950973Y-85885472D01*
X59381481Y-85454963D01*
X59442804Y-85421478D01*
X59512495Y-85426462D01*
X59568429Y-85468333D01*
X59571514Y-85473249D01*
X59571549Y-85473225D01*
X59576441Y-85480156D01*
X59679637Y-85590651D01*
X59679638Y-85590652D01*
X59714698Y-85611973D01*
X59761749Y-85663623D01*
X59773407Y-85732513D01*
X59745970Y-85796770D01*
X59737950Y-85805601D01*
X59304526Y-86239025D01*
X59304526Y-86239026D01*
X59377512Y-86290131D01*
X59377516Y-86290133D01*
X59583673Y-86386265D01*
X59583682Y-86386269D01*
X59803389Y-86445139D01*
X59803400Y-86445141D01*
X60029998Y-86464966D01*
X60030002Y-86464966D01*
X60256599Y-86445141D01*
X60256610Y-86445139D01*
X60476317Y-86386269D01*
X60476331Y-86386264D01*
X60682478Y-86290136D01*
X60755472Y-86239025D01*
X60323165Y-85806719D01*
X60289680Y-85745396D01*
X60294664Y-85675705D01*
X60332589Y-85622852D01*
X60435739Y-85538934D01*
X60486052Y-85467655D01*
X60540793Y-85424239D01*
X60610318Y-85417309D01*
X60672553Y-85449067D01*
X60675037Y-85451483D01*
X61109025Y-85885472D01*
X61160136Y-85812478D01*
X61256264Y-85606331D01*
X61256269Y-85606317D01*
X61308673Y-85410743D01*
X61345038Y-85351082D01*
X61407885Y-85320553D01*
X61477260Y-85328848D01*
X61531138Y-85373333D01*
X61547108Y-85406840D01*
X61594768Y-85563954D01*
X61692315Y-85746450D01*
X61692317Y-85746452D01*
X61823589Y-85906410D01*
X61920209Y-85985702D01*
X61983550Y-86037685D01*
X62166046Y-86135232D01*
X62364066Y-86195300D01*
X62364065Y-86195300D01*
X62384347Y-86197297D01*
X62570000Y-86215583D01*
X62775934Y-86195300D01*
X62973954Y-86135232D01*
X63156450Y-86037685D01*
X63316410Y-85906410D01*
X63447685Y-85746450D01*
X63545232Y-85563954D01*
X63605300Y-85365934D01*
X63625583Y-85160000D01*
X64054417Y-85160000D01*
X64074699Y-85365932D01*
X64089710Y-85415415D01*
X64134768Y-85563954D01*
X64232315Y-85746450D01*
X64232317Y-85746452D01*
X64363589Y-85906410D01*
X64460209Y-85985702D01*
X64523550Y-86037685D01*
X64706046Y-86135232D01*
X64904066Y-86195300D01*
X64904065Y-86195300D01*
X64922529Y-86197118D01*
X65110000Y-86215583D01*
X65315934Y-86195300D01*
X65513954Y-86135232D01*
X65696450Y-86037685D01*
X65856410Y-85906410D01*
X65987685Y-85746450D01*
X66085232Y-85563954D01*
X66145300Y-85365934D01*
X66165583Y-85160000D01*
X66165583Y-85159999D01*
X66594417Y-85159999D01*
X66614699Y-85365932D01*
X66629710Y-85415415D01*
X66674768Y-85563954D01*
X66772315Y-85746450D01*
X66772317Y-85746452D01*
X66903589Y-85906410D01*
X67000209Y-85985702D01*
X67063550Y-86037685D01*
X67246046Y-86135232D01*
X67444066Y-86195300D01*
X67444065Y-86195300D01*
X67464348Y-86197297D01*
X67650000Y-86215583D01*
X67855934Y-86195300D01*
X68053954Y-86135232D01*
X68236450Y-86037685D01*
X68396410Y-85906410D01*
X68527685Y-85746450D01*
X68625232Y-85563954D01*
X68685300Y-85365934D01*
X68705583Y-85160000D01*
X69134417Y-85160000D01*
X69154699Y-85365932D01*
X69169710Y-85415415D01*
X69214768Y-85563954D01*
X69312315Y-85746450D01*
X69312317Y-85746452D01*
X69443589Y-85906410D01*
X69540209Y-85985702D01*
X69603550Y-86037685D01*
X69786046Y-86135232D01*
X69984066Y-86195300D01*
X69984065Y-86195300D01*
X70002529Y-86197118D01*
X70190000Y-86215583D01*
X70395934Y-86195300D01*
X70593954Y-86135232D01*
X70776450Y-86037685D01*
X70936410Y-85906410D01*
X71067685Y-85746450D01*
X71165232Y-85563954D01*
X71225300Y-85365934D01*
X71245583Y-85160000D01*
X71674417Y-85160000D01*
X71694699Y-85365932D01*
X71709710Y-85415415D01*
X71754768Y-85563954D01*
X71852315Y-85746450D01*
X71852317Y-85746452D01*
X71983589Y-85906410D01*
X72080209Y-85985702D01*
X72143550Y-86037685D01*
X72326046Y-86135232D01*
X72524066Y-86195300D01*
X72524065Y-86195300D01*
X72542529Y-86197118D01*
X72730000Y-86215583D01*
X72935934Y-86195300D01*
X73133954Y-86135232D01*
X73316450Y-86037685D01*
X73476410Y-85906410D01*
X73607685Y-85746450D01*
X73705232Y-85563954D01*
X73765300Y-85365934D01*
X73785583Y-85160000D01*
X74214417Y-85160000D01*
X74234699Y-85365932D01*
X74249710Y-85415415D01*
X74294768Y-85563954D01*
X74392315Y-85746450D01*
X74392317Y-85746452D01*
X74523589Y-85906410D01*
X74620209Y-85985702D01*
X74683550Y-86037685D01*
X74866046Y-86135232D01*
X75064066Y-86195300D01*
X75064065Y-86195300D01*
X75082529Y-86197118D01*
X75270000Y-86215583D01*
X75475934Y-86195300D01*
X75673954Y-86135232D01*
X75856450Y-86037685D01*
X76016410Y-85906410D01*
X76147685Y-85746450D01*
X76245232Y-85563954D01*
X76305300Y-85365934D01*
X76325583Y-85160000D01*
X76754417Y-85160000D01*
X76774699Y-85365932D01*
X76789710Y-85415415D01*
X76834768Y-85563954D01*
X76932315Y-85746450D01*
X76932317Y-85746452D01*
X77063589Y-85906410D01*
X77160209Y-85985702D01*
X77223550Y-86037685D01*
X77406046Y-86135232D01*
X77604066Y-86195300D01*
X77604065Y-86195300D01*
X77624347Y-86197297D01*
X77810000Y-86215583D01*
X78015934Y-86195300D01*
X78213954Y-86135232D01*
X78396450Y-86037685D01*
X78556410Y-85906410D01*
X78687685Y-85746450D01*
X78785232Y-85563954D01*
X78845300Y-85365934D01*
X78865583Y-85160000D01*
X78865583Y-85159999D01*
X79294417Y-85159999D01*
X79314699Y-85365932D01*
X79329710Y-85415415D01*
X79374768Y-85563954D01*
X79472315Y-85746450D01*
X79472317Y-85746452D01*
X79603589Y-85906410D01*
X79700209Y-85985702D01*
X79763550Y-86037685D01*
X79946046Y-86135232D01*
X80144066Y-86195300D01*
X80144065Y-86195300D01*
X80164347Y-86197297D01*
X80350000Y-86215583D01*
X80555934Y-86195300D01*
X80753954Y-86135232D01*
X80936450Y-86037685D01*
X81096410Y-85906410D01*
X81227685Y-85746450D01*
X81325232Y-85563954D01*
X81385300Y-85365934D01*
X81405583Y-85160000D01*
X81834417Y-85160000D01*
X81854699Y-85365932D01*
X81869710Y-85415415D01*
X81914768Y-85563954D01*
X82012315Y-85746450D01*
X82012317Y-85746452D01*
X82143589Y-85906410D01*
X82240209Y-85985702D01*
X82303550Y-86037685D01*
X82486046Y-86135232D01*
X82684066Y-86195300D01*
X82684065Y-86195300D01*
X82702529Y-86197118D01*
X82890000Y-86215583D01*
X83095934Y-86195300D01*
X83293954Y-86135232D01*
X83476450Y-86037685D01*
X83636410Y-85906410D01*
X83767685Y-85746450D01*
X83865232Y-85563954D01*
X83925300Y-85365934D01*
X83945583Y-85160000D01*
X83945583Y-85159999D01*
X84374417Y-85159999D01*
X84394699Y-85365932D01*
X84409710Y-85415415D01*
X84454768Y-85563954D01*
X84552315Y-85746450D01*
X84552317Y-85746452D01*
X84683589Y-85906410D01*
X84780209Y-85985702D01*
X84843550Y-86037685D01*
X85026046Y-86135232D01*
X85224066Y-86195300D01*
X85224065Y-86195300D01*
X85244348Y-86197297D01*
X85430000Y-86215583D01*
X85635934Y-86195300D01*
X85833954Y-86135232D01*
X86016450Y-86037685D01*
X86176410Y-85906410D01*
X86307685Y-85746450D01*
X86405232Y-85563954D01*
X86465300Y-85365934D01*
X86485583Y-85160000D01*
X86914417Y-85160000D01*
X86934699Y-85365932D01*
X86949710Y-85415415D01*
X86994768Y-85563954D01*
X87092315Y-85746450D01*
X87092317Y-85746452D01*
X87223589Y-85906410D01*
X87320209Y-85985702D01*
X87383550Y-86037685D01*
X87566046Y-86135232D01*
X87764066Y-86195300D01*
X87764065Y-86195300D01*
X87782529Y-86197118D01*
X87970000Y-86215583D01*
X88175934Y-86195300D01*
X88373954Y-86135232D01*
X88556450Y-86037685D01*
X88716410Y-85906410D01*
X88847685Y-85746450D01*
X88945232Y-85563954D01*
X89005300Y-85365934D01*
X89025583Y-85160000D01*
X89454417Y-85160000D01*
X89474699Y-85365932D01*
X89489710Y-85415415D01*
X89534768Y-85563954D01*
X89632315Y-85746450D01*
X89632317Y-85746452D01*
X89763589Y-85906410D01*
X89860209Y-85985702D01*
X89923550Y-86037685D01*
X90106046Y-86135232D01*
X90304066Y-86195300D01*
X90304065Y-86195300D01*
X90322529Y-86197118D01*
X90510000Y-86215583D01*
X90715934Y-86195300D01*
X90913954Y-86135232D01*
X91096450Y-86037685D01*
X91256410Y-85906410D01*
X91387685Y-85746450D01*
X91485232Y-85563954D01*
X91545300Y-85365934D01*
X91565583Y-85160000D01*
X91545300Y-84954066D01*
X91485232Y-84756046D01*
X91387685Y-84573550D01*
X91333489Y-84507512D01*
X91256410Y-84413589D01*
X91096452Y-84282317D01*
X91096453Y-84282317D01*
X91096450Y-84282315D01*
X90913954Y-84184768D01*
X90715934Y-84124700D01*
X90715932Y-84124699D01*
X90715934Y-84124699D01*
X90510000Y-84104417D01*
X90304067Y-84124699D01*
X90106043Y-84184769D01*
X89995898Y-84243643D01*
X89923550Y-84282315D01*
X89923548Y-84282316D01*
X89923547Y-84282317D01*
X89763589Y-84413589D01*
X89632317Y-84573547D01*
X89632315Y-84573550D01*
X89624867Y-84587485D01*
X89534769Y-84756043D01*
X89474699Y-84954067D01*
X89454417Y-85160000D01*
X89025583Y-85160000D01*
X89005300Y-84954066D01*
X88945232Y-84756046D01*
X88847685Y-84573550D01*
X88793489Y-84507512D01*
X88716410Y-84413589D01*
X88556452Y-84282317D01*
X88556453Y-84282317D01*
X88556450Y-84282315D01*
X88373954Y-84184768D01*
X88175934Y-84124700D01*
X88175932Y-84124699D01*
X88175934Y-84124699D01*
X87988463Y-84106235D01*
X87970000Y-84104417D01*
X87969999Y-84104417D01*
X87764067Y-84124699D01*
X87566043Y-84184769D01*
X87455898Y-84243643D01*
X87383550Y-84282315D01*
X87383548Y-84282316D01*
X87383547Y-84282317D01*
X87223589Y-84413589D01*
X87092317Y-84573547D01*
X87092315Y-84573550D01*
X87084867Y-84587485D01*
X86994769Y-84756043D01*
X86934699Y-84954067D01*
X86914417Y-85160000D01*
X86485583Y-85160000D01*
X86465300Y-84954066D01*
X86405232Y-84756046D01*
X86307685Y-84573550D01*
X86253489Y-84507512D01*
X86176410Y-84413589D01*
X86016452Y-84282317D01*
X86016453Y-84282317D01*
X86016450Y-84282315D01*
X85833954Y-84184768D01*
X85635934Y-84124700D01*
X85635932Y-84124699D01*
X85635934Y-84124699D01*
X85430000Y-84104417D01*
X85224067Y-84124699D01*
X85026043Y-84184769D01*
X84915898Y-84243643D01*
X84843550Y-84282315D01*
X84843548Y-84282316D01*
X84843547Y-84282317D01*
X84683589Y-84413589D01*
X84552317Y-84573547D01*
X84552315Y-84573550D01*
X84544867Y-84587485D01*
X84454769Y-84756043D01*
X84394699Y-84954067D01*
X84374417Y-85159999D01*
X83945583Y-85159999D01*
X83925300Y-84954066D01*
X83865232Y-84756046D01*
X83767685Y-84573550D01*
X83713489Y-84507512D01*
X83636410Y-84413589D01*
X83476452Y-84282317D01*
X83476453Y-84282317D01*
X83476450Y-84282315D01*
X83293954Y-84184768D01*
X83095934Y-84124700D01*
X83095932Y-84124699D01*
X83095934Y-84124699D01*
X82908463Y-84106235D01*
X82890000Y-84104417D01*
X82889999Y-84104417D01*
X82684067Y-84124699D01*
X82486043Y-84184769D01*
X82375898Y-84243643D01*
X82303550Y-84282315D01*
X82303548Y-84282316D01*
X82303547Y-84282317D01*
X82143589Y-84413589D01*
X82012317Y-84573547D01*
X82012315Y-84573550D01*
X82004867Y-84587485D01*
X81914769Y-84756043D01*
X81854699Y-84954067D01*
X81834417Y-85160000D01*
X81405583Y-85160000D01*
X81385300Y-84954066D01*
X81325232Y-84756046D01*
X81227685Y-84573550D01*
X81173489Y-84507512D01*
X81096410Y-84413589D01*
X80936452Y-84282317D01*
X80936453Y-84282317D01*
X80936450Y-84282315D01*
X80753954Y-84184768D01*
X80555934Y-84124700D01*
X80555932Y-84124699D01*
X80555934Y-84124699D01*
X80350000Y-84104417D01*
X80144067Y-84124699D01*
X79946043Y-84184769D01*
X79835898Y-84243643D01*
X79763550Y-84282315D01*
X79763548Y-84282316D01*
X79763547Y-84282317D01*
X79603589Y-84413589D01*
X79472317Y-84573547D01*
X79472315Y-84573550D01*
X79464867Y-84587485D01*
X79374769Y-84756043D01*
X79314699Y-84954067D01*
X79294417Y-85159999D01*
X78865583Y-85159999D01*
X78845300Y-84954066D01*
X78785232Y-84756046D01*
X78687685Y-84573550D01*
X78633489Y-84507512D01*
X78556410Y-84413589D01*
X78396452Y-84282317D01*
X78396453Y-84282317D01*
X78396450Y-84282315D01*
X78213954Y-84184768D01*
X78015934Y-84124700D01*
X78015932Y-84124699D01*
X78015934Y-84124699D01*
X77828463Y-84106235D01*
X77810000Y-84104417D01*
X77809999Y-84104417D01*
X77604067Y-84124699D01*
X77406043Y-84184769D01*
X77295898Y-84243643D01*
X77223550Y-84282315D01*
X77223548Y-84282316D01*
X77223547Y-84282317D01*
X77063589Y-84413589D01*
X76932317Y-84573547D01*
X76932315Y-84573550D01*
X76924867Y-84587485D01*
X76834769Y-84756043D01*
X76774699Y-84954067D01*
X76754417Y-85160000D01*
X76325583Y-85160000D01*
X76305300Y-84954066D01*
X76245232Y-84756046D01*
X76147685Y-84573550D01*
X76093489Y-84507512D01*
X76016410Y-84413589D01*
X75856452Y-84282317D01*
X75856453Y-84282317D01*
X75856450Y-84282315D01*
X75673954Y-84184768D01*
X75475934Y-84124700D01*
X75475932Y-84124699D01*
X75475934Y-84124699D01*
X75270000Y-84104417D01*
X75064067Y-84124699D01*
X74866043Y-84184769D01*
X74755898Y-84243643D01*
X74683550Y-84282315D01*
X74683548Y-84282316D01*
X74683547Y-84282317D01*
X74523589Y-84413589D01*
X74392317Y-84573547D01*
X74392315Y-84573550D01*
X74384867Y-84587485D01*
X74294769Y-84756043D01*
X74234699Y-84954067D01*
X74214417Y-85160000D01*
X73785583Y-85160000D01*
X73765300Y-84954066D01*
X73705232Y-84756046D01*
X73607685Y-84573550D01*
X73553489Y-84507512D01*
X73476410Y-84413589D01*
X73316452Y-84282317D01*
X73316453Y-84282317D01*
X73316450Y-84282315D01*
X73133954Y-84184768D01*
X72935934Y-84124700D01*
X72935932Y-84124699D01*
X72935934Y-84124699D01*
X72730000Y-84104417D01*
X72524067Y-84124699D01*
X72326043Y-84184769D01*
X72215898Y-84243643D01*
X72143550Y-84282315D01*
X72143548Y-84282316D01*
X72143547Y-84282317D01*
X71983589Y-84413589D01*
X71852317Y-84573547D01*
X71852315Y-84573550D01*
X71844867Y-84587485D01*
X71754769Y-84756043D01*
X71694699Y-84954067D01*
X71674417Y-85160000D01*
X71245583Y-85160000D01*
X71225300Y-84954066D01*
X71165232Y-84756046D01*
X71067685Y-84573550D01*
X71013489Y-84507512D01*
X70936410Y-84413589D01*
X70776452Y-84282317D01*
X70776453Y-84282317D01*
X70776450Y-84282315D01*
X70593954Y-84184768D01*
X70395934Y-84124700D01*
X70395932Y-84124699D01*
X70395934Y-84124699D01*
X70190000Y-84104417D01*
X69984067Y-84124699D01*
X69786043Y-84184769D01*
X69675898Y-84243643D01*
X69603550Y-84282315D01*
X69603548Y-84282316D01*
X69603547Y-84282317D01*
X69443589Y-84413589D01*
X69312317Y-84573547D01*
X69312315Y-84573550D01*
X69304867Y-84587485D01*
X69214769Y-84756043D01*
X69154699Y-84954067D01*
X69134417Y-85160000D01*
X68705583Y-85160000D01*
X68685300Y-84954066D01*
X68625232Y-84756046D01*
X68527685Y-84573550D01*
X68473489Y-84507512D01*
X68396410Y-84413589D01*
X68236452Y-84282317D01*
X68236453Y-84282317D01*
X68236450Y-84282315D01*
X68053954Y-84184768D01*
X67855934Y-84124700D01*
X67855932Y-84124699D01*
X67855934Y-84124699D01*
X67650000Y-84104417D01*
X67444067Y-84124699D01*
X67246043Y-84184769D01*
X67135898Y-84243643D01*
X67063550Y-84282315D01*
X67063548Y-84282316D01*
X67063547Y-84282317D01*
X66903589Y-84413589D01*
X66772317Y-84573547D01*
X66772315Y-84573550D01*
X66764867Y-84587485D01*
X66674769Y-84756043D01*
X66614699Y-84954067D01*
X66594417Y-85159999D01*
X66165583Y-85159999D01*
X66145300Y-84954066D01*
X66085232Y-84756046D01*
X65987685Y-84573550D01*
X65933489Y-84507512D01*
X65856410Y-84413589D01*
X65696452Y-84282317D01*
X65696453Y-84282317D01*
X65696450Y-84282315D01*
X65513954Y-84184768D01*
X65315934Y-84124700D01*
X65315932Y-84124699D01*
X65315934Y-84124699D01*
X65128463Y-84106235D01*
X65110000Y-84104417D01*
X65109999Y-84104417D01*
X64904067Y-84124699D01*
X64706043Y-84184769D01*
X64595898Y-84243643D01*
X64523550Y-84282315D01*
X64523548Y-84282316D01*
X64523547Y-84282317D01*
X64363589Y-84413589D01*
X64232317Y-84573547D01*
X64232315Y-84573550D01*
X64224867Y-84587485D01*
X64134769Y-84756043D01*
X64074699Y-84954067D01*
X64054417Y-85160000D01*
X63625583Y-85160000D01*
X63605300Y-84954066D01*
X63545232Y-84756046D01*
X63447685Y-84573550D01*
X63393489Y-84507512D01*
X63316410Y-84413589D01*
X63156452Y-84282317D01*
X63156453Y-84282317D01*
X63156450Y-84282315D01*
X62973954Y-84184768D01*
X62775934Y-84124700D01*
X62775932Y-84124699D01*
X62775934Y-84124699D01*
X62570000Y-84104417D01*
X62364067Y-84124699D01*
X62166043Y-84184769D01*
X62055898Y-84243643D01*
X61983550Y-84282315D01*
X61983548Y-84282316D01*
X61983547Y-84282317D01*
X61823589Y-84413589D01*
X61692317Y-84573547D01*
X61692315Y-84573550D01*
X61684867Y-84587485D01*
X61594769Y-84756043D01*
X61547109Y-84913158D01*
X61508811Y-84971597D01*
X61444999Y-85000053D01*
X61375932Y-84989493D01*
X61323538Y-84943269D01*
X61308673Y-84909256D01*
X61256269Y-84713682D01*
X61256265Y-84713673D01*
X61160133Y-84507516D01*
X61160131Y-84507512D01*
X61109025Y-84434526D01*
X60678517Y-84865035D01*
X60617194Y-84898520D01*
X60547502Y-84893536D01*
X60491569Y-84851664D01*
X60488486Y-84846750D01*
X60488451Y-84846775D01*
X60483558Y-84839843D01*
X60380360Y-84729346D01*
X60380358Y-84729345D01*
X60345300Y-84708026D01*
X60298248Y-84656375D01*
X60286590Y-84587485D01*
X60314027Y-84523228D01*
X60322047Y-84514397D01*
X60755472Y-84080973D01*
X60682483Y-84029866D01*
X60682481Y-84029865D01*
X60476326Y-83933734D01*
X60476317Y-83933730D01*
X60256610Y-83874860D01*
X60256599Y-83874858D01*
X60030002Y-83855034D01*
X60029998Y-83855034D01*
X59803400Y-83874858D01*
X59803389Y-83874860D01*
X59583682Y-83933730D01*
X59583673Y-83933734D01*
X59377513Y-84029868D01*
X59304527Y-84080972D01*
X59304526Y-84080973D01*
X59736834Y-84513280D01*
X59770319Y-84574603D01*
X59765335Y-84644294D01*
X59727408Y-84697149D01*
X59624261Y-84781066D01*
X59624260Y-84781067D01*
X59624258Y-84781069D01*
X59573947Y-84852344D01*
X59519205Y-84895761D01*
X59449680Y-84902690D01*
X59387445Y-84870931D01*
X59384962Y-84868516D01*
X58950973Y-84434526D01*
X58950972Y-84434527D01*
X58899868Y-84507513D01*
X58803734Y-84713673D01*
X58803731Y-84713680D01*
X58751326Y-84909257D01*
X58714961Y-84968917D01*
X58652113Y-84999446D01*
X58582738Y-84991151D01*
X58528860Y-84946666D01*
X58512892Y-84913162D01*
X58465232Y-84756046D01*
X58367685Y-84573550D01*
X58313489Y-84507512D01*
X58236410Y-84413589D01*
X58076452Y-84282317D01*
X58076453Y-84282317D01*
X58076450Y-84282315D01*
X57893954Y-84184768D01*
X57695934Y-84124700D01*
X57695932Y-84124699D01*
X57695934Y-84124699D01*
X57508463Y-84106235D01*
X57490000Y-84104417D01*
X57489999Y-84104417D01*
X57284067Y-84124699D01*
X57086043Y-84184769D01*
X56975898Y-84243643D01*
X56903550Y-84282315D01*
X56903548Y-84282316D01*
X56903547Y-84282317D01*
X56743589Y-84413589D01*
X56612317Y-84573547D01*
X56612315Y-84573550D01*
X56604867Y-84587485D01*
X56514769Y-84756043D01*
X56454699Y-84954067D01*
X56434417Y-85160000D01*
X46500500Y-85160000D01*
X46500500Y-54567763D01*
X51145787Y-54567763D01*
X51175413Y-54837013D01*
X51175415Y-54837024D01*
X51243926Y-55099082D01*
X51243928Y-55099088D01*
X51349870Y-55348390D01*
X51421998Y-55466575D01*
X51490979Y-55579605D01*
X51490986Y-55579615D01*
X51664253Y-55787819D01*
X51664259Y-55787824D01*
X51865998Y-55968582D01*
X52091910Y-56118044D01*
X52337176Y-56233020D01*
X52337183Y-56233022D01*
X52337185Y-56233023D01*
X52596557Y-56311057D01*
X52596564Y-56311058D01*
X52596569Y-56311060D01*
X52864561Y-56350500D01*
X52864566Y-56350500D01*
X53067636Y-56350500D01*
X53119133Y-56346730D01*
X53270156Y-56335677D01*
X53382758Y-56310593D01*
X53534546Y-56276782D01*
X53534548Y-56276781D01*
X53534553Y-56276780D01*
X53787558Y-56180014D01*
X54023777Y-56047441D01*
X54238177Y-55881888D01*
X54426186Y-55686881D01*
X54583799Y-55466579D01*
X54657787Y-55322669D01*
X54707649Y-55225690D01*
X54707651Y-55225684D01*
X54707656Y-55225675D01*
X54795118Y-54969305D01*
X54844319Y-54702933D01*
X54849259Y-54567763D01*
X75645787Y-54567763D01*
X75675413Y-54837013D01*
X75675415Y-54837024D01*
X75743926Y-55099082D01*
X75743928Y-55099088D01*
X75849870Y-55348390D01*
X75921998Y-55466575D01*
X75990979Y-55579605D01*
X75990986Y-55579615D01*
X76164253Y-55787819D01*
X76164259Y-55787824D01*
X76365998Y-55968582D01*
X76591910Y-56118044D01*
X76837176Y-56233020D01*
X76837183Y-56233022D01*
X76837185Y-56233023D01*
X77096557Y-56311057D01*
X77096564Y-56311058D01*
X77096569Y-56311060D01*
X77364561Y-56350500D01*
X77364566Y-56350500D01*
X77567636Y-56350500D01*
X77619133Y-56346730D01*
X77770156Y-56335677D01*
X77882758Y-56310593D01*
X78034546Y-56276782D01*
X78034548Y-56276781D01*
X78034553Y-56276780D01*
X78287558Y-56180014D01*
X78523777Y-56047441D01*
X78738177Y-55881888D01*
X78926186Y-55686881D01*
X79083799Y-55466579D01*
X79157787Y-55322669D01*
X79207649Y-55225690D01*
X79207651Y-55225684D01*
X79207656Y-55225675D01*
X79295118Y-54969305D01*
X79344319Y-54702933D01*
X79349259Y-54567763D01*
X88145787Y-54567763D01*
X88175413Y-54837013D01*
X88175415Y-54837024D01*
X88243926Y-55099082D01*
X88243928Y-55099088D01*
X88349870Y-55348390D01*
X88421998Y-55466575D01*
X88490979Y-55579605D01*
X88490986Y-55579615D01*
X88664253Y-55787819D01*
X88664259Y-55787824D01*
X88865998Y-55968582D01*
X89091910Y-56118044D01*
X89337176Y-56233020D01*
X89337183Y-56233022D01*
X89337185Y-56233023D01*
X89596557Y-56311057D01*
X89596564Y-56311058D01*
X89596569Y-56311060D01*
X89864561Y-56350500D01*
X89864566Y-56350500D01*
X90067636Y-56350500D01*
X90119133Y-56346730D01*
X90270156Y-56335677D01*
X90382758Y-56310593D01*
X90534546Y-56276782D01*
X90534548Y-56276781D01*
X90534553Y-56276780D01*
X90787558Y-56180014D01*
X91023777Y-56047441D01*
X91238177Y-55881888D01*
X91426186Y-55686881D01*
X91583799Y-55466579D01*
X91657787Y-55322669D01*
X91707649Y-55225690D01*
X91707651Y-55225684D01*
X91707656Y-55225675D01*
X91795118Y-54969305D01*
X91844319Y-54702933D01*
X91849259Y-54567763D01*
X100645787Y-54567763D01*
X100675413Y-54837013D01*
X100675415Y-54837024D01*
X100743926Y-55099082D01*
X100743928Y-55099088D01*
X100849870Y-55348390D01*
X100921998Y-55466575D01*
X100990979Y-55579605D01*
X100990986Y-55579615D01*
X101164253Y-55787819D01*
X101164259Y-55787824D01*
X101365998Y-55968582D01*
X101591910Y-56118044D01*
X101837176Y-56233020D01*
X101837183Y-56233022D01*
X101837185Y-56233023D01*
X102096557Y-56311057D01*
X102096564Y-56311058D01*
X102096569Y-56311060D01*
X102364561Y-56350500D01*
X102364566Y-56350500D01*
X102567636Y-56350500D01*
X102619133Y-56346730D01*
X102770156Y-56335677D01*
X102882758Y-56310593D01*
X103034546Y-56276782D01*
X103034548Y-56276781D01*
X103034553Y-56276780D01*
X103287558Y-56180014D01*
X103523777Y-56047441D01*
X103738177Y-55881888D01*
X103926186Y-55686881D01*
X104083799Y-55466579D01*
X104157787Y-55322669D01*
X104207649Y-55225690D01*
X104207651Y-55225684D01*
X104207656Y-55225675D01*
X104295118Y-54969305D01*
X104344319Y-54702933D01*
X104349259Y-54567763D01*
X125145787Y-54567763D01*
X125175413Y-54837013D01*
X125175415Y-54837024D01*
X125243926Y-55099082D01*
X125243928Y-55099088D01*
X125349870Y-55348390D01*
X125421998Y-55466575D01*
X125490979Y-55579605D01*
X125490986Y-55579615D01*
X125664253Y-55787819D01*
X125664259Y-55787824D01*
X125865998Y-55968582D01*
X126091910Y-56118044D01*
X126337176Y-56233020D01*
X126337183Y-56233022D01*
X126337185Y-56233023D01*
X126596557Y-56311057D01*
X126596564Y-56311058D01*
X126596569Y-56311060D01*
X126864561Y-56350500D01*
X126864566Y-56350500D01*
X127067636Y-56350500D01*
X127119133Y-56346730D01*
X127270156Y-56335677D01*
X127382758Y-56310593D01*
X127534546Y-56276782D01*
X127534548Y-56276781D01*
X127534553Y-56276780D01*
X127787558Y-56180014D01*
X128023777Y-56047441D01*
X128238177Y-55881888D01*
X128426186Y-55686881D01*
X128583799Y-55466579D01*
X128657787Y-55322669D01*
X128707649Y-55225690D01*
X128707651Y-55225684D01*
X128707656Y-55225675D01*
X128795118Y-54969305D01*
X128844319Y-54702933D01*
X128854212Y-54432235D01*
X128824586Y-54162982D01*
X128756072Y-53900912D01*
X128650130Y-53651610D01*
X128509018Y-53420390D01*
X128419747Y-53313119D01*
X128335746Y-53212180D01*
X128335740Y-53212175D01*
X128134002Y-53031418D01*
X127908092Y-52881957D01*
X127908090Y-52881956D01*
X127662824Y-52766980D01*
X127662819Y-52766978D01*
X127662814Y-52766976D01*
X127403442Y-52688942D01*
X127403428Y-52688939D01*
X127287791Y-52671921D01*
X127135439Y-52649500D01*
X126932369Y-52649500D01*
X126932364Y-52649500D01*
X126729844Y-52664323D01*
X126729831Y-52664325D01*
X126465453Y-52723217D01*
X126465446Y-52723220D01*
X126212439Y-52819987D01*
X125976226Y-52952557D01*
X125761822Y-53118112D01*
X125573822Y-53313109D01*
X125573816Y-53313116D01*
X125416202Y-53533419D01*
X125416199Y-53533424D01*
X125292350Y-53774309D01*
X125292343Y-53774327D01*
X125204884Y-54030685D01*
X125204881Y-54030699D01*
X125155681Y-54297068D01*
X125155680Y-54297075D01*
X125145787Y-54567763D01*
X104349259Y-54567763D01*
X104354212Y-54432235D01*
X104324586Y-54162982D01*
X104256072Y-53900912D01*
X104150130Y-53651610D01*
X104009018Y-53420390D01*
X103919747Y-53313119D01*
X103835746Y-53212180D01*
X103835740Y-53212175D01*
X103634002Y-53031418D01*
X103408092Y-52881957D01*
X103408090Y-52881956D01*
X103162824Y-52766980D01*
X103162819Y-52766978D01*
X103162814Y-52766976D01*
X102903442Y-52688942D01*
X102903428Y-52688939D01*
X102787791Y-52671921D01*
X102635439Y-52649500D01*
X102432369Y-52649500D01*
X102432364Y-52649500D01*
X102229844Y-52664323D01*
X102229831Y-52664325D01*
X101965453Y-52723217D01*
X101965446Y-52723220D01*
X101712439Y-52819987D01*
X101476226Y-52952557D01*
X101261822Y-53118112D01*
X101073822Y-53313109D01*
X101073816Y-53313116D01*
X100916202Y-53533419D01*
X100916199Y-53533424D01*
X100792350Y-53774309D01*
X100792343Y-53774327D01*
X100704884Y-54030685D01*
X100704881Y-54030699D01*
X100655681Y-54297068D01*
X100655680Y-54297075D01*
X100645787Y-54567763D01*
X91849259Y-54567763D01*
X91854212Y-54432235D01*
X91824586Y-54162982D01*
X91756072Y-53900912D01*
X91650130Y-53651610D01*
X91509018Y-53420390D01*
X91419747Y-53313119D01*
X91335746Y-53212180D01*
X91335740Y-53212175D01*
X91134002Y-53031418D01*
X90908092Y-52881957D01*
X90908090Y-52881956D01*
X90662824Y-52766980D01*
X90662819Y-52766978D01*
X90662814Y-52766976D01*
X90403442Y-52688942D01*
X90403428Y-52688939D01*
X90287791Y-52671921D01*
X90135439Y-52649500D01*
X89932369Y-52649500D01*
X89932364Y-52649500D01*
X89729844Y-52664323D01*
X89729831Y-52664325D01*
X89465453Y-52723217D01*
X89465446Y-52723220D01*
X89212439Y-52819987D01*
X88976226Y-52952557D01*
X88761822Y-53118112D01*
X88573822Y-53313109D01*
X88573816Y-53313116D01*
X88416202Y-53533419D01*
X88416199Y-53533424D01*
X88292350Y-53774309D01*
X88292343Y-53774327D01*
X88204884Y-54030685D01*
X88204881Y-54030699D01*
X88155681Y-54297068D01*
X88155680Y-54297075D01*
X88145787Y-54567763D01*
X79349259Y-54567763D01*
X79354212Y-54432235D01*
X79324586Y-54162982D01*
X79256072Y-53900912D01*
X79150130Y-53651610D01*
X79009018Y-53420390D01*
X78919747Y-53313119D01*
X78835746Y-53212180D01*
X78835740Y-53212175D01*
X78634002Y-53031418D01*
X78408092Y-52881957D01*
X78408090Y-52881956D01*
X78162824Y-52766980D01*
X78162819Y-52766978D01*
X78162814Y-52766976D01*
X77903442Y-52688942D01*
X77903428Y-52688939D01*
X77787791Y-52671921D01*
X77635439Y-52649500D01*
X77432369Y-52649500D01*
X77432364Y-52649500D01*
X77229844Y-52664323D01*
X77229831Y-52664325D01*
X76965453Y-52723217D01*
X76965446Y-52723220D01*
X76712439Y-52819987D01*
X76476226Y-52952557D01*
X76261822Y-53118112D01*
X76073822Y-53313109D01*
X76073816Y-53313116D01*
X75916202Y-53533419D01*
X75916199Y-53533424D01*
X75792350Y-53774309D01*
X75792343Y-53774327D01*
X75704884Y-54030685D01*
X75704881Y-54030699D01*
X75655681Y-54297068D01*
X75655680Y-54297075D01*
X75645787Y-54567763D01*
X54849259Y-54567763D01*
X54854212Y-54432235D01*
X54824586Y-54162982D01*
X54756072Y-53900912D01*
X54650130Y-53651610D01*
X54509018Y-53420390D01*
X54419747Y-53313119D01*
X54335746Y-53212180D01*
X54335740Y-53212175D01*
X54134002Y-53031418D01*
X53908092Y-52881957D01*
X53908090Y-52881956D01*
X53662824Y-52766980D01*
X53662819Y-52766978D01*
X53662814Y-52766976D01*
X53403442Y-52688942D01*
X53403428Y-52688939D01*
X53287791Y-52671921D01*
X53135439Y-52649500D01*
X52932369Y-52649500D01*
X52932364Y-52649500D01*
X52729844Y-52664323D01*
X52729831Y-52664325D01*
X52465453Y-52723217D01*
X52465446Y-52723220D01*
X52212439Y-52819987D01*
X51976226Y-52952557D01*
X51761822Y-53118112D01*
X51573822Y-53313109D01*
X51573816Y-53313116D01*
X51416202Y-53533419D01*
X51416199Y-53533424D01*
X51292350Y-53774309D01*
X51292343Y-53774327D01*
X51204884Y-54030685D01*
X51204881Y-54030699D01*
X51155681Y-54297068D01*
X51155680Y-54297075D01*
X51145787Y-54567763D01*
X46500500Y-54567763D01*
X46500500Y-51501622D01*
X46500585Y-51498376D01*
X46507490Y-51366625D01*
X46507490Y-51366617D01*
X46517803Y-51182972D01*
X46518464Y-51176789D01*
X46542611Y-51024331D01*
X46570227Y-50861796D01*
X46571451Y-50856196D01*
X46612425Y-50703279D01*
X46657083Y-50548268D01*
X46658764Y-50543254D01*
X46716127Y-50393815D01*
X46777366Y-50245972D01*
X46779379Y-50241606D01*
X46852511Y-50098078D01*
X46859688Y-50085090D01*
X46929655Y-49958494D01*
X46931867Y-49954808D01*
X47019980Y-49819127D01*
X47034130Y-49799182D01*
X47112154Y-49689220D01*
X47114486Y-49686143D01*
X47215655Y-49561209D01*
X47217537Y-49558998D01*
X47322773Y-49441239D01*
X47325092Y-49438787D01*
X47438787Y-49325092D01*
X47441239Y-49322773D01*
X47558998Y-49217537D01*
X47561209Y-49215655D01*
X47686143Y-49114486D01*
X47689220Y-49112154D01*
X47819127Y-49019980D01*
X47829046Y-49013537D01*
X47954808Y-48931867D01*
X47958494Y-48929655D01*
X48098078Y-48852511D01*
X48110063Y-48846403D01*
X48241606Y-48779379D01*
X48245972Y-48777366D01*
X48393815Y-48716127D01*
X48543254Y-48658764D01*
X48548268Y-48657083D01*
X48703279Y-48612425D01*
X48856196Y-48571451D01*
X48861796Y-48570227D01*
X49024284Y-48542618D01*
X49176791Y-48518464D01*
X49182968Y-48517803D01*
X49366566Y-48507493D01*
X49498380Y-48500584D01*
X49501622Y-48500500D01*
X130498378Y-48500500D01*
X130501619Y-48500584D01*
G37*
%TD.AperFunction*%
%TD*%
M02*
