%TF.GenerationSoftware,KiCad,Pcbnew,7.0.7-7.0.7~ubuntu20.04.1*%
%TF.CreationDate,2023-09-06T17:53:36-07:00*%
%TF.ProjectId,teensy-control-panel,7465656e-7379-42d6-936f-6e74726f6c2d,rev?*%
%TF.SameCoordinates,Original*%
%TF.FileFunction,Legend,Top*%
%TF.FilePolarity,Positive*%
%FSLAX46Y46*%
G04 Gerber Fmt 4.6, Leading zero omitted, Abs format (unit mm)*
G04 Created by KiCad (PCBNEW 7.0.7-7.0.7~ubuntu20.04.1) date 2023-09-06 17:53:36*
%MOMM*%
%LPD*%
G01*
G04 APERTURE LIST*
%ADD10C,0.150000*%
%ADD11C,0.125000*%
%ADD12C,0.120000*%
%ADD13C,0.100000*%
%ADD14C,0.127000*%
G04 APERTURE END LIST*
D10*
X56693922Y-132953152D02*
X57074874Y-132953152D01*
X56836779Y-132619819D02*
X56836779Y-133476961D01*
X56836779Y-133476961D02*
X56884398Y-133572200D01*
X56884398Y-133572200D02*
X56979636Y-133619819D01*
X56979636Y-133619819D02*
X57074874Y-133619819D01*
X57789160Y-133572200D02*
X57693922Y-133619819D01*
X57693922Y-133619819D02*
X57503446Y-133619819D01*
X57503446Y-133619819D02*
X57408208Y-133572200D01*
X57408208Y-133572200D02*
X57360589Y-133476961D01*
X57360589Y-133476961D02*
X57360589Y-133096009D01*
X57360589Y-133096009D02*
X57408208Y-133000771D01*
X57408208Y-133000771D02*
X57503446Y-132953152D01*
X57503446Y-132953152D02*
X57693922Y-132953152D01*
X57693922Y-132953152D02*
X57789160Y-133000771D01*
X57789160Y-133000771D02*
X57836779Y-133096009D01*
X57836779Y-133096009D02*
X57836779Y-133191247D01*
X57836779Y-133191247D02*
X57360589Y-133286485D01*
X58646303Y-133572200D02*
X58551065Y-133619819D01*
X58551065Y-133619819D02*
X58360589Y-133619819D01*
X58360589Y-133619819D02*
X58265351Y-133572200D01*
X58265351Y-133572200D02*
X58217732Y-133476961D01*
X58217732Y-133476961D02*
X58217732Y-133096009D01*
X58217732Y-133096009D02*
X58265351Y-133000771D01*
X58265351Y-133000771D02*
X58360589Y-132953152D01*
X58360589Y-132953152D02*
X58551065Y-132953152D01*
X58551065Y-132953152D02*
X58646303Y-133000771D01*
X58646303Y-133000771D02*
X58693922Y-133096009D01*
X58693922Y-133096009D02*
X58693922Y-133191247D01*
X58693922Y-133191247D02*
X58217732Y-133286485D01*
X59122494Y-132953152D02*
X59122494Y-133619819D01*
X59122494Y-133048390D02*
X59170113Y-133000771D01*
X59170113Y-133000771D02*
X59265351Y-132953152D01*
X59265351Y-132953152D02*
X59408208Y-132953152D01*
X59408208Y-132953152D02*
X59503446Y-133000771D01*
X59503446Y-133000771D02*
X59551065Y-133096009D01*
X59551065Y-133096009D02*
X59551065Y-133619819D01*
X59979637Y-133572200D02*
X60074875Y-133619819D01*
X60074875Y-133619819D02*
X60265351Y-133619819D01*
X60265351Y-133619819D02*
X60360589Y-133572200D01*
X60360589Y-133572200D02*
X60408208Y-133476961D01*
X60408208Y-133476961D02*
X60408208Y-133429342D01*
X60408208Y-133429342D02*
X60360589Y-133334104D01*
X60360589Y-133334104D02*
X60265351Y-133286485D01*
X60265351Y-133286485D02*
X60122494Y-133286485D01*
X60122494Y-133286485D02*
X60027256Y-133238866D01*
X60027256Y-133238866D02*
X59979637Y-133143628D01*
X59979637Y-133143628D02*
X59979637Y-133096009D01*
X59979637Y-133096009D02*
X60027256Y-133000771D01*
X60027256Y-133000771D02*
X60122494Y-132953152D01*
X60122494Y-132953152D02*
X60265351Y-132953152D01*
X60265351Y-132953152D02*
X60360589Y-133000771D01*
X60741542Y-132953152D02*
X60979637Y-133619819D01*
X61217732Y-132953152D02*
X60979637Y-133619819D01*
X60979637Y-133619819D02*
X60884399Y-133857914D01*
X60884399Y-133857914D02*
X60836780Y-133905533D01*
X60836780Y-133905533D02*
X60741542Y-133953152D01*
X62789161Y-133572200D02*
X62693923Y-133619819D01*
X62693923Y-133619819D02*
X62503447Y-133619819D01*
X62503447Y-133619819D02*
X62408209Y-133572200D01*
X62408209Y-133572200D02*
X62360590Y-133524580D01*
X62360590Y-133524580D02*
X62312971Y-133429342D01*
X62312971Y-133429342D02*
X62312971Y-133143628D01*
X62312971Y-133143628D02*
X62360590Y-133048390D01*
X62360590Y-133048390D02*
X62408209Y-133000771D01*
X62408209Y-133000771D02*
X62503447Y-132953152D01*
X62503447Y-132953152D02*
X62693923Y-132953152D01*
X62693923Y-132953152D02*
X62789161Y-133000771D01*
X63360590Y-133619819D02*
X63265352Y-133572200D01*
X63265352Y-133572200D02*
X63217733Y-133524580D01*
X63217733Y-133524580D02*
X63170114Y-133429342D01*
X63170114Y-133429342D02*
X63170114Y-133143628D01*
X63170114Y-133143628D02*
X63217733Y-133048390D01*
X63217733Y-133048390D02*
X63265352Y-133000771D01*
X63265352Y-133000771D02*
X63360590Y-132953152D01*
X63360590Y-132953152D02*
X63503447Y-132953152D01*
X63503447Y-132953152D02*
X63598685Y-133000771D01*
X63598685Y-133000771D02*
X63646304Y-133048390D01*
X63646304Y-133048390D02*
X63693923Y-133143628D01*
X63693923Y-133143628D02*
X63693923Y-133429342D01*
X63693923Y-133429342D02*
X63646304Y-133524580D01*
X63646304Y-133524580D02*
X63598685Y-133572200D01*
X63598685Y-133572200D02*
X63503447Y-133619819D01*
X63503447Y-133619819D02*
X63360590Y-133619819D01*
X64122495Y-132953152D02*
X64122495Y-133619819D01*
X64122495Y-133048390D02*
X64170114Y-133000771D01*
X64170114Y-133000771D02*
X64265352Y-132953152D01*
X64265352Y-132953152D02*
X64408209Y-132953152D01*
X64408209Y-132953152D02*
X64503447Y-133000771D01*
X64503447Y-133000771D02*
X64551066Y-133096009D01*
X64551066Y-133096009D02*
X64551066Y-133619819D01*
X64884400Y-132953152D02*
X65265352Y-132953152D01*
X65027257Y-132619819D02*
X65027257Y-133476961D01*
X65027257Y-133476961D02*
X65074876Y-133572200D01*
X65074876Y-133572200D02*
X65170114Y-133619819D01*
X65170114Y-133619819D02*
X65265352Y-133619819D01*
X65598686Y-133619819D02*
X65598686Y-132953152D01*
X65598686Y-133143628D02*
X65646305Y-133048390D01*
X65646305Y-133048390D02*
X65693924Y-133000771D01*
X65693924Y-133000771D02*
X65789162Y-132953152D01*
X65789162Y-132953152D02*
X65884400Y-132953152D01*
X66360591Y-133619819D02*
X66265353Y-133572200D01*
X66265353Y-133572200D02*
X66217734Y-133524580D01*
X66217734Y-133524580D02*
X66170115Y-133429342D01*
X66170115Y-133429342D02*
X66170115Y-133143628D01*
X66170115Y-133143628D02*
X66217734Y-133048390D01*
X66217734Y-133048390D02*
X66265353Y-133000771D01*
X66265353Y-133000771D02*
X66360591Y-132953152D01*
X66360591Y-132953152D02*
X66503448Y-132953152D01*
X66503448Y-132953152D02*
X66598686Y-133000771D01*
X66598686Y-133000771D02*
X66646305Y-133048390D01*
X66646305Y-133048390D02*
X66693924Y-133143628D01*
X66693924Y-133143628D02*
X66693924Y-133429342D01*
X66693924Y-133429342D02*
X66646305Y-133524580D01*
X66646305Y-133524580D02*
X66598686Y-133572200D01*
X66598686Y-133572200D02*
X66503448Y-133619819D01*
X66503448Y-133619819D02*
X66360591Y-133619819D01*
X67265353Y-133619819D02*
X67170115Y-133572200D01*
X67170115Y-133572200D02*
X67122496Y-133476961D01*
X67122496Y-133476961D02*
X67122496Y-132619819D01*
X68408211Y-132953152D02*
X68408211Y-133953152D01*
X68408211Y-133000771D02*
X68503449Y-132953152D01*
X68503449Y-132953152D02*
X68693925Y-132953152D01*
X68693925Y-132953152D02*
X68789163Y-133000771D01*
X68789163Y-133000771D02*
X68836782Y-133048390D01*
X68836782Y-133048390D02*
X68884401Y-133143628D01*
X68884401Y-133143628D02*
X68884401Y-133429342D01*
X68884401Y-133429342D02*
X68836782Y-133524580D01*
X68836782Y-133524580D02*
X68789163Y-133572200D01*
X68789163Y-133572200D02*
X68693925Y-133619819D01*
X68693925Y-133619819D02*
X68503449Y-133619819D01*
X68503449Y-133619819D02*
X68408211Y-133572200D01*
X69741544Y-133619819D02*
X69741544Y-133096009D01*
X69741544Y-133096009D02*
X69693925Y-133000771D01*
X69693925Y-133000771D02*
X69598687Y-132953152D01*
X69598687Y-132953152D02*
X69408211Y-132953152D01*
X69408211Y-132953152D02*
X69312973Y-133000771D01*
X69741544Y-133572200D02*
X69646306Y-133619819D01*
X69646306Y-133619819D02*
X69408211Y-133619819D01*
X69408211Y-133619819D02*
X69312973Y-133572200D01*
X69312973Y-133572200D02*
X69265354Y-133476961D01*
X69265354Y-133476961D02*
X69265354Y-133381723D01*
X69265354Y-133381723D02*
X69312973Y-133286485D01*
X69312973Y-133286485D02*
X69408211Y-133238866D01*
X69408211Y-133238866D02*
X69646306Y-133238866D01*
X69646306Y-133238866D02*
X69741544Y-133191247D01*
X70217735Y-132953152D02*
X70217735Y-133619819D01*
X70217735Y-133048390D02*
X70265354Y-133000771D01*
X70265354Y-133000771D02*
X70360592Y-132953152D01*
X70360592Y-132953152D02*
X70503449Y-132953152D01*
X70503449Y-132953152D02*
X70598687Y-133000771D01*
X70598687Y-133000771D02*
X70646306Y-133096009D01*
X70646306Y-133096009D02*
X70646306Y-133619819D01*
X71503449Y-133572200D02*
X71408211Y-133619819D01*
X71408211Y-133619819D02*
X71217735Y-133619819D01*
X71217735Y-133619819D02*
X71122497Y-133572200D01*
X71122497Y-133572200D02*
X71074878Y-133476961D01*
X71074878Y-133476961D02*
X71074878Y-133096009D01*
X71074878Y-133096009D02*
X71122497Y-133000771D01*
X71122497Y-133000771D02*
X71217735Y-132953152D01*
X71217735Y-132953152D02*
X71408211Y-132953152D01*
X71408211Y-132953152D02*
X71503449Y-133000771D01*
X71503449Y-133000771D02*
X71551068Y-133096009D01*
X71551068Y-133096009D02*
X71551068Y-133191247D01*
X71551068Y-133191247D02*
X71074878Y-133286485D01*
X72122497Y-133619819D02*
X72027259Y-133572200D01*
X72027259Y-133572200D02*
X71979640Y-133476961D01*
X71979640Y-133476961D02*
X71979640Y-132619819D01*
X73122498Y-132619819D02*
X73455831Y-133619819D01*
X73455831Y-133619819D02*
X73789164Y-132619819D01*
X74646307Y-133619819D02*
X74074879Y-133619819D01*
X74360593Y-133619819D02*
X74360593Y-132619819D01*
X74360593Y-132619819D02*
X74265355Y-132762676D01*
X74265355Y-132762676D02*
X74170117Y-132857914D01*
X74170117Y-132857914D02*
X74074879Y-132905533D01*
D11*
X113260807Y-108444214D02*
X113260807Y-107694214D01*
X113260807Y-107694214D02*
X113439378Y-107694214D01*
X113439378Y-107694214D02*
X113546521Y-107729928D01*
X113546521Y-107729928D02*
X113617950Y-107801357D01*
X113617950Y-107801357D02*
X113653664Y-107872785D01*
X113653664Y-107872785D02*
X113689378Y-108015642D01*
X113689378Y-108015642D02*
X113689378Y-108122785D01*
X113689378Y-108122785D02*
X113653664Y-108265642D01*
X113653664Y-108265642D02*
X113617950Y-108337071D01*
X113617950Y-108337071D02*
X113546521Y-108408500D01*
X113546521Y-108408500D02*
X113439378Y-108444214D01*
X113439378Y-108444214D02*
X113260807Y-108444214D01*
X114046521Y-108444214D02*
X114189378Y-108444214D01*
X114189378Y-108444214D02*
X114260807Y-108408500D01*
X114260807Y-108408500D02*
X114296521Y-108372785D01*
X114296521Y-108372785D02*
X114367950Y-108265642D01*
X114367950Y-108265642D02*
X114403664Y-108122785D01*
X114403664Y-108122785D02*
X114403664Y-107837071D01*
X114403664Y-107837071D02*
X114367950Y-107765642D01*
X114367950Y-107765642D02*
X114332236Y-107729928D01*
X114332236Y-107729928D02*
X114260807Y-107694214D01*
X114260807Y-107694214D02*
X114117950Y-107694214D01*
X114117950Y-107694214D02*
X114046521Y-107729928D01*
X114046521Y-107729928D02*
X114010807Y-107765642D01*
X114010807Y-107765642D02*
X113975093Y-107837071D01*
X113975093Y-107837071D02*
X113975093Y-108015642D01*
X113975093Y-108015642D02*
X114010807Y-108087071D01*
X114010807Y-108087071D02*
X114046521Y-108122785D01*
X114046521Y-108122785D02*
X114117950Y-108158500D01*
X114117950Y-108158500D02*
X114260807Y-108158500D01*
X114260807Y-108158500D02*
X114332236Y-108122785D01*
X114332236Y-108122785D02*
X114367950Y-108087071D01*
X114367950Y-108087071D02*
X114403664Y-108015642D01*
X113653664Y-108937428D02*
X113582236Y-108901714D01*
X113582236Y-108901714D02*
X113475093Y-108901714D01*
X113475093Y-108901714D02*
X113367950Y-108937428D01*
X113367950Y-108937428D02*
X113296521Y-109008857D01*
X113296521Y-109008857D02*
X113260807Y-109080285D01*
X113260807Y-109080285D02*
X113225093Y-109223142D01*
X113225093Y-109223142D02*
X113225093Y-109330285D01*
X113225093Y-109330285D02*
X113260807Y-109473142D01*
X113260807Y-109473142D02*
X113296521Y-109544571D01*
X113296521Y-109544571D02*
X113367950Y-109616000D01*
X113367950Y-109616000D02*
X113475093Y-109651714D01*
X113475093Y-109651714D02*
X113546521Y-109651714D01*
X113546521Y-109651714D02*
X113653664Y-109616000D01*
X113653664Y-109616000D02*
X113689378Y-109580285D01*
X113689378Y-109580285D02*
X113689378Y-109330285D01*
X113689378Y-109330285D02*
X113546521Y-109330285D01*
X114010807Y-109651714D02*
X114010807Y-109151714D01*
X114010807Y-109294571D02*
X114046521Y-109223142D01*
X114046521Y-109223142D02*
X114082236Y-109187428D01*
X114082236Y-109187428D02*
X114153664Y-109151714D01*
X114153664Y-109151714D02*
X114225093Y-109151714D01*
X88010807Y-108444214D02*
X88010807Y-107694214D01*
X88010807Y-107694214D02*
X88189378Y-107694214D01*
X88189378Y-107694214D02*
X88296521Y-107729928D01*
X88296521Y-107729928D02*
X88367950Y-107801357D01*
X88367950Y-107801357D02*
X88403664Y-107872785D01*
X88403664Y-107872785D02*
X88439378Y-108015642D01*
X88439378Y-108015642D02*
X88439378Y-108122785D01*
X88439378Y-108122785D02*
X88403664Y-108265642D01*
X88403664Y-108265642D02*
X88367950Y-108337071D01*
X88367950Y-108337071D02*
X88296521Y-108408500D01*
X88296521Y-108408500D02*
X88189378Y-108444214D01*
X88189378Y-108444214D02*
X88010807Y-108444214D01*
X89117950Y-107694214D02*
X88760807Y-107694214D01*
X88760807Y-107694214D02*
X88725093Y-108051357D01*
X88725093Y-108051357D02*
X88760807Y-108015642D01*
X88760807Y-108015642D02*
X88832236Y-107979928D01*
X88832236Y-107979928D02*
X89010807Y-107979928D01*
X89010807Y-107979928D02*
X89082236Y-108015642D01*
X89082236Y-108015642D02*
X89117950Y-108051357D01*
X89117950Y-108051357D02*
X89153664Y-108122785D01*
X89153664Y-108122785D02*
X89153664Y-108301357D01*
X89153664Y-108301357D02*
X89117950Y-108372785D01*
X89117950Y-108372785D02*
X89082236Y-108408500D01*
X89082236Y-108408500D02*
X89010807Y-108444214D01*
X89010807Y-108444214D02*
X88832236Y-108444214D01*
X88832236Y-108444214D02*
X88760807Y-108408500D01*
X88760807Y-108408500D02*
X88725093Y-108372785D01*
X88403664Y-108937428D02*
X88332236Y-108901714D01*
X88332236Y-108901714D02*
X88225093Y-108901714D01*
X88225093Y-108901714D02*
X88117950Y-108937428D01*
X88117950Y-108937428D02*
X88046521Y-109008857D01*
X88046521Y-109008857D02*
X88010807Y-109080285D01*
X88010807Y-109080285D02*
X87975093Y-109223142D01*
X87975093Y-109223142D02*
X87975093Y-109330285D01*
X87975093Y-109330285D02*
X88010807Y-109473142D01*
X88010807Y-109473142D02*
X88046521Y-109544571D01*
X88046521Y-109544571D02*
X88117950Y-109616000D01*
X88117950Y-109616000D02*
X88225093Y-109651714D01*
X88225093Y-109651714D02*
X88296521Y-109651714D01*
X88296521Y-109651714D02*
X88403664Y-109616000D01*
X88403664Y-109616000D02*
X88439378Y-109580285D01*
X88439378Y-109580285D02*
X88439378Y-109330285D01*
X88439378Y-109330285D02*
X88296521Y-109330285D01*
X88760807Y-109651714D02*
X88760807Y-109151714D01*
X88760807Y-109294571D02*
X88796521Y-109223142D01*
X88796521Y-109223142D02*
X88832236Y-109187428D01*
X88832236Y-109187428D02*
X88903664Y-109151714D01*
X88903664Y-109151714D02*
X88975093Y-109151714D01*
X108010807Y-114694214D02*
X108010807Y-113944214D01*
X108010807Y-113944214D02*
X108189378Y-113944214D01*
X108189378Y-113944214D02*
X108296521Y-113979928D01*
X108296521Y-113979928D02*
X108367950Y-114051357D01*
X108367950Y-114051357D02*
X108403664Y-114122785D01*
X108403664Y-114122785D02*
X108439378Y-114265642D01*
X108439378Y-114265642D02*
X108439378Y-114372785D01*
X108439378Y-114372785D02*
X108403664Y-114515642D01*
X108403664Y-114515642D02*
X108367950Y-114587071D01*
X108367950Y-114587071D02*
X108296521Y-114658500D01*
X108296521Y-114658500D02*
X108189378Y-114694214D01*
X108189378Y-114694214D02*
X108010807Y-114694214D01*
X108867950Y-114265642D02*
X108796521Y-114229928D01*
X108796521Y-114229928D02*
X108760807Y-114194214D01*
X108760807Y-114194214D02*
X108725093Y-114122785D01*
X108725093Y-114122785D02*
X108725093Y-114087071D01*
X108725093Y-114087071D02*
X108760807Y-114015642D01*
X108760807Y-114015642D02*
X108796521Y-113979928D01*
X108796521Y-113979928D02*
X108867950Y-113944214D01*
X108867950Y-113944214D02*
X109010807Y-113944214D01*
X109010807Y-113944214D02*
X109082236Y-113979928D01*
X109082236Y-113979928D02*
X109117950Y-114015642D01*
X109117950Y-114015642D02*
X109153664Y-114087071D01*
X109153664Y-114087071D02*
X109153664Y-114122785D01*
X109153664Y-114122785D02*
X109117950Y-114194214D01*
X109117950Y-114194214D02*
X109082236Y-114229928D01*
X109082236Y-114229928D02*
X109010807Y-114265642D01*
X109010807Y-114265642D02*
X108867950Y-114265642D01*
X108867950Y-114265642D02*
X108796521Y-114301357D01*
X108796521Y-114301357D02*
X108760807Y-114337071D01*
X108760807Y-114337071D02*
X108725093Y-114408500D01*
X108725093Y-114408500D02*
X108725093Y-114551357D01*
X108725093Y-114551357D02*
X108760807Y-114622785D01*
X108760807Y-114622785D02*
X108796521Y-114658500D01*
X108796521Y-114658500D02*
X108867950Y-114694214D01*
X108867950Y-114694214D02*
X109010807Y-114694214D01*
X109010807Y-114694214D02*
X109082236Y-114658500D01*
X109082236Y-114658500D02*
X109117950Y-114622785D01*
X109117950Y-114622785D02*
X109153664Y-114551357D01*
X109153664Y-114551357D02*
X109153664Y-114408500D01*
X109153664Y-114408500D02*
X109117950Y-114337071D01*
X109117950Y-114337071D02*
X109082236Y-114301357D01*
X109082236Y-114301357D02*
X109010807Y-114265642D01*
X112332238Y-114694214D02*
X112332238Y-113944214D01*
X112332238Y-113944214D02*
X112510809Y-113944214D01*
X112510809Y-113944214D02*
X112617952Y-113979928D01*
X112617952Y-113979928D02*
X112689381Y-114051357D01*
X112689381Y-114051357D02*
X112725095Y-114122785D01*
X112725095Y-114122785D02*
X112760809Y-114265642D01*
X112760809Y-114265642D02*
X112760809Y-114372785D01*
X112760809Y-114372785D02*
X112725095Y-114515642D01*
X112725095Y-114515642D02*
X112689381Y-114587071D01*
X112689381Y-114587071D02*
X112617952Y-114658500D01*
X112617952Y-114658500D02*
X112510809Y-114694214D01*
X112510809Y-114694214D02*
X112332238Y-114694214D01*
X113010809Y-113944214D02*
X113510809Y-113944214D01*
X113510809Y-113944214D02*
X113189381Y-114694214D01*
X114367953Y-114694214D02*
X114367953Y-113944214D01*
X114367953Y-113944214D02*
X114546524Y-113944214D01*
X114546524Y-113944214D02*
X114653667Y-113979928D01*
X114653667Y-113979928D02*
X114725096Y-114051357D01*
X114725096Y-114051357D02*
X114760810Y-114122785D01*
X114760810Y-114122785D02*
X114796524Y-114265642D01*
X114796524Y-114265642D02*
X114796524Y-114372785D01*
X114796524Y-114372785D02*
X114760810Y-114515642D01*
X114760810Y-114515642D02*
X114725096Y-114587071D01*
X114725096Y-114587071D02*
X114653667Y-114658500D01*
X114653667Y-114658500D02*
X114546524Y-114694214D01*
X114546524Y-114694214D02*
X114367953Y-114694214D01*
X115510810Y-114694214D02*
X115082239Y-114694214D01*
X115296524Y-114694214D02*
X115296524Y-113944214D01*
X115296524Y-113944214D02*
X115225096Y-114051357D01*
X115225096Y-114051357D02*
X115153667Y-114122785D01*
X115153667Y-114122785D02*
X115082239Y-114158500D01*
X115975096Y-113944214D02*
X116046525Y-113944214D01*
X116046525Y-113944214D02*
X116117953Y-113979928D01*
X116117953Y-113979928D02*
X116153668Y-114015642D01*
X116153668Y-114015642D02*
X116189382Y-114087071D01*
X116189382Y-114087071D02*
X116225096Y-114229928D01*
X116225096Y-114229928D02*
X116225096Y-114408500D01*
X116225096Y-114408500D02*
X116189382Y-114551357D01*
X116189382Y-114551357D02*
X116153668Y-114622785D01*
X116153668Y-114622785D02*
X116117953Y-114658500D01*
X116117953Y-114658500D02*
X116046525Y-114694214D01*
X116046525Y-114694214D02*
X115975096Y-114694214D01*
X115975096Y-114694214D02*
X115903668Y-114658500D01*
X115903668Y-114658500D02*
X115867953Y-114622785D01*
X115867953Y-114622785D02*
X115832239Y-114551357D01*
X115832239Y-114551357D02*
X115796525Y-114408500D01*
X115796525Y-114408500D02*
X115796525Y-114229928D01*
X115796525Y-114229928D02*
X115832239Y-114087071D01*
X115832239Y-114087071D02*
X115867953Y-114015642D01*
X115867953Y-114015642D02*
X115903668Y-113979928D01*
X115903668Y-113979928D02*
X115975096Y-113944214D01*
X108153664Y-115151714D02*
X108296521Y-115151714D01*
X108296521Y-115151714D02*
X108367950Y-115187428D01*
X108367950Y-115187428D02*
X108439378Y-115258857D01*
X108439378Y-115258857D02*
X108475093Y-115401714D01*
X108475093Y-115401714D02*
X108475093Y-115651714D01*
X108475093Y-115651714D02*
X108439378Y-115794571D01*
X108439378Y-115794571D02*
X108367950Y-115866000D01*
X108367950Y-115866000D02*
X108296521Y-115901714D01*
X108296521Y-115901714D02*
X108153664Y-115901714D01*
X108153664Y-115901714D02*
X108082236Y-115866000D01*
X108082236Y-115866000D02*
X108010807Y-115794571D01*
X108010807Y-115794571D02*
X107975093Y-115651714D01*
X107975093Y-115651714D02*
X107975093Y-115401714D01*
X107975093Y-115401714D02*
X108010807Y-115258857D01*
X108010807Y-115258857D02*
X108082236Y-115187428D01*
X108082236Y-115187428D02*
X108153664Y-115151714D01*
X108796521Y-115901714D02*
X108796521Y-115401714D01*
X108796521Y-115544571D02*
X108832235Y-115473142D01*
X108832235Y-115473142D02*
X108867950Y-115437428D01*
X108867950Y-115437428D02*
X108939378Y-115401714D01*
X108939378Y-115401714D02*
X109010807Y-115401714D01*
X112367952Y-115508857D02*
X112475095Y-115544571D01*
X112475095Y-115544571D02*
X112510809Y-115580285D01*
X112510809Y-115580285D02*
X112546523Y-115651714D01*
X112546523Y-115651714D02*
X112546523Y-115758857D01*
X112546523Y-115758857D02*
X112510809Y-115830285D01*
X112510809Y-115830285D02*
X112475095Y-115866000D01*
X112475095Y-115866000D02*
X112403666Y-115901714D01*
X112403666Y-115901714D02*
X112117952Y-115901714D01*
X112117952Y-115901714D02*
X112117952Y-115151714D01*
X112117952Y-115151714D02*
X112367952Y-115151714D01*
X112367952Y-115151714D02*
X112439381Y-115187428D01*
X112439381Y-115187428D02*
X112475095Y-115223142D01*
X112475095Y-115223142D02*
X112510809Y-115294571D01*
X112510809Y-115294571D02*
X112510809Y-115366000D01*
X112510809Y-115366000D02*
X112475095Y-115437428D01*
X112475095Y-115437428D02*
X112439381Y-115473142D01*
X112439381Y-115473142D02*
X112367952Y-115508857D01*
X112367952Y-115508857D02*
X112117952Y-115508857D01*
X112975095Y-115901714D02*
X112903666Y-115866000D01*
X112903666Y-115866000D02*
X112867952Y-115794571D01*
X112867952Y-115794571D02*
X112867952Y-115151714D01*
X114082238Y-115508857D02*
X114189381Y-115544571D01*
X114189381Y-115544571D02*
X114225095Y-115580285D01*
X114225095Y-115580285D02*
X114260809Y-115651714D01*
X114260809Y-115651714D02*
X114260809Y-115758857D01*
X114260809Y-115758857D02*
X114225095Y-115830285D01*
X114225095Y-115830285D02*
X114189381Y-115866000D01*
X114189381Y-115866000D02*
X114117952Y-115901714D01*
X114117952Y-115901714D02*
X113832238Y-115901714D01*
X113832238Y-115901714D02*
X113832238Y-115151714D01*
X113832238Y-115151714D02*
X114082238Y-115151714D01*
X114082238Y-115151714D02*
X114153667Y-115187428D01*
X114153667Y-115187428D02*
X114189381Y-115223142D01*
X114189381Y-115223142D02*
X114225095Y-115294571D01*
X114225095Y-115294571D02*
X114225095Y-115366000D01*
X114225095Y-115366000D02*
X114189381Y-115437428D01*
X114189381Y-115437428D02*
X114153667Y-115473142D01*
X114153667Y-115473142D02*
X114082238Y-115508857D01*
X114082238Y-115508857D02*
X113832238Y-115508857D01*
X114582238Y-115901714D02*
X114582238Y-115401714D01*
X114582238Y-115544571D02*
X114617952Y-115473142D01*
X114617952Y-115473142D02*
X114653667Y-115437428D01*
X114653667Y-115437428D02*
X114725095Y-115401714D01*
X114725095Y-115401714D02*
X114796524Y-115401714D01*
X83010807Y-114694214D02*
X83010807Y-113944214D01*
X83010807Y-113944214D02*
X83189378Y-113944214D01*
X83189378Y-113944214D02*
X83296521Y-113979928D01*
X83296521Y-113979928D02*
X83367950Y-114051357D01*
X83367950Y-114051357D02*
X83403664Y-114122785D01*
X83403664Y-114122785D02*
X83439378Y-114265642D01*
X83439378Y-114265642D02*
X83439378Y-114372785D01*
X83439378Y-114372785D02*
X83403664Y-114515642D01*
X83403664Y-114515642D02*
X83367950Y-114587071D01*
X83367950Y-114587071D02*
X83296521Y-114658500D01*
X83296521Y-114658500D02*
X83189378Y-114694214D01*
X83189378Y-114694214D02*
X83010807Y-114694214D01*
X84082236Y-114194214D02*
X84082236Y-114694214D01*
X83903664Y-113908500D02*
X83725093Y-114444214D01*
X83725093Y-114444214D02*
X84189378Y-114444214D01*
X87332238Y-114694214D02*
X87332238Y-113944214D01*
X87332238Y-113944214D02*
X87510809Y-113944214D01*
X87510809Y-113944214D02*
X87617952Y-113979928D01*
X87617952Y-113979928D02*
X87689381Y-114051357D01*
X87689381Y-114051357D02*
X87725095Y-114122785D01*
X87725095Y-114122785D02*
X87760809Y-114265642D01*
X87760809Y-114265642D02*
X87760809Y-114372785D01*
X87760809Y-114372785D02*
X87725095Y-114515642D01*
X87725095Y-114515642D02*
X87689381Y-114587071D01*
X87689381Y-114587071D02*
X87617952Y-114658500D01*
X87617952Y-114658500D02*
X87510809Y-114694214D01*
X87510809Y-114694214D02*
X87332238Y-114694214D01*
X88010809Y-113944214D02*
X88475095Y-113944214D01*
X88475095Y-113944214D02*
X88225095Y-114229928D01*
X88225095Y-114229928D02*
X88332238Y-114229928D01*
X88332238Y-114229928D02*
X88403667Y-114265642D01*
X88403667Y-114265642D02*
X88439381Y-114301357D01*
X88439381Y-114301357D02*
X88475095Y-114372785D01*
X88475095Y-114372785D02*
X88475095Y-114551357D01*
X88475095Y-114551357D02*
X88439381Y-114622785D01*
X88439381Y-114622785D02*
X88403667Y-114658500D01*
X88403667Y-114658500D02*
X88332238Y-114694214D01*
X88332238Y-114694214D02*
X88117952Y-114694214D01*
X88117952Y-114694214D02*
X88046524Y-114658500D01*
X88046524Y-114658500D02*
X88010809Y-114622785D01*
X89367953Y-114694214D02*
X89367953Y-113944214D01*
X89367953Y-113944214D02*
X89546524Y-113944214D01*
X89546524Y-113944214D02*
X89653667Y-113979928D01*
X89653667Y-113979928D02*
X89725096Y-114051357D01*
X89725096Y-114051357D02*
X89760810Y-114122785D01*
X89760810Y-114122785D02*
X89796524Y-114265642D01*
X89796524Y-114265642D02*
X89796524Y-114372785D01*
X89796524Y-114372785D02*
X89760810Y-114515642D01*
X89760810Y-114515642D02*
X89725096Y-114587071D01*
X89725096Y-114587071D02*
X89653667Y-114658500D01*
X89653667Y-114658500D02*
X89546524Y-114694214D01*
X89546524Y-114694214D02*
X89367953Y-114694214D01*
X90439382Y-113944214D02*
X90296524Y-113944214D01*
X90296524Y-113944214D02*
X90225096Y-113979928D01*
X90225096Y-113979928D02*
X90189382Y-114015642D01*
X90189382Y-114015642D02*
X90117953Y-114122785D01*
X90117953Y-114122785D02*
X90082239Y-114265642D01*
X90082239Y-114265642D02*
X90082239Y-114551357D01*
X90082239Y-114551357D02*
X90117953Y-114622785D01*
X90117953Y-114622785D02*
X90153667Y-114658500D01*
X90153667Y-114658500D02*
X90225096Y-114694214D01*
X90225096Y-114694214D02*
X90367953Y-114694214D01*
X90367953Y-114694214D02*
X90439382Y-114658500D01*
X90439382Y-114658500D02*
X90475096Y-114622785D01*
X90475096Y-114622785D02*
X90510810Y-114551357D01*
X90510810Y-114551357D02*
X90510810Y-114372785D01*
X90510810Y-114372785D02*
X90475096Y-114301357D01*
X90475096Y-114301357D02*
X90439382Y-114265642D01*
X90439382Y-114265642D02*
X90367953Y-114229928D01*
X90367953Y-114229928D02*
X90225096Y-114229928D01*
X90225096Y-114229928D02*
X90153667Y-114265642D01*
X90153667Y-114265642D02*
X90117953Y-114301357D01*
X90117953Y-114301357D02*
X90082239Y-114372785D01*
X83153664Y-115151714D02*
X83296521Y-115151714D01*
X83296521Y-115151714D02*
X83367950Y-115187428D01*
X83367950Y-115187428D02*
X83439378Y-115258857D01*
X83439378Y-115258857D02*
X83475093Y-115401714D01*
X83475093Y-115401714D02*
X83475093Y-115651714D01*
X83475093Y-115651714D02*
X83439378Y-115794571D01*
X83439378Y-115794571D02*
X83367950Y-115866000D01*
X83367950Y-115866000D02*
X83296521Y-115901714D01*
X83296521Y-115901714D02*
X83153664Y-115901714D01*
X83153664Y-115901714D02*
X83082236Y-115866000D01*
X83082236Y-115866000D02*
X83010807Y-115794571D01*
X83010807Y-115794571D02*
X82975093Y-115651714D01*
X82975093Y-115651714D02*
X82975093Y-115401714D01*
X82975093Y-115401714D02*
X83010807Y-115258857D01*
X83010807Y-115258857D02*
X83082236Y-115187428D01*
X83082236Y-115187428D02*
X83153664Y-115151714D01*
X83796521Y-115901714D02*
X83796521Y-115401714D01*
X83796521Y-115544571D02*
X83832235Y-115473142D01*
X83832235Y-115473142D02*
X83867950Y-115437428D01*
X83867950Y-115437428D02*
X83939378Y-115401714D01*
X83939378Y-115401714D02*
X84010807Y-115401714D01*
X87939381Y-115508857D02*
X88046524Y-115544571D01*
X88046524Y-115544571D02*
X88082238Y-115580285D01*
X88082238Y-115580285D02*
X88117952Y-115651714D01*
X88117952Y-115651714D02*
X88117952Y-115758857D01*
X88117952Y-115758857D02*
X88082238Y-115830285D01*
X88082238Y-115830285D02*
X88046524Y-115866000D01*
X88046524Y-115866000D02*
X87975095Y-115901714D01*
X87975095Y-115901714D02*
X87689381Y-115901714D01*
X87689381Y-115901714D02*
X87689381Y-115151714D01*
X87689381Y-115151714D02*
X87939381Y-115151714D01*
X87939381Y-115151714D02*
X88010810Y-115187428D01*
X88010810Y-115187428D02*
X88046524Y-115223142D01*
X88046524Y-115223142D02*
X88082238Y-115294571D01*
X88082238Y-115294571D02*
X88082238Y-115366000D01*
X88082238Y-115366000D02*
X88046524Y-115437428D01*
X88046524Y-115437428D02*
X88010810Y-115473142D01*
X88010810Y-115473142D02*
X87939381Y-115508857D01*
X87939381Y-115508857D02*
X87689381Y-115508857D01*
X88546524Y-115901714D02*
X88475095Y-115866000D01*
X88475095Y-115866000D02*
X88439381Y-115794571D01*
X88439381Y-115794571D02*
X88439381Y-115151714D01*
X89653667Y-115508857D02*
X89760810Y-115544571D01*
X89760810Y-115544571D02*
X89796524Y-115580285D01*
X89796524Y-115580285D02*
X89832238Y-115651714D01*
X89832238Y-115651714D02*
X89832238Y-115758857D01*
X89832238Y-115758857D02*
X89796524Y-115830285D01*
X89796524Y-115830285D02*
X89760810Y-115866000D01*
X89760810Y-115866000D02*
X89689381Y-115901714D01*
X89689381Y-115901714D02*
X89403667Y-115901714D01*
X89403667Y-115901714D02*
X89403667Y-115151714D01*
X89403667Y-115151714D02*
X89653667Y-115151714D01*
X89653667Y-115151714D02*
X89725096Y-115187428D01*
X89725096Y-115187428D02*
X89760810Y-115223142D01*
X89760810Y-115223142D02*
X89796524Y-115294571D01*
X89796524Y-115294571D02*
X89796524Y-115366000D01*
X89796524Y-115366000D02*
X89760810Y-115437428D01*
X89760810Y-115437428D02*
X89725096Y-115473142D01*
X89725096Y-115473142D02*
X89653667Y-115508857D01*
X89653667Y-115508857D02*
X89403667Y-115508857D01*
X90153667Y-115901714D02*
X90153667Y-115401714D01*
X90153667Y-115544571D02*
X90189381Y-115473142D01*
X90189381Y-115473142D02*
X90225096Y-115437428D01*
X90225096Y-115437428D02*
X90296524Y-115401714D01*
X90296524Y-115401714D02*
X90367953Y-115401714D01*
X58760807Y-109901714D02*
X58760807Y-109151714D01*
X58760807Y-109151714D02*
X58939378Y-109151714D01*
X58939378Y-109151714D02*
X59046521Y-109187428D01*
X59046521Y-109187428D02*
X59117950Y-109258857D01*
X59117950Y-109258857D02*
X59153664Y-109330285D01*
X59153664Y-109330285D02*
X59189378Y-109473142D01*
X59189378Y-109473142D02*
X59189378Y-109580285D01*
X59189378Y-109580285D02*
X59153664Y-109723142D01*
X59153664Y-109723142D02*
X59117950Y-109794571D01*
X59117950Y-109794571D02*
X59046521Y-109866000D01*
X59046521Y-109866000D02*
X58939378Y-109901714D01*
X58939378Y-109901714D02*
X58760807Y-109901714D01*
X59653664Y-109151714D02*
X59725093Y-109151714D01*
X59725093Y-109151714D02*
X59796521Y-109187428D01*
X59796521Y-109187428D02*
X59832236Y-109223142D01*
X59832236Y-109223142D02*
X59867950Y-109294571D01*
X59867950Y-109294571D02*
X59903664Y-109437428D01*
X59903664Y-109437428D02*
X59903664Y-109616000D01*
X59903664Y-109616000D02*
X59867950Y-109758857D01*
X59867950Y-109758857D02*
X59832236Y-109830285D01*
X59832236Y-109830285D02*
X59796521Y-109866000D01*
X59796521Y-109866000D02*
X59725093Y-109901714D01*
X59725093Y-109901714D02*
X59653664Y-109901714D01*
X59653664Y-109901714D02*
X59582236Y-109866000D01*
X59582236Y-109866000D02*
X59546521Y-109830285D01*
X59546521Y-109830285D02*
X59510807Y-109758857D01*
X59510807Y-109758857D02*
X59475093Y-109616000D01*
X59475093Y-109616000D02*
X59475093Y-109437428D01*
X59475093Y-109437428D02*
X59510807Y-109294571D01*
X59510807Y-109294571D02*
X59546521Y-109223142D01*
X59546521Y-109223142D02*
X59582236Y-109187428D01*
X59582236Y-109187428D02*
X59653664Y-109151714D01*
X61189379Y-109187428D02*
X61117951Y-109151714D01*
X61117951Y-109151714D02*
X61010808Y-109151714D01*
X61010808Y-109151714D02*
X60903665Y-109187428D01*
X60903665Y-109187428D02*
X60832236Y-109258857D01*
X60832236Y-109258857D02*
X60796522Y-109330285D01*
X60796522Y-109330285D02*
X60760808Y-109473142D01*
X60760808Y-109473142D02*
X60760808Y-109580285D01*
X60760808Y-109580285D02*
X60796522Y-109723142D01*
X60796522Y-109723142D02*
X60832236Y-109794571D01*
X60832236Y-109794571D02*
X60903665Y-109866000D01*
X60903665Y-109866000D02*
X61010808Y-109901714D01*
X61010808Y-109901714D02*
X61082236Y-109901714D01*
X61082236Y-109901714D02*
X61189379Y-109866000D01*
X61189379Y-109866000D02*
X61225093Y-109830285D01*
X61225093Y-109830285D02*
X61225093Y-109580285D01*
X61225093Y-109580285D02*
X61082236Y-109580285D01*
X61546522Y-109901714D02*
X61546522Y-109151714D01*
X61546522Y-109151714D02*
X61975093Y-109901714D01*
X61975093Y-109901714D02*
X61975093Y-109151714D01*
X62332236Y-109901714D02*
X62332236Y-109151714D01*
X62332236Y-109151714D02*
X62510807Y-109151714D01*
X62510807Y-109151714D02*
X62617950Y-109187428D01*
X62617950Y-109187428D02*
X62689379Y-109258857D01*
X62689379Y-109258857D02*
X62725093Y-109330285D01*
X62725093Y-109330285D02*
X62760807Y-109473142D01*
X62760807Y-109473142D02*
X62760807Y-109580285D01*
X62760807Y-109580285D02*
X62725093Y-109723142D01*
X62725093Y-109723142D02*
X62689379Y-109794571D01*
X62689379Y-109794571D02*
X62617950Y-109866000D01*
X62617950Y-109866000D02*
X62510807Y-109901714D01*
X62510807Y-109901714D02*
X62332236Y-109901714D01*
X63653665Y-109901714D02*
X63653665Y-109151714D01*
X63653665Y-109151714D02*
X63832236Y-109151714D01*
X63832236Y-109151714D02*
X63939379Y-109187428D01*
X63939379Y-109187428D02*
X64010808Y-109258857D01*
X64010808Y-109258857D02*
X64046522Y-109330285D01*
X64046522Y-109330285D02*
X64082236Y-109473142D01*
X64082236Y-109473142D02*
X64082236Y-109580285D01*
X64082236Y-109580285D02*
X64046522Y-109723142D01*
X64046522Y-109723142D02*
X64010808Y-109794571D01*
X64010808Y-109794571D02*
X63939379Y-109866000D01*
X63939379Y-109866000D02*
X63832236Y-109901714D01*
X63832236Y-109901714D02*
X63653665Y-109901714D01*
X64796522Y-109901714D02*
X64367951Y-109901714D01*
X64582236Y-109901714D02*
X64582236Y-109151714D01*
X64582236Y-109151714D02*
X64510808Y-109258857D01*
X64510808Y-109258857D02*
X64439379Y-109330285D01*
X64439379Y-109330285D02*
X64367951Y-109366000D01*
X65689380Y-109901714D02*
X65689380Y-109151714D01*
X65689380Y-109151714D02*
X65867951Y-109151714D01*
X65867951Y-109151714D02*
X65975094Y-109187428D01*
X65975094Y-109187428D02*
X66046523Y-109258857D01*
X66046523Y-109258857D02*
X66082237Y-109330285D01*
X66082237Y-109330285D02*
X66117951Y-109473142D01*
X66117951Y-109473142D02*
X66117951Y-109580285D01*
X66117951Y-109580285D02*
X66082237Y-109723142D01*
X66082237Y-109723142D02*
X66046523Y-109794571D01*
X66046523Y-109794571D02*
X65975094Y-109866000D01*
X65975094Y-109866000D02*
X65867951Y-109901714D01*
X65867951Y-109901714D02*
X65689380Y-109901714D01*
X66403666Y-109223142D02*
X66439380Y-109187428D01*
X66439380Y-109187428D02*
X66510809Y-109151714D01*
X66510809Y-109151714D02*
X66689380Y-109151714D01*
X66689380Y-109151714D02*
X66760809Y-109187428D01*
X66760809Y-109187428D02*
X66796523Y-109223142D01*
X66796523Y-109223142D02*
X66832237Y-109294571D01*
X66832237Y-109294571D02*
X66832237Y-109366000D01*
X66832237Y-109366000D02*
X66796523Y-109473142D01*
X66796523Y-109473142D02*
X66367951Y-109901714D01*
X66367951Y-109901714D02*
X66832237Y-109901714D01*
X68117952Y-109187428D02*
X68046524Y-109151714D01*
X68046524Y-109151714D02*
X67939381Y-109151714D01*
X67939381Y-109151714D02*
X67832238Y-109187428D01*
X67832238Y-109187428D02*
X67760809Y-109258857D01*
X67760809Y-109258857D02*
X67725095Y-109330285D01*
X67725095Y-109330285D02*
X67689381Y-109473142D01*
X67689381Y-109473142D02*
X67689381Y-109580285D01*
X67689381Y-109580285D02*
X67725095Y-109723142D01*
X67725095Y-109723142D02*
X67760809Y-109794571D01*
X67760809Y-109794571D02*
X67832238Y-109866000D01*
X67832238Y-109866000D02*
X67939381Y-109901714D01*
X67939381Y-109901714D02*
X68010809Y-109901714D01*
X68010809Y-109901714D02*
X68117952Y-109866000D01*
X68117952Y-109866000D02*
X68153666Y-109830285D01*
X68153666Y-109830285D02*
X68153666Y-109580285D01*
X68153666Y-109580285D02*
X68010809Y-109580285D01*
X68475095Y-109901714D02*
X68475095Y-109151714D01*
X68475095Y-109151714D02*
X68903666Y-109901714D01*
X68903666Y-109901714D02*
X68903666Y-109151714D01*
X69260809Y-109901714D02*
X69260809Y-109151714D01*
X69260809Y-109151714D02*
X69439380Y-109151714D01*
X69439380Y-109151714D02*
X69546523Y-109187428D01*
X69546523Y-109187428D02*
X69617952Y-109258857D01*
X69617952Y-109258857D02*
X69653666Y-109330285D01*
X69653666Y-109330285D02*
X69689380Y-109473142D01*
X69689380Y-109473142D02*
X69689380Y-109580285D01*
X69689380Y-109580285D02*
X69653666Y-109723142D01*
X69653666Y-109723142D02*
X69617952Y-109794571D01*
X69617952Y-109794571D02*
X69546523Y-109866000D01*
X69546523Y-109866000D02*
X69439380Y-109901714D01*
X69439380Y-109901714D02*
X69260809Y-109901714D01*
X58001283Y-117470404D02*
X58167950Y-117470404D01*
X58239378Y-117732309D02*
X58001283Y-117732309D01*
X58001283Y-117732309D02*
X58001283Y-117232309D01*
X58001283Y-117232309D02*
X58239378Y-117232309D01*
X58453664Y-117732309D02*
X58453664Y-117232309D01*
X58453664Y-117232309D02*
X58739378Y-117732309D01*
X58739378Y-117732309D02*
X58739378Y-117232309D01*
X59263188Y-117684690D02*
X59239379Y-117708500D01*
X59239379Y-117708500D02*
X59167950Y-117732309D01*
X59167950Y-117732309D02*
X59120331Y-117732309D01*
X59120331Y-117732309D02*
X59048903Y-117708500D01*
X59048903Y-117708500D02*
X59001284Y-117660880D01*
X59001284Y-117660880D02*
X58977474Y-117613261D01*
X58977474Y-117613261D02*
X58953665Y-117518023D01*
X58953665Y-117518023D02*
X58953665Y-117446595D01*
X58953665Y-117446595D02*
X58977474Y-117351357D01*
X58977474Y-117351357D02*
X59001284Y-117303738D01*
X59001284Y-117303738D02*
X59048903Y-117256119D01*
X59048903Y-117256119D02*
X59120331Y-117232309D01*
X59120331Y-117232309D02*
X59167950Y-117232309D01*
X59167950Y-117232309D02*
X59239379Y-117256119D01*
X59239379Y-117256119D02*
X59263188Y-117279928D01*
X59358427Y-117779928D02*
X59739379Y-117779928D01*
X59834617Y-117589452D02*
X60072712Y-117589452D01*
X59786998Y-117732309D02*
X59953664Y-117232309D01*
X59953664Y-117232309D02*
X60120331Y-117732309D01*
X60929854Y-117256119D02*
X60882235Y-117232309D01*
X60882235Y-117232309D02*
X60810806Y-117232309D01*
X60810806Y-117232309D02*
X60739378Y-117256119D01*
X60739378Y-117256119D02*
X60691759Y-117303738D01*
X60691759Y-117303738D02*
X60667949Y-117351357D01*
X60667949Y-117351357D02*
X60644140Y-117446595D01*
X60644140Y-117446595D02*
X60644140Y-117518023D01*
X60644140Y-117518023D02*
X60667949Y-117613261D01*
X60667949Y-117613261D02*
X60691759Y-117660880D01*
X60691759Y-117660880D02*
X60739378Y-117708500D01*
X60739378Y-117708500D02*
X60810806Y-117732309D01*
X60810806Y-117732309D02*
X60858425Y-117732309D01*
X60858425Y-117732309D02*
X60929854Y-117708500D01*
X60929854Y-117708500D02*
X60953663Y-117684690D01*
X60953663Y-117684690D02*
X60953663Y-117518023D01*
X60953663Y-117518023D02*
X60858425Y-117518023D01*
X61167949Y-117732309D02*
X61167949Y-117232309D01*
X61167949Y-117232309D02*
X61453663Y-117732309D01*
X61453663Y-117732309D02*
X61453663Y-117232309D01*
X61691759Y-117732309D02*
X61691759Y-117232309D01*
X61691759Y-117232309D02*
X61810807Y-117232309D01*
X61810807Y-117232309D02*
X61882235Y-117256119D01*
X61882235Y-117256119D02*
X61929854Y-117303738D01*
X61929854Y-117303738D02*
X61953664Y-117351357D01*
X61953664Y-117351357D02*
X61977473Y-117446595D01*
X61977473Y-117446595D02*
X61977473Y-117518023D01*
X61977473Y-117518023D02*
X61953664Y-117613261D01*
X61953664Y-117613261D02*
X61929854Y-117660880D01*
X61929854Y-117660880D02*
X61882235Y-117708500D01*
X61882235Y-117708500D02*
X61810807Y-117732309D01*
X61810807Y-117732309D02*
X61691759Y-117732309D01*
X62572711Y-117470404D02*
X62739378Y-117470404D01*
X62810806Y-117732309D02*
X62572711Y-117732309D01*
X62572711Y-117732309D02*
X62572711Y-117232309D01*
X62572711Y-117232309D02*
X62810806Y-117232309D01*
X63025092Y-117732309D02*
X63025092Y-117232309D01*
X63025092Y-117232309D02*
X63310806Y-117732309D01*
X63310806Y-117732309D02*
X63310806Y-117232309D01*
X63834616Y-117684690D02*
X63810807Y-117708500D01*
X63810807Y-117708500D02*
X63739378Y-117732309D01*
X63739378Y-117732309D02*
X63691759Y-117732309D01*
X63691759Y-117732309D02*
X63620331Y-117708500D01*
X63620331Y-117708500D02*
X63572712Y-117660880D01*
X63572712Y-117660880D02*
X63548902Y-117613261D01*
X63548902Y-117613261D02*
X63525093Y-117518023D01*
X63525093Y-117518023D02*
X63525093Y-117446595D01*
X63525093Y-117446595D02*
X63548902Y-117351357D01*
X63548902Y-117351357D02*
X63572712Y-117303738D01*
X63572712Y-117303738D02*
X63620331Y-117256119D01*
X63620331Y-117256119D02*
X63691759Y-117232309D01*
X63691759Y-117232309D02*
X63739378Y-117232309D01*
X63739378Y-117232309D02*
X63810807Y-117256119D01*
X63810807Y-117256119D02*
X63834616Y-117279928D01*
X63929855Y-117779928D02*
X64310807Y-117779928D01*
X64596521Y-117470404D02*
X64667949Y-117494214D01*
X64667949Y-117494214D02*
X64691759Y-117518023D01*
X64691759Y-117518023D02*
X64715568Y-117565642D01*
X64715568Y-117565642D02*
X64715568Y-117637071D01*
X64715568Y-117637071D02*
X64691759Y-117684690D01*
X64691759Y-117684690D02*
X64667949Y-117708500D01*
X64667949Y-117708500D02*
X64620330Y-117732309D01*
X64620330Y-117732309D02*
X64429854Y-117732309D01*
X64429854Y-117732309D02*
X64429854Y-117232309D01*
X64429854Y-117232309D02*
X64596521Y-117232309D01*
X64596521Y-117232309D02*
X64644140Y-117256119D01*
X64644140Y-117256119D02*
X64667949Y-117279928D01*
X64667949Y-117279928D02*
X64691759Y-117327547D01*
X64691759Y-117327547D02*
X64691759Y-117375166D01*
X64691759Y-117375166D02*
X64667949Y-117422785D01*
X64667949Y-117422785D02*
X64644140Y-117446595D01*
X64644140Y-117446595D02*
X64596521Y-117470404D01*
X64596521Y-117470404D02*
X64429854Y-117470404D01*
X65477473Y-117470404D02*
X65548901Y-117494214D01*
X65548901Y-117494214D02*
X65572711Y-117518023D01*
X65572711Y-117518023D02*
X65596520Y-117565642D01*
X65596520Y-117565642D02*
X65596520Y-117637071D01*
X65596520Y-117637071D02*
X65572711Y-117684690D01*
X65572711Y-117684690D02*
X65548901Y-117708500D01*
X65548901Y-117708500D02*
X65501282Y-117732309D01*
X65501282Y-117732309D02*
X65310806Y-117732309D01*
X65310806Y-117732309D02*
X65310806Y-117232309D01*
X65310806Y-117232309D02*
X65477473Y-117232309D01*
X65477473Y-117232309D02*
X65525092Y-117256119D01*
X65525092Y-117256119D02*
X65548901Y-117279928D01*
X65548901Y-117279928D02*
X65572711Y-117327547D01*
X65572711Y-117327547D02*
X65572711Y-117375166D01*
X65572711Y-117375166D02*
X65548901Y-117422785D01*
X65548901Y-117422785D02*
X65525092Y-117446595D01*
X65525092Y-117446595D02*
X65477473Y-117470404D01*
X65477473Y-117470404D02*
X65310806Y-117470404D01*
X65739378Y-117232309D02*
X66025092Y-117232309D01*
X65882235Y-117732309D02*
X65882235Y-117232309D01*
X66191758Y-117732309D02*
X66191758Y-117232309D01*
X66191758Y-117232309D02*
X66477472Y-117732309D01*
X66477472Y-117732309D02*
X66477472Y-117232309D01*
X67358425Y-117256119D02*
X67310806Y-117232309D01*
X67310806Y-117232309D02*
X67239377Y-117232309D01*
X67239377Y-117232309D02*
X67167949Y-117256119D01*
X67167949Y-117256119D02*
X67120330Y-117303738D01*
X67120330Y-117303738D02*
X67096520Y-117351357D01*
X67096520Y-117351357D02*
X67072711Y-117446595D01*
X67072711Y-117446595D02*
X67072711Y-117518023D01*
X67072711Y-117518023D02*
X67096520Y-117613261D01*
X67096520Y-117613261D02*
X67120330Y-117660880D01*
X67120330Y-117660880D02*
X67167949Y-117708500D01*
X67167949Y-117708500D02*
X67239377Y-117732309D01*
X67239377Y-117732309D02*
X67286996Y-117732309D01*
X67286996Y-117732309D02*
X67358425Y-117708500D01*
X67358425Y-117708500D02*
X67382234Y-117684690D01*
X67382234Y-117684690D02*
X67382234Y-117518023D01*
X67382234Y-117518023D02*
X67286996Y-117518023D01*
X67596520Y-117732309D02*
X67596520Y-117232309D01*
X67596520Y-117232309D02*
X67882234Y-117732309D01*
X67882234Y-117732309D02*
X67882234Y-117232309D01*
X68120330Y-117732309D02*
X68120330Y-117232309D01*
X68120330Y-117232309D02*
X68239378Y-117232309D01*
X68239378Y-117232309D02*
X68310806Y-117256119D01*
X68310806Y-117256119D02*
X68358425Y-117303738D01*
X68358425Y-117303738D02*
X68382235Y-117351357D01*
X68382235Y-117351357D02*
X68406044Y-117446595D01*
X68406044Y-117446595D02*
X68406044Y-117518023D01*
X68406044Y-117518023D02*
X68382235Y-117613261D01*
X68382235Y-117613261D02*
X68358425Y-117660880D01*
X68358425Y-117660880D02*
X68310806Y-117708500D01*
X68310806Y-117708500D02*
X68239378Y-117732309D01*
X68239378Y-117732309D02*
X68120330Y-117732309D01*
D10*
X89369819Y-78163220D02*
X88369819Y-78163220D01*
X88465057Y-77734649D02*
X88417438Y-77687030D01*
X88417438Y-77687030D02*
X88369819Y-77591792D01*
X88369819Y-77591792D02*
X88369819Y-77353697D01*
X88369819Y-77353697D02*
X88417438Y-77258459D01*
X88417438Y-77258459D02*
X88465057Y-77210840D01*
X88465057Y-77210840D02*
X88560295Y-77163221D01*
X88560295Y-77163221D02*
X88655533Y-77163221D01*
X88655533Y-77163221D02*
X88798390Y-77210840D01*
X88798390Y-77210840D02*
X89369819Y-77782268D01*
X89369819Y-77782268D02*
X89369819Y-77163221D01*
X89274580Y-76163221D02*
X89322200Y-76210840D01*
X89322200Y-76210840D02*
X89369819Y-76353697D01*
X89369819Y-76353697D02*
X89369819Y-76448935D01*
X89369819Y-76448935D02*
X89322200Y-76591792D01*
X89322200Y-76591792D02*
X89226961Y-76687030D01*
X89226961Y-76687030D02*
X89131723Y-76734649D01*
X89131723Y-76734649D02*
X88941247Y-76782268D01*
X88941247Y-76782268D02*
X88798390Y-76782268D01*
X88798390Y-76782268D02*
X88607914Y-76734649D01*
X88607914Y-76734649D02*
X88512676Y-76687030D01*
X88512676Y-76687030D02*
X88417438Y-76591792D01*
X88417438Y-76591792D02*
X88369819Y-76448935D01*
X88369819Y-76448935D02*
X88369819Y-76353697D01*
X88369819Y-76353697D02*
X88417438Y-76210840D01*
X88417438Y-76210840D02*
X88465057Y-76163221D01*
X89369819Y-75210840D02*
X89369819Y-75782268D01*
X89369819Y-75496554D02*
X88369819Y-75496554D01*
X88369819Y-75496554D02*
X88512676Y-75591792D01*
X88512676Y-75591792D02*
X88607914Y-75687030D01*
X88607914Y-75687030D02*
X88655533Y-75782268D01*
X116336779Y-101869819D02*
X116336779Y-100869819D01*
X116336779Y-100869819D02*
X116574874Y-100869819D01*
X116574874Y-100869819D02*
X116717731Y-100917438D01*
X116717731Y-100917438D02*
X116812969Y-101012676D01*
X116812969Y-101012676D02*
X116860588Y-101107914D01*
X116860588Y-101107914D02*
X116908207Y-101298390D01*
X116908207Y-101298390D02*
X116908207Y-101441247D01*
X116908207Y-101441247D02*
X116860588Y-101631723D01*
X116860588Y-101631723D02*
X116812969Y-101726961D01*
X116812969Y-101726961D02*
X116717731Y-101822200D01*
X116717731Y-101822200D02*
X116574874Y-101869819D01*
X116574874Y-101869819D02*
X116336779Y-101869819D01*
X117860588Y-101869819D02*
X117289160Y-101869819D01*
X117574874Y-101869819D02*
X117574874Y-100869819D01*
X117574874Y-100869819D02*
X117479636Y-101012676D01*
X117479636Y-101012676D02*
X117384398Y-101107914D01*
X117384398Y-101107914D02*
X117289160Y-101155533D01*
X118812969Y-101869819D02*
X118241541Y-101869819D01*
X118527255Y-101869819D02*
X118527255Y-100869819D01*
X118527255Y-100869819D02*
X118432017Y-101012676D01*
X118432017Y-101012676D02*
X118336779Y-101107914D01*
X118336779Y-101107914D02*
X118241541Y-101155533D01*
X102336779Y-101869819D02*
X102336779Y-100869819D01*
X102336779Y-100869819D02*
X102574874Y-100869819D01*
X102574874Y-100869819D02*
X102717731Y-100917438D01*
X102717731Y-100917438D02*
X102812969Y-101012676D01*
X102812969Y-101012676D02*
X102860588Y-101107914D01*
X102860588Y-101107914D02*
X102908207Y-101298390D01*
X102908207Y-101298390D02*
X102908207Y-101441247D01*
X102908207Y-101441247D02*
X102860588Y-101631723D01*
X102860588Y-101631723D02*
X102812969Y-101726961D01*
X102812969Y-101726961D02*
X102717731Y-101822200D01*
X102717731Y-101822200D02*
X102574874Y-101869819D01*
X102574874Y-101869819D02*
X102336779Y-101869819D01*
X103860588Y-101869819D02*
X103289160Y-101869819D01*
X103574874Y-101869819D02*
X103574874Y-100869819D01*
X103574874Y-100869819D02*
X103479636Y-101012676D01*
X103479636Y-101012676D02*
X103384398Y-101107914D01*
X103384398Y-101107914D02*
X103289160Y-101155533D01*
X104241541Y-100965057D02*
X104289160Y-100917438D01*
X104289160Y-100917438D02*
X104384398Y-100869819D01*
X104384398Y-100869819D02*
X104622493Y-100869819D01*
X104622493Y-100869819D02*
X104717731Y-100917438D01*
X104717731Y-100917438D02*
X104765350Y-100965057D01*
X104765350Y-100965057D02*
X104812969Y-101060295D01*
X104812969Y-101060295D02*
X104812969Y-101155533D01*
X104812969Y-101155533D02*
X104765350Y-101298390D01*
X104765350Y-101298390D02*
X104193922Y-101869819D01*
X104193922Y-101869819D02*
X104812969Y-101869819D01*
X116336779Y-81869819D02*
X116336779Y-80869819D01*
X116336779Y-80869819D02*
X116574874Y-80869819D01*
X116574874Y-80869819D02*
X116717731Y-80917438D01*
X116717731Y-80917438D02*
X116812969Y-81012676D01*
X116812969Y-81012676D02*
X116860588Y-81107914D01*
X116860588Y-81107914D02*
X116908207Y-81298390D01*
X116908207Y-81298390D02*
X116908207Y-81441247D01*
X116908207Y-81441247D02*
X116860588Y-81631723D01*
X116860588Y-81631723D02*
X116812969Y-81726961D01*
X116812969Y-81726961D02*
X116717731Y-81822200D01*
X116717731Y-81822200D02*
X116574874Y-81869819D01*
X116574874Y-81869819D02*
X116336779Y-81869819D01*
X117860588Y-81869819D02*
X117289160Y-81869819D01*
X117574874Y-81869819D02*
X117574874Y-80869819D01*
X117574874Y-80869819D02*
X117479636Y-81012676D01*
X117479636Y-81012676D02*
X117384398Y-81107914D01*
X117384398Y-81107914D02*
X117289160Y-81155533D01*
X118193922Y-80869819D02*
X118812969Y-80869819D01*
X118812969Y-80869819D02*
X118479636Y-81250771D01*
X118479636Y-81250771D02*
X118622493Y-81250771D01*
X118622493Y-81250771D02*
X118717731Y-81298390D01*
X118717731Y-81298390D02*
X118765350Y-81346009D01*
X118765350Y-81346009D02*
X118812969Y-81441247D01*
X118812969Y-81441247D02*
X118812969Y-81679342D01*
X118812969Y-81679342D02*
X118765350Y-81774580D01*
X118765350Y-81774580D02*
X118717731Y-81822200D01*
X118717731Y-81822200D02*
X118622493Y-81869819D01*
X118622493Y-81869819D02*
X118336779Y-81869819D01*
X118336779Y-81869819D02*
X118241541Y-81822200D01*
X118241541Y-81822200D02*
X118193922Y-81774580D01*
X100336779Y-81869819D02*
X100336779Y-80869819D01*
X100336779Y-80869819D02*
X100717731Y-80869819D01*
X100717731Y-80869819D02*
X100812969Y-80917438D01*
X100812969Y-80917438D02*
X100860588Y-80965057D01*
X100860588Y-80965057D02*
X100908207Y-81060295D01*
X100908207Y-81060295D02*
X100908207Y-81203152D01*
X100908207Y-81203152D02*
X100860588Y-81298390D01*
X100860588Y-81298390D02*
X100812969Y-81346009D01*
X100812969Y-81346009D02*
X100717731Y-81393628D01*
X100717731Y-81393628D02*
X100336779Y-81393628D01*
X101908207Y-81869819D02*
X101574874Y-81393628D01*
X101336779Y-81869819D02*
X101336779Y-80869819D01*
X101336779Y-80869819D02*
X101717731Y-80869819D01*
X101717731Y-80869819D02*
X101812969Y-80917438D01*
X101812969Y-80917438D02*
X101860588Y-80965057D01*
X101860588Y-80965057D02*
X101908207Y-81060295D01*
X101908207Y-81060295D02*
X101908207Y-81203152D01*
X101908207Y-81203152D02*
X101860588Y-81298390D01*
X101860588Y-81298390D02*
X101812969Y-81346009D01*
X101812969Y-81346009D02*
X101717731Y-81393628D01*
X101717731Y-81393628D02*
X101336779Y-81393628D01*
X102527255Y-80869819D02*
X102717731Y-80869819D01*
X102717731Y-80869819D02*
X102812969Y-80917438D01*
X102812969Y-80917438D02*
X102908207Y-81012676D01*
X102908207Y-81012676D02*
X102955826Y-81203152D01*
X102955826Y-81203152D02*
X102955826Y-81536485D01*
X102955826Y-81536485D02*
X102908207Y-81726961D01*
X102908207Y-81726961D02*
X102812969Y-81822200D01*
X102812969Y-81822200D02*
X102717731Y-81869819D01*
X102717731Y-81869819D02*
X102527255Y-81869819D01*
X102527255Y-81869819D02*
X102432017Y-81822200D01*
X102432017Y-81822200D02*
X102336779Y-81726961D01*
X102336779Y-81726961D02*
X102289160Y-81536485D01*
X102289160Y-81536485D02*
X102289160Y-81203152D01*
X102289160Y-81203152D02*
X102336779Y-81012676D01*
X102336779Y-81012676D02*
X102432017Y-80917438D01*
X102432017Y-80917438D02*
X102527255Y-80869819D01*
X103908207Y-80917438D02*
X103812969Y-80869819D01*
X103812969Y-80869819D02*
X103670112Y-80869819D01*
X103670112Y-80869819D02*
X103527255Y-80917438D01*
X103527255Y-80917438D02*
X103432017Y-81012676D01*
X103432017Y-81012676D02*
X103384398Y-81107914D01*
X103384398Y-81107914D02*
X103336779Y-81298390D01*
X103336779Y-81298390D02*
X103336779Y-81441247D01*
X103336779Y-81441247D02*
X103384398Y-81631723D01*
X103384398Y-81631723D02*
X103432017Y-81726961D01*
X103432017Y-81726961D02*
X103527255Y-81822200D01*
X103527255Y-81822200D02*
X103670112Y-81869819D01*
X103670112Y-81869819D02*
X103765350Y-81869819D01*
X103765350Y-81869819D02*
X103908207Y-81822200D01*
X103908207Y-81822200D02*
X103955826Y-81774580D01*
X103955826Y-81774580D02*
X103955826Y-81441247D01*
X103955826Y-81441247D02*
X103765350Y-81441247D01*
X104955826Y-81869819D02*
X104622493Y-81393628D01*
X104384398Y-81869819D02*
X104384398Y-80869819D01*
X104384398Y-80869819D02*
X104765350Y-80869819D01*
X104765350Y-80869819D02*
X104860588Y-80917438D01*
X104860588Y-80917438D02*
X104908207Y-80965057D01*
X104908207Y-80965057D02*
X104955826Y-81060295D01*
X104955826Y-81060295D02*
X104955826Y-81203152D01*
X104955826Y-81203152D02*
X104908207Y-81298390D01*
X104908207Y-81298390D02*
X104860588Y-81346009D01*
X104860588Y-81346009D02*
X104765350Y-81393628D01*
X104765350Y-81393628D02*
X104384398Y-81393628D01*
X105336779Y-81584104D02*
X105812969Y-81584104D01*
X105241541Y-81869819D02*
X105574874Y-80869819D01*
X105574874Y-80869819D02*
X105908207Y-81869819D01*
X106241541Y-81869819D02*
X106241541Y-80869819D01*
X106241541Y-80869819D02*
X106574874Y-81584104D01*
X106574874Y-81584104D02*
X106908207Y-80869819D01*
X106908207Y-80869819D02*
X106908207Y-81869819D01*
X123289160Y-71584104D02*
X123765350Y-71584104D01*
X123193922Y-71869819D02*
X123527255Y-70869819D01*
X123527255Y-70869819D02*
X123860588Y-71869819D01*
X124384398Y-70869819D02*
X124479636Y-70869819D01*
X124479636Y-70869819D02*
X124574874Y-70917438D01*
X124574874Y-70917438D02*
X124622493Y-70965057D01*
X124622493Y-70965057D02*
X124670112Y-71060295D01*
X124670112Y-71060295D02*
X124717731Y-71250771D01*
X124717731Y-71250771D02*
X124717731Y-71488866D01*
X124717731Y-71488866D02*
X124670112Y-71679342D01*
X124670112Y-71679342D02*
X124622493Y-71774580D01*
X124622493Y-71774580D02*
X124574874Y-71822200D01*
X124574874Y-71822200D02*
X124479636Y-71869819D01*
X124479636Y-71869819D02*
X124384398Y-71869819D01*
X124384398Y-71869819D02*
X124289160Y-71822200D01*
X124289160Y-71822200D02*
X124241541Y-71774580D01*
X124241541Y-71774580D02*
X124193922Y-71679342D01*
X124193922Y-71679342D02*
X124146303Y-71488866D01*
X124146303Y-71488866D02*
X124146303Y-71250771D01*
X124146303Y-71250771D02*
X124193922Y-71060295D01*
X124193922Y-71060295D02*
X124241541Y-70965057D01*
X124241541Y-70965057D02*
X124289160Y-70917438D01*
X124289160Y-70917438D02*
X124384398Y-70869819D01*
X113289160Y-71584104D02*
X113765350Y-71584104D01*
X113193922Y-71869819D02*
X113527255Y-70869819D01*
X113527255Y-70869819D02*
X113860588Y-71869819D01*
X114717731Y-71869819D02*
X114146303Y-71869819D01*
X114432017Y-71869819D02*
X114432017Y-70869819D01*
X114432017Y-70869819D02*
X114336779Y-71012676D01*
X114336779Y-71012676D02*
X114241541Y-71107914D01*
X114241541Y-71107914D02*
X114146303Y-71155533D01*
X103289160Y-71584104D02*
X103765350Y-71584104D01*
X103193922Y-71869819D02*
X103527255Y-70869819D01*
X103527255Y-70869819D02*
X103860588Y-71869819D01*
X104622493Y-71203152D02*
X104622493Y-71869819D01*
X104384398Y-70822200D02*
X104146303Y-71536485D01*
X104146303Y-71536485D02*
X104765350Y-71536485D01*
X93289160Y-71584104D02*
X93765350Y-71584104D01*
X93193922Y-71869819D02*
X93527255Y-70869819D01*
X93527255Y-70869819D02*
X93860588Y-71869819D01*
X94670112Y-70869819D02*
X94193922Y-70869819D01*
X94193922Y-70869819D02*
X94146303Y-71346009D01*
X94146303Y-71346009D02*
X94193922Y-71298390D01*
X94193922Y-71298390D02*
X94289160Y-71250771D01*
X94289160Y-71250771D02*
X94527255Y-71250771D01*
X94527255Y-71250771D02*
X94622493Y-71298390D01*
X94622493Y-71298390D02*
X94670112Y-71346009D01*
X94670112Y-71346009D02*
X94717731Y-71441247D01*
X94717731Y-71441247D02*
X94717731Y-71679342D01*
X94717731Y-71679342D02*
X94670112Y-71774580D01*
X94670112Y-71774580D02*
X94622493Y-71822200D01*
X94622493Y-71822200D02*
X94527255Y-71869819D01*
X94527255Y-71869819D02*
X94289160Y-71869819D01*
X94289160Y-71869819D02*
X94193922Y-71822200D01*
X94193922Y-71822200D02*
X94146303Y-71774580D01*
X83289160Y-71584104D02*
X83765350Y-71584104D01*
X83193922Y-71869819D02*
X83527255Y-70869819D01*
X83527255Y-70869819D02*
X83860588Y-71869819D01*
X84622493Y-70869819D02*
X84432017Y-70869819D01*
X84432017Y-70869819D02*
X84336779Y-70917438D01*
X84336779Y-70917438D02*
X84289160Y-70965057D01*
X84289160Y-70965057D02*
X84193922Y-71107914D01*
X84193922Y-71107914D02*
X84146303Y-71298390D01*
X84146303Y-71298390D02*
X84146303Y-71679342D01*
X84146303Y-71679342D02*
X84193922Y-71774580D01*
X84193922Y-71774580D02*
X84241541Y-71822200D01*
X84241541Y-71822200D02*
X84336779Y-71869819D01*
X84336779Y-71869819D02*
X84527255Y-71869819D01*
X84527255Y-71869819D02*
X84622493Y-71822200D01*
X84622493Y-71822200D02*
X84670112Y-71774580D01*
X84670112Y-71774580D02*
X84717731Y-71679342D01*
X84717731Y-71679342D02*
X84717731Y-71441247D01*
X84717731Y-71441247D02*
X84670112Y-71346009D01*
X84670112Y-71346009D02*
X84622493Y-71298390D01*
X84622493Y-71298390D02*
X84527255Y-71250771D01*
X84527255Y-71250771D02*
X84336779Y-71250771D01*
X84336779Y-71250771D02*
X84241541Y-71298390D01*
X84241541Y-71298390D02*
X84193922Y-71346009D01*
X84193922Y-71346009D02*
X84146303Y-71441247D01*
X73289160Y-71584104D02*
X73765350Y-71584104D01*
X73193922Y-71869819D02*
X73527255Y-70869819D01*
X73527255Y-70869819D02*
X73860588Y-71869819D01*
X74098684Y-70869819D02*
X74765350Y-70869819D01*
X74765350Y-70869819D02*
X74336779Y-71869819D01*
X63289160Y-71584104D02*
X63765350Y-71584104D01*
X63193922Y-71869819D02*
X63527255Y-70869819D01*
X63527255Y-70869819D02*
X63860588Y-71869819D01*
X64336779Y-71298390D02*
X64241541Y-71250771D01*
X64241541Y-71250771D02*
X64193922Y-71203152D01*
X64193922Y-71203152D02*
X64146303Y-71107914D01*
X64146303Y-71107914D02*
X64146303Y-71060295D01*
X64146303Y-71060295D02*
X64193922Y-70965057D01*
X64193922Y-70965057D02*
X64241541Y-70917438D01*
X64241541Y-70917438D02*
X64336779Y-70869819D01*
X64336779Y-70869819D02*
X64527255Y-70869819D01*
X64527255Y-70869819D02*
X64622493Y-70917438D01*
X64622493Y-70917438D02*
X64670112Y-70965057D01*
X64670112Y-70965057D02*
X64717731Y-71060295D01*
X64717731Y-71060295D02*
X64717731Y-71107914D01*
X64717731Y-71107914D02*
X64670112Y-71203152D01*
X64670112Y-71203152D02*
X64622493Y-71250771D01*
X64622493Y-71250771D02*
X64527255Y-71298390D01*
X64527255Y-71298390D02*
X64336779Y-71298390D01*
X64336779Y-71298390D02*
X64241541Y-71346009D01*
X64241541Y-71346009D02*
X64193922Y-71393628D01*
X64193922Y-71393628D02*
X64146303Y-71488866D01*
X64146303Y-71488866D02*
X64146303Y-71679342D01*
X64146303Y-71679342D02*
X64193922Y-71774580D01*
X64193922Y-71774580D02*
X64241541Y-71822200D01*
X64241541Y-71822200D02*
X64336779Y-71869819D01*
X64336779Y-71869819D02*
X64527255Y-71869819D01*
X64527255Y-71869819D02*
X64622493Y-71822200D01*
X64622493Y-71822200D02*
X64670112Y-71774580D01*
X64670112Y-71774580D02*
X64717731Y-71679342D01*
X64717731Y-71679342D02*
X64717731Y-71488866D01*
X64717731Y-71488866D02*
X64670112Y-71393628D01*
X64670112Y-71393628D02*
X64622493Y-71346009D01*
X64622493Y-71346009D02*
X64527255Y-71298390D01*
X53289160Y-71584104D02*
X53765350Y-71584104D01*
X53193922Y-71869819D02*
X53527255Y-70869819D01*
X53527255Y-70869819D02*
X53860588Y-71869819D01*
X54241541Y-71869819D02*
X54432017Y-71869819D01*
X54432017Y-71869819D02*
X54527255Y-71822200D01*
X54527255Y-71822200D02*
X54574874Y-71774580D01*
X54574874Y-71774580D02*
X54670112Y-71631723D01*
X54670112Y-71631723D02*
X54717731Y-71441247D01*
X54717731Y-71441247D02*
X54717731Y-71060295D01*
X54717731Y-71060295D02*
X54670112Y-70965057D01*
X54670112Y-70965057D02*
X54622493Y-70917438D01*
X54622493Y-70917438D02*
X54527255Y-70869819D01*
X54527255Y-70869819D02*
X54336779Y-70869819D01*
X54336779Y-70869819D02*
X54241541Y-70917438D01*
X54241541Y-70917438D02*
X54193922Y-70965057D01*
X54193922Y-70965057D02*
X54146303Y-71060295D01*
X54146303Y-71060295D02*
X54146303Y-71298390D01*
X54146303Y-71298390D02*
X54193922Y-71393628D01*
X54193922Y-71393628D02*
X54241541Y-71441247D01*
X54241541Y-71441247D02*
X54336779Y-71488866D01*
X54336779Y-71488866D02*
X54527255Y-71488866D01*
X54527255Y-71488866D02*
X54622493Y-71441247D01*
X54622493Y-71441247D02*
X54670112Y-71393628D01*
X54670112Y-71393628D02*
X54717731Y-71298390D01*
D12*
%TO.C,SW101*%
X56165000Y-109140000D02*
X70335000Y-109140000D01*
X70335000Y-114360000D02*
X68010000Y-114360000D01*
X70335000Y-109140000D02*
X70335000Y-109990000D01*
X56165000Y-109990000D02*
X56165000Y-109140000D01*
X56165000Y-113510000D02*
X56165000Y-114360000D01*
X70335000Y-113510000D02*
X70335000Y-114360000D01*
X58490000Y-114360000D02*
X58490000Y-116750000D01*
X56165000Y-114360000D02*
X58490000Y-114360000D01*
%TO.C,SW105*%
X103860000Y-89260000D02*
X106250000Y-89260000D01*
X103010000Y-91585000D02*
X103860000Y-91585000D01*
X99490000Y-91585000D02*
X98640000Y-91585000D01*
X98640000Y-91585000D02*
X98640000Y-83415000D01*
X103010000Y-83415000D02*
X103860000Y-83415000D01*
X98640000Y-83415000D02*
X99490000Y-83415000D01*
X103860000Y-83415000D02*
X103860000Y-85740000D01*
X103860000Y-91585000D02*
X103860000Y-89260000D01*
%TO.C,SW104*%
X117860000Y-99010000D02*
X120250000Y-99010000D01*
X117010000Y-101335000D02*
X117860000Y-101335000D01*
X113490000Y-101335000D02*
X112640000Y-101335000D01*
X112640000Y-101335000D02*
X112640000Y-93165000D01*
X117010000Y-93165000D02*
X117860000Y-93165000D01*
X112640000Y-93165000D02*
X113490000Y-93165000D01*
X117860000Y-93165000D02*
X117860000Y-95490000D01*
X117860000Y-101335000D02*
X117860000Y-99010000D01*
%TO.C,SW103*%
X103860000Y-99010000D02*
X106250000Y-99010000D01*
X103010000Y-101335000D02*
X103860000Y-101335000D01*
X99490000Y-101335000D02*
X98640000Y-101335000D01*
X98640000Y-101335000D02*
X98640000Y-93165000D01*
X103010000Y-93165000D02*
X103860000Y-93165000D01*
X98640000Y-93165000D02*
X99490000Y-93165000D01*
X103860000Y-93165000D02*
X103860000Y-95490000D01*
X103860000Y-101335000D02*
X103860000Y-99010000D01*
%TO.C,SW102*%
X117835000Y-89260000D02*
X120225000Y-89260000D01*
X116985000Y-91585000D02*
X117835000Y-91585000D01*
X113465000Y-91585000D02*
X112615000Y-91585000D01*
X112615000Y-91585000D02*
X112615000Y-83415000D01*
X116985000Y-83415000D02*
X117835000Y-83415000D01*
X112615000Y-83415000D02*
X113465000Y-83415000D01*
X117835000Y-83415000D02*
X117835000Y-85740000D01*
X117835000Y-91585000D02*
X117835000Y-89260000D01*
%TO.C,RV901*%
X84490000Y-69085000D02*
X83640000Y-69085000D01*
X84490000Y-58915000D02*
X83640000Y-58915000D01*
X83640000Y-69085000D02*
X83640000Y-66760000D01*
X83640000Y-61240000D02*
X81250000Y-61240000D01*
X88010000Y-58915000D02*
X88860000Y-58915000D01*
X83640000Y-58915000D02*
X83640000Y-61240000D01*
X88860000Y-58915000D02*
X88860000Y-69085000D01*
X88860000Y-69085000D02*
X88010000Y-69085000D01*
%TO.C,RV801*%
X74490000Y-69085000D02*
X73640000Y-69085000D01*
X74490000Y-58915000D02*
X73640000Y-58915000D01*
X73640000Y-69085000D02*
X73640000Y-66760000D01*
X73640000Y-61240000D02*
X71250000Y-61240000D01*
X78010000Y-58915000D02*
X78860000Y-58915000D01*
X73640000Y-58915000D02*
X73640000Y-61240000D01*
X78860000Y-58915000D02*
X78860000Y-69085000D01*
X78860000Y-69085000D02*
X78010000Y-69085000D01*
%TO.C,RV701*%
X94490000Y-69085000D02*
X93640000Y-69085000D01*
X94490000Y-58915000D02*
X93640000Y-58915000D01*
X93640000Y-69085000D02*
X93640000Y-66760000D01*
X93640000Y-61240000D02*
X91250000Y-61240000D01*
X98010000Y-58915000D02*
X98860000Y-58915000D01*
X93640000Y-58915000D02*
X93640000Y-61240000D01*
X98860000Y-58915000D02*
X98860000Y-69085000D01*
X98860000Y-69085000D02*
X98010000Y-69085000D01*
%TO.C,RV601*%
X104490000Y-69085000D02*
X103640000Y-69085000D01*
X104490000Y-58915000D02*
X103640000Y-58915000D01*
X103640000Y-69085000D02*
X103640000Y-66760000D01*
X103640000Y-61240000D02*
X101250000Y-61240000D01*
X108010000Y-58915000D02*
X108860000Y-58915000D01*
X103640000Y-58915000D02*
X103640000Y-61240000D01*
X108860000Y-58915000D02*
X108860000Y-69085000D01*
X108860000Y-69085000D02*
X108010000Y-69085000D01*
%TO.C,RV501*%
X54490000Y-69085000D02*
X53640000Y-69085000D01*
X54490000Y-58915000D02*
X53640000Y-58915000D01*
X53640000Y-69085000D02*
X53640000Y-66760000D01*
X53640000Y-61240000D02*
X51250000Y-61240000D01*
X58010000Y-58915000D02*
X58860000Y-58915000D01*
X53640000Y-58915000D02*
X53640000Y-61240000D01*
X58860000Y-58915000D02*
X58860000Y-69085000D01*
X58860000Y-69085000D02*
X58010000Y-69085000D01*
%TO.C,RV401*%
X64490000Y-69085000D02*
X63640000Y-69085000D01*
X64490000Y-58915000D02*
X63640000Y-58915000D01*
X63640000Y-69085000D02*
X63640000Y-66760000D01*
X63640000Y-61240000D02*
X61250000Y-61240000D01*
X68010000Y-58915000D02*
X68860000Y-58915000D01*
X63640000Y-58915000D02*
X63640000Y-61240000D01*
X68860000Y-58915000D02*
X68860000Y-69085000D01*
X68860000Y-69085000D02*
X68010000Y-69085000D01*
%TO.C,RV301*%
X114490000Y-69085000D02*
X113640000Y-69085000D01*
X114490000Y-58915000D02*
X113640000Y-58915000D01*
X113640000Y-69085000D02*
X113640000Y-66760000D01*
X113640000Y-61240000D02*
X111250000Y-61240000D01*
X118010000Y-58915000D02*
X118860000Y-58915000D01*
X113640000Y-58915000D02*
X113640000Y-61240000D01*
X118860000Y-58915000D02*
X118860000Y-69085000D01*
X118860000Y-69085000D02*
X118010000Y-69085000D01*
%TO.C,RV201*%
X124490000Y-69085000D02*
X123640000Y-69085000D01*
X124490000Y-58915000D02*
X123640000Y-58915000D01*
X123640000Y-69085000D02*
X123640000Y-66760000D01*
X123640000Y-61240000D02*
X121250000Y-61240000D01*
X128010000Y-58915000D02*
X128860000Y-58915000D01*
X123640000Y-58915000D02*
X123640000Y-61240000D01*
X128860000Y-58915000D02*
X128860000Y-69085000D01*
X128860000Y-69085000D02*
X128010000Y-69085000D01*
%TO.C,U101*%
D13*
X72857000Y-93415000D02*
X72603000Y-93669000D01*
X72349000Y-93288000D01*
X72603000Y-93034000D01*
X72857000Y-93415000D01*
G36*
X72857000Y-93415000D02*
G01*
X72603000Y-93669000D01*
X72349000Y-93288000D01*
X72603000Y-93034000D01*
X72857000Y-93415000D01*
G37*
X72476000Y-92907000D02*
X72222000Y-93161000D01*
X71968000Y-92780000D01*
X72222000Y-92526000D01*
X72476000Y-92907000D01*
G36*
X72476000Y-92907000D02*
G01*
X72222000Y-93161000D01*
X71968000Y-92780000D01*
X72222000Y-92526000D01*
X72476000Y-92907000D01*
G37*
X72095000Y-93288000D02*
X71841000Y-93542000D01*
X71587000Y-93161000D01*
X71841000Y-92907000D01*
X72095000Y-93288000D01*
G36*
X72095000Y-93288000D02*
G01*
X71841000Y-93542000D01*
X71587000Y-93161000D01*
X71841000Y-92907000D01*
X72095000Y-93288000D01*
G37*
X72095000Y-92399000D02*
X71841000Y-92653000D01*
X71587000Y-92272000D01*
X71841000Y-92018000D01*
X72095000Y-92399000D01*
G36*
X72095000Y-92399000D02*
G01*
X71841000Y-92653000D01*
X71587000Y-92272000D01*
X71841000Y-92018000D01*
X72095000Y-92399000D01*
G37*
X71714000Y-92780000D02*
X71460000Y-93034000D01*
X71206000Y-92653000D01*
X71460000Y-92399000D01*
X71714000Y-92780000D01*
G36*
X71714000Y-92780000D02*
G01*
X71460000Y-93034000D01*
X71206000Y-92653000D01*
X71460000Y-92399000D01*
X71714000Y-92780000D01*
G37*
X71333000Y-92272000D02*
X71079000Y-92526000D01*
X70825000Y-92145000D01*
X71079000Y-91891000D01*
X71333000Y-92272000D01*
G36*
X71333000Y-92272000D02*
G01*
X71079000Y-92526000D01*
X70825000Y-92145000D01*
X71079000Y-91891000D01*
X71333000Y-92272000D01*
G37*
X70952000Y-92653000D02*
X70698000Y-92907000D01*
X70444000Y-92526000D01*
X70698000Y-92272000D01*
X70952000Y-92653000D01*
G36*
X70952000Y-92653000D02*
G01*
X70698000Y-92907000D01*
X70444000Y-92526000D01*
X70698000Y-92272000D01*
X70952000Y-92653000D01*
G37*
X70571000Y-93034000D02*
X70317000Y-93288000D01*
X70063000Y-92907000D01*
X70317000Y-92653000D01*
X70571000Y-93034000D01*
G36*
X70571000Y-93034000D02*
G01*
X70317000Y-93288000D01*
X70063000Y-92907000D01*
X70317000Y-92653000D01*
X70571000Y-93034000D01*
G37*
D10*
X91780000Y-101670000D02*
X56220000Y-101670000D01*
X91780000Y-83890000D02*
X91780000Y-101670000D01*
X88732000Y-94050000D02*
X84160000Y-94050000D01*
X88732000Y-91510000D02*
X88732000Y-94050000D01*
X84160000Y-94050000D02*
X84160000Y-91510000D01*
X84160000Y-91510000D02*
X88732000Y-91510000D01*
X81620000Y-90875000D02*
X79080000Y-90875000D01*
X81620000Y-87700000D02*
X81620000Y-90875000D01*
X79080000Y-90875000D02*
X79080000Y-87700000D01*
X79080000Y-87700000D02*
X81620000Y-87700000D01*
X78445000Y-97860000D02*
X78445000Y-87700000D01*
X78445000Y-97860000D02*
X68285000Y-97860000D01*
X78445000Y-87700000D02*
X68285000Y-87700000D01*
X68285000Y-87700000D02*
X68285000Y-97860000D01*
X61300000Y-96590000D02*
X61300000Y-88970000D01*
X61300000Y-96590000D02*
X56220000Y-96590000D01*
X61300000Y-88970000D02*
X56220000Y-88970000D01*
X56220000Y-101670000D02*
X56220000Y-83890000D01*
X56220000Y-96590000D02*
X54950000Y-96590000D01*
X56220000Y-83890000D02*
X91780000Y-83890000D01*
X54950000Y-96590000D02*
X54950000Y-88970000D01*
X54950000Y-88970000D02*
X56220000Y-88970000D01*
D12*
%TO.C,R201*%
X129037258Y-72722500D02*
X128562742Y-72722500D01*
X129037258Y-71677500D02*
X128562742Y-71677500D01*
%TO.C,R601*%
X109037258Y-72522500D02*
X108562742Y-72522500D01*
X109037258Y-71477500D02*
X108562742Y-71477500D01*
%TO.C,R901*%
X77237258Y-72522500D02*
X76762742Y-72522500D01*
X77237258Y-71477500D02*
X76762742Y-71477500D01*
%TO.C,R301*%
X118837258Y-72522500D02*
X118362742Y-72522500D01*
X118837258Y-71477500D02*
X118362742Y-71477500D01*
%TO.C,R701*%
X99237258Y-72522500D02*
X98762742Y-72522500D01*
X99237258Y-71477500D02*
X98762742Y-71477500D01*
%TO.C,R501*%
X59637258Y-72672500D02*
X59162742Y-72672500D01*
X59637258Y-71627500D02*
X59162742Y-71627500D01*
%TO.C,R801*%
X72437258Y-72722500D02*
X71962742Y-72722500D01*
X72437258Y-71677500D02*
X71962742Y-71677500D01*
%TO.C,R401*%
X68837258Y-72672500D02*
X68362742Y-72672500D01*
X68837258Y-71627500D02*
X68362742Y-71627500D01*
%TO.C,C901*%
X77140580Y-70960000D02*
X76859420Y-70960000D01*
X77140580Y-69940000D02*
X76859420Y-69940000D01*
%TO.C,C201*%
X128940580Y-71160000D02*
X128659420Y-71160000D01*
X128940580Y-70140000D02*
X128659420Y-70140000D01*
%TO.C,C401*%
X68740580Y-71110000D02*
X68459420Y-71110000D01*
X68740580Y-70090000D02*
X68459420Y-70090000D01*
%TO.C,C301*%
X118740580Y-70960000D02*
X118459420Y-70960000D01*
X118740580Y-69940000D02*
X118459420Y-69940000D01*
%TO.C,C801*%
X72340580Y-71160000D02*
X72059420Y-71160000D01*
X72340580Y-70140000D02*
X72059420Y-70140000D01*
%TO.C,C601*%
X108940580Y-70960000D02*
X108659420Y-70960000D01*
X108940580Y-69940000D02*
X108659420Y-69940000D01*
%TO.C,C501*%
X59540580Y-71110000D02*
X59259420Y-71110000D01*
X59540580Y-70090000D02*
X59259420Y-70090000D01*
%TO.C,C701*%
X99140580Y-70960000D02*
X98859420Y-70960000D01*
X99140580Y-69940000D02*
X98859420Y-69940000D01*
%TO.C,J101*%
X85535000Y-74440000D02*
X86525000Y-74440000D01*
X85535000Y-79610000D02*
X85535000Y-78560000D01*
X85535000Y-73390000D02*
X85535000Y-74440000D01*
X83035000Y-79610000D02*
X85535000Y-79610000D01*
X83035000Y-73390000D02*
X85535000Y-73390000D01*
X81065000Y-74560000D02*
X81065000Y-78440000D01*
%TO.C,J102*%
X96685000Y-78440000D02*
X96685000Y-74560000D01*
X94715000Y-79610000D02*
X92215000Y-79610000D01*
X94715000Y-73390000D02*
X92215000Y-73390000D01*
X92215000Y-79610000D02*
X92215000Y-78560000D01*
X92215000Y-73390000D02*
X92215000Y-74440000D01*
X92215000Y-78560000D02*
X91225000Y-78560000D01*
D14*
%TO.C,CO101*%
X120255000Y-125135340D02*
X103745000Y-125135340D01*
X120255000Y-116305340D02*
X120255000Y-125135340D01*
X120255000Y-107865340D02*
X120255000Y-113140340D01*
X103745000Y-125135340D02*
X103745000Y-116305340D01*
X103745000Y-113140340D02*
X103745000Y-107865340D01*
X103745000Y-107865340D02*
X120255000Y-107865340D01*
%TO.C,CO102*%
X95255000Y-125135340D02*
X78745000Y-125135340D01*
X95255000Y-116305340D02*
X95255000Y-125135340D01*
X95255000Y-107865340D02*
X95255000Y-113140340D01*
X78745000Y-125135340D02*
X78745000Y-116305340D01*
X78745000Y-113140340D02*
X78745000Y-107865340D01*
X78745000Y-107865340D02*
X95255000Y-107865340D01*
%TD*%
M02*
