%TF.GenerationSoftware,KiCad,Pcbnew,7.0.7-7.0.7~ubuntu20.04.1*%
%TF.CreationDate,2023-09-06T17:53:36-07:00*%
%TF.ProjectId,teensy-control-panel,7465656e-7379-42d6-936f-6e74726f6c2d,rev?*%
%TF.SameCoordinates,Original*%
%TF.FileFunction,Copper,L1,Top*%
%TF.FilePolarity,Positive*%
%FSLAX46Y46*%
G04 Gerber Fmt 4.6, Leading zero omitted, Abs format (unit mm)*
G04 Created by KiCad (PCBNEW 7.0.7-7.0.7~ubuntu20.04.1) date 2023-09-06 17:53:36*
%MOMM*%
%LPD*%
G01*
G04 APERTURE LIST*
G04 Aperture macros list*
%AMRoundRect*
0 Rectangle with rounded corners*
0 $1 Rounding radius*
0 $2 $3 $4 $5 $6 $7 $8 $9 X,Y pos of 4 corners*
0 Add a 4 corners polygon primitive as box body*
4,1,4,$2,$3,$4,$5,$6,$7,$8,$9,$2,$3,0*
0 Add four circle primitives for the rounded corners*
1,1,$1+$1,$2,$3*
1,1,$1+$1,$4,$5*
1,1,$1+$1,$6,$7*
1,1,$1+$1,$8,$9*
0 Add four rect primitives between the rounded corners*
20,1,$1+$1,$2,$3,$4,$5,0*
20,1,$1+$1,$4,$5,$6,$7,0*
20,1,$1+$1,$6,$7,$8,$9,0*
20,1,$1+$1,$8,$9,$2,$3,0*%
G04 Aperture macros list end*
%TA.AperFunction,SMDPad,CuDef*%
%ADD10RoundRect,0.250000X-0.550000X-1.250000X0.550000X-1.250000X0.550000X1.250000X-0.550000X1.250000X0*%
%TD*%
%TA.AperFunction,SMDPad,CuDef*%
%ADD11RoundRect,0.250000X-0.250000X-2.500000X0.250000X-2.500000X0.250000X2.500000X-0.250000X2.500000X0*%
%TD*%
%TA.AperFunction,SMDPad,CuDef*%
%ADD12RoundRect,0.250000X1.250000X-0.550000X1.250000X0.550000X-1.250000X0.550000X-1.250000X-0.550000X0*%
%TD*%
%TA.AperFunction,SMDPad,CuDef*%
%ADD13RoundRect,0.250000X2.500000X-0.250000X2.500000X0.250000X-2.500000X0.250000X-2.500000X-0.250000X0*%
%TD*%
%TA.AperFunction,SMDPad,CuDef*%
%ADD14RoundRect,0.250000X-1.250000X0.550000X-1.250000X-0.550000X1.250000X-0.550000X1.250000X0.550000X0*%
%TD*%
%TA.AperFunction,SMDPad,CuDef*%
%ADD15RoundRect,0.250000X-2.500000X0.250000X-2.500000X-0.250000X2.500000X-0.250000X2.500000X0.250000X0*%
%TD*%
%TA.AperFunction,ComponentPad*%
%ADD16C,1.600000*%
%TD*%
%TA.AperFunction,SMDPad,CuDef*%
%ADD17RoundRect,0.200000X0.200000X0.275000X-0.200000X0.275000X-0.200000X-0.275000X0.200000X-0.275000X0*%
%TD*%
%TA.AperFunction,SMDPad,CuDef*%
%ADD18RoundRect,0.225000X0.225000X0.250000X-0.225000X0.250000X-0.225000X-0.250000X0.225000X-0.250000X0*%
%TD*%
%TA.AperFunction,SMDPad,CuDef*%
%ADD19RoundRect,0.250000X-0.650000X0.350000X-0.650000X-0.350000X0.650000X-0.350000X0.650000X0.350000X0*%
%TD*%
%TA.AperFunction,SMDPad,CuDef*%
%ADD20RoundRect,0.150000X-0.625000X0.150000X-0.625000X-0.150000X0.625000X-0.150000X0.625000X0.150000X0*%
%TD*%
%TA.AperFunction,SMDPad,CuDef*%
%ADD21RoundRect,0.150000X0.625000X-0.150000X0.625000X0.150000X-0.625000X0.150000X-0.625000X-0.150000X0*%
%TD*%
%TA.AperFunction,SMDPad,CuDef*%
%ADD22RoundRect,0.250000X0.650000X-0.350000X0.650000X0.350000X-0.650000X0.350000X-0.650000X-0.350000X0*%
%TD*%
%TA.AperFunction,ComponentPad*%
%ADD23C,2.520000*%
%TD*%
%TA.AperFunction,ComponentPad*%
%ADD24R,1.398000X1.398000*%
%TD*%
%TA.AperFunction,ComponentPad*%
%ADD25C,1.398000*%
%TD*%
%TA.AperFunction,ViaPad*%
%ADD26C,0.800000*%
%TD*%
%TA.AperFunction,Conductor*%
%ADD27C,0.500000*%
%TD*%
%TA.AperFunction,Conductor*%
%ADD28C,1.500000*%
%TD*%
%TA.AperFunction,Conductor*%
%ADD29C,1.000000*%
%TD*%
G04 APERTURE END LIST*
D10*
%TO.P,SW101,MP*%
%TO.N,N/C*%
X56850000Y-111750000D03*
X69650000Y-111750000D03*
D11*
%TO.P,SW101,5,S2*%
%TO.N,GND*%
X67250000Y-114000000D03*
%TO.P,SW101,4,S1*%
%TO.N,encoder_push*%
X65250000Y-114000000D03*
%TO.P,SW101,3,B*%
%TO.N,encoder_B*%
X63250000Y-114000000D03*
%TO.P,SW101,2,C*%
%TO.N,GND*%
X61250000Y-114000000D03*
%TO.P,SW101,1,A*%
%TO.N,encoder_A*%
X59250000Y-114000000D03*
%TD*%
D12*
%TO.P,SW105,MP*%
%TO.N,N/C*%
X101250000Y-90900000D03*
X101250000Y-84100000D03*
D13*
%TO.P,SW105,2,B*%
%TO.N,PGRM*%
X103500000Y-86500000D03*
%TO.P,SW105,1,A*%
%TO.N,GND*%
X103500000Y-88500000D03*
%TD*%
D12*
%TO.P,SW104,MP*%
%TO.N,N/C*%
X115250000Y-100650000D03*
X115250000Y-93850000D03*
D13*
%TO.P,SW104,2,B*%
%TO.N,SW_2*%
X117500000Y-96250000D03*
%TO.P,SW104,1,A*%
%TO.N,GND*%
X117500000Y-98250000D03*
%TD*%
D12*
%TO.P,SW103,MP*%
%TO.N,N/C*%
X101250000Y-100650000D03*
X101250000Y-93850000D03*
D13*
%TO.P,SW103,2,B*%
%TO.N,SW_1*%
X103500000Y-96250000D03*
%TO.P,SW103,1,A*%
%TO.N,GND*%
X103500000Y-98250000D03*
%TD*%
D12*
%TO.P,SW102,MP*%
%TO.N,N/C*%
X115225000Y-90900000D03*
X115225000Y-84100000D03*
D13*
%TO.P,SW102,2,B*%
%TO.N,SW_0*%
X117475000Y-86500000D03*
%TO.P,SW102,1,A*%
%TO.N,GND*%
X117475000Y-88500000D03*
%TD*%
D14*
%TO.P,RV901,MP*%
%TO.N,N/C*%
X86250000Y-68400000D03*
X86250000Y-59600000D03*
D15*
%TO.P,RV901,3,3*%
%TO.N,GND*%
X84000000Y-66000000D03*
%TO.P,RV901,2,2*%
%TO.N,Net-(C901-Pad1)*%
X84000000Y-64000000D03*
%TO.P,RV901,1,1*%
%TO.N,+3.3V*%
X84000000Y-62000000D03*
%TD*%
D14*
%TO.P,RV801,MP*%
%TO.N,N/C*%
X76250000Y-68400000D03*
X76250000Y-59600000D03*
D15*
%TO.P,RV801,3,3*%
%TO.N,GND*%
X74000000Y-66000000D03*
%TO.P,RV801,2,2*%
%TO.N,Net-(C801-Pad1)*%
X74000000Y-64000000D03*
%TO.P,RV801,1,1*%
%TO.N,+3.3V*%
X74000000Y-62000000D03*
%TD*%
D14*
%TO.P,RV701,MP*%
%TO.N,N/C*%
X96250000Y-68400000D03*
X96250000Y-59600000D03*
D15*
%TO.P,RV701,3,3*%
%TO.N,GND*%
X94000000Y-66000000D03*
%TO.P,RV701,2,2*%
%TO.N,Net-(C701-Pad1)*%
X94000000Y-64000000D03*
%TO.P,RV701,1,1*%
%TO.N,+3.3V*%
X94000000Y-62000000D03*
%TD*%
D14*
%TO.P,RV601,MP*%
%TO.N,N/C*%
X106250000Y-68400000D03*
X106250000Y-59600000D03*
D15*
%TO.P,RV601,3,3*%
%TO.N,GND*%
X104000000Y-66000000D03*
%TO.P,RV601,2,2*%
%TO.N,Net-(C601-Pad1)*%
X104000000Y-64000000D03*
%TO.P,RV601,1,1*%
%TO.N,+3.3V*%
X104000000Y-62000000D03*
%TD*%
D14*
%TO.P,RV501,MP*%
%TO.N,N/C*%
X56250000Y-68400000D03*
X56250000Y-59600000D03*
D15*
%TO.P,RV501,3,3*%
%TO.N,GND*%
X54000000Y-66000000D03*
%TO.P,RV501,2,2*%
%TO.N,Net-(C501-Pad1)*%
X54000000Y-64000000D03*
%TO.P,RV501,1,1*%
%TO.N,+3.3V*%
X54000000Y-62000000D03*
%TD*%
D14*
%TO.P,RV401,MP*%
%TO.N,N/C*%
X66250000Y-68400000D03*
X66250000Y-59600000D03*
D15*
%TO.P,RV401,3,3*%
%TO.N,GND*%
X64000000Y-66000000D03*
%TO.P,RV401,2,2*%
%TO.N,Net-(C401-Pad1)*%
X64000000Y-64000000D03*
%TO.P,RV401,1,1*%
%TO.N,+3.3V*%
X64000000Y-62000000D03*
%TD*%
D14*
%TO.P,RV301,MP*%
%TO.N,N/C*%
X116250000Y-68400000D03*
X116250000Y-59600000D03*
D15*
%TO.P,RV301,3,3*%
%TO.N,GND*%
X114000000Y-66000000D03*
%TO.P,RV301,2,2*%
%TO.N,Net-(C301-Pad1)*%
X114000000Y-64000000D03*
%TO.P,RV301,1,1*%
%TO.N,+3.3V*%
X114000000Y-62000000D03*
%TD*%
D14*
%TO.P,RV201,MP*%
%TO.N,N/C*%
X126250000Y-68400000D03*
X126250000Y-59600000D03*
D15*
%TO.P,RV201,3,3*%
%TO.N,GND*%
X124000000Y-66000000D03*
%TO.P,RV201,2,2*%
%TO.N,Net-(C201-Pad1)*%
X124000000Y-64000000D03*
%TO.P,RV201,1,1*%
%TO.N,+3.3V*%
X124000000Y-62000000D03*
%TD*%
D16*
%TO.P,U101,33,VIN*%
%TO.N,+VDC*%
X57490000Y-85160000D03*
%TO.P,U101,32,GND*%
%TO.N,GND*%
X60030000Y-85160000D03*
%TO.P,U101,31,3V3*%
%TO.N,+3.3V*%
X62570000Y-85160000D03*
%TO.P,U101,30,23_A9_CRX1_MCLK1*%
%TO.N,A9*%
X65110000Y-85160000D03*
%TO.P,U101,29,22_A8_CTX1*%
%TO.N,A8*%
X67650000Y-85160000D03*
%TO.P,U101,28,21_A7_RX5_BCLK1*%
%TO.N,A7*%
X70190000Y-85160000D03*
%TO.P,U101,27,20_A6_TX5_LRCLK1*%
%TO.N,A6*%
X72730000Y-85160000D03*
%TO.P,U101,26,19_A5_SCL0*%
%TO.N,A5*%
X75270000Y-85160000D03*
%TO.P,U101,25,18_A4_SDA0*%
%TO.N,A4*%
X77810000Y-85160000D03*
%TO.P,U101,24,17_A3_TX4_SDA1*%
%TO.N,SDA*%
X80350000Y-85160000D03*
%TO.P,U101,23,16_A2_RX4_SCL1*%
%TO.N,SCL*%
X82890000Y-85160000D03*
%TO.P,U101,22,15_A1_RX3_SPDIF_IN*%
%TO.N,A1*%
X85430000Y-85160000D03*
%TO.P,U101,21,14_A0_TX3_SPDIF_OUT*%
%TO.N,A0*%
X87970000Y-85160000D03*
%TO.P,U101,20,13_SCK_CRX1_LED*%
%TO.N,SW_0*%
X90510000Y-85160000D03*
%TO.P,U101,19,ON_OFF*%
%TO.N,unconnected-(U101-ON_OFF-Pad19)*%
X90510000Y-87700000D03*
%TO.P,U101,18,PROGRAM*%
%TO.N,PGRM*%
X90510000Y-90240000D03*
%TO.P,U101,17,GND*%
%TO.N,GND*%
X90510000Y-92780000D03*
%TO.P,U101,16,3V3*%
%TO.N,unconnected-(U101-3V3-Pad16)*%
X90510000Y-95320000D03*
%TO.P,U101,15,VBAT*%
%TO.N,unconnected-(U101-VBAT-Pad15)*%
X90510000Y-97860000D03*
%TO.P,U101,14,12_MISO_MQSL*%
%TO.N,SW_1*%
X90510000Y-100400000D03*
%TO.P,U101,13,11_MOSI_CTX1*%
%TO.N,SW_2*%
X87970000Y-100400000D03*
%TO.P,U101,12,10_CS_MQSR*%
%TO.N,D10*%
X85430000Y-100400000D03*
%TO.P,U101,11,9_OUT1C*%
%TO.N,D9*%
X82890000Y-100400000D03*
%TO.P,U101,10,8_TX2_IN1*%
%TO.N,D8*%
X80350000Y-100400000D03*
%TO.P,U101,9,7_RX2_OUT1A*%
%TO.N,D7*%
X77810000Y-100400000D03*
%TO.P,U101,8,6_OUT1D*%
%TO.N,D6*%
X75270000Y-100400000D03*
%TO.P,U101,7,5_IN2*%
%TO.N,D5*%
X72730000Y-100400000D03*
%TO.P,U101,6,4_BCLK2*%
%TO.N,D4*%
X70190000Y-100400000D03*
%TO.P,U101,5,3_LRCLK2*%
%TO.N,D3*%
X67650000Y-100400000D03*
%TO.P,U101,4,2_OUT2*%
%TO.N,encoder_push*%
X65110000Y-100400000D03*
%TO.P,U101,3,1_TX1_CTX2_MISO1*%
%TO.N,encoder_B*%
X62570000Y-100400000D03*
%TO.P,U101,2,0_RX1_CRX2_CS1*%
%TO.N,encoder_A*%
X60030000Y-100400000D03*
%TO.P,U101,1,GND*%
%TO.N,GND*%
X57490000Y-100400000D03*
%TD*%
D17*
%TO.P,R201,2*%
%TO.N,A0*%
X127975000Y-72200000D03*
%TO.P,R201,1*%
%TO.N,Net-(C201-Pad1)*%
X129625000Y-72200000D03*
%TD*%
%TO.P,R601,2*%
%TO.N,A4*%
X107975000Y-72000000D03*
%TO.P,R601,1*%
%TO.N,Net-(C601-Pad1)*%
X109625000Y-72000000D03*
%TD*%
%TO.P,R901,2*%
%TO.N,A6*%
X76175000Y-72000000D03*
%TO.P,R901,1*%
%TO.N,Net-(C901-Pad1)*%
X77825000Y-72000000D03*
%TD*%
%TO.P,R301,2*%
%TO.N,A1*%
X117775000Y-72000000D03*
%TO.P,R301,1*%
%TO.N,Net-(C301-Pad1)*%
X119425000Y-72000000D03*
%TD*%
%TO.P,R701,2*%
%TO.N,A5*%
X98175000Y-72000000D03*
%TO.P,R701,1*%
%TO.N,Net-(C701-Pad1)*%
X99825000Y-72000000D03*
%TD*%
%TO.P,R501,2*%
%TO.N,A9*%
X58575000Y-72150000D03*
%TO.P,R501,1*%
%TO.N,Net-(C501-Pad1)*%
X60225000Y-72150000D03*
%TD*%
%TO.P,R801,2*%
%TO.N,A7*%
X71375000Y-72200000D03*
%TO.P,R801,1*%
%TO.N,Net-(C801-Pad1)*%
X73025000Y-72200000D03*
%TD*%
%TO.P,R401,2*%
%TO.N,A8*%
X67775000Y-72150000D03*
%TO.P,R401,1*%
%TO.N,Net-(C401-Pad1)*%
X69425000Y-72150000D03*
%TD*%
D18*
%TO.P,C901,2*%
%TO.N,GND*%
X76225000Y-70450000D03*
%TO.P,C901,1*%
%TO.N,Net-(C901-Pad1)*%
X77775000Y-70450000D03*
%TD*%
%TO.P,C201,2*%
%TO.N,GND*%
X128025000Y-70650000D03*
%TO.P,C201,1*%
%TO.N,Net-(C201-Pad1)*%
X129575000Y-70650000D03*
%TD*%
%TO.P,C401,2*%
%TO.N,GND*%
X67825000Y-70600000D03*
%TO.P,C401,1*%
%TO.N,Net-(C401-Pad1)*%
X69375000Y-70600000D03*
%TD*%
%TO.P,C301,2*%
%TO.N,GND*%
X117825000Y-70450000D03*
%TO.P,C301,1*%
%TO.N,Net-(C301-Pad1)*%
X119375000Y-70450000D03*
%TD*%
%TO.P,C801,2*%
%TO.N,GND*%
X71425000Y-70650000D03*
%TO.P,C801,1*%
%TO.N,Net-(C801-Pad1)*%
X72975000Y-70650000D03*
%TD*%
%TO.P,C601,2*%
%TO.N,GND*%
X108025000Y-70450000D03*
%TO.P,C601,1*%
%TO.N,Net-(C601-Pad1)*%
X109575000Y-70450000D03*
%TD*%
%TO.P,C501,2*%
%TO.N,GND*%
X58625000Y-70600000D03*
%TO.P,C501,1*%
%TO.N,Net-(C501-Pad1)*%
X60175000Y-70600000D03*
%TD*%
%TO.P,C701,2*%
%TO.N,GND*%
X98225000Y-70450000D03*
%TO.P,C701,1*%
%TO.N,Net-(C701-Pad1)*%
X99775000Y-70450000D03*
%TD*%
D19*
%TO.P,J101,MP*%
%TO.N,N/C*%
X81875000Y-73700000D03*
X81875000Y-79300000D03*
D20*
%TO.P,J101,4,SCL*%
%TO.N,SDA*%
X85750000Y-78000000D03*
%TO.P,J101,3,SDA*%
%TO.N,SCL*%
X85750000Y-77000000D03*
%TO.P,J101,2,V+*%
%TO.N,+3.3V*%
X85750000Y-76000000D03*
%TO.P,J101,1,GND*%
%TO.N,GND*%
X85750000Y-75000000D03*
%TD*%
D21*
%TO.P,J102,1,GND*%
%TO.N,GND*%
X92000000Y-78000000D03*
%TO.P,J102,2,V+*%
%TO.N,+3.3V*%
X92000000Y-77000000D03*
%TO.P,J102,3,SDA*%
%TO.N,SCL*%
X92000000Y-76000000D03*
%TO.P,J102,4,SCL*%
%TO.N,SDA*%
X92000000Y-75000000D03*
D22*
%TO.P,J102,MP*%
%TO.N,N/C*%
X95875000Y-73700000D03*
X95875000Y-79300000D03*
%TD*%
D23*
%TO.P,CO101,S*%
%TO.N,GND*%
X119850000Y-114725340D03*
X104150000Y-114725340D03*
D24*
%TO.P,CO101,Or\u002A*%
X109465000Y-110835340D03*
D25*
%TO.P,CO101,Or*%
%TO.N,D8*%
X108445000Y-112865340D03*
%TO.P,CO101,Gr\u002A*%
%TO.N,GND*%
X110475000Y-112865340D03*
%TO.P,CO101,Gr*%
%TO.N,D9*%
X113525000Y-110835340D03*
%TO.P,CO101,Br\u002A*%
%TO.N,GND*%
X115555000Y-110835340D03*
%TO.P,CO101,Br*%
%TO.N,D10*%
X114535000Y-112865340D03*
%TO.P,CO101,Bl\u002A*%
%TO.N,GND*%
X111495000Y-110835340D03*
%TO.P,CO101,Bl*%
%TO.N,D7*%
X112505000Y-112865340D03*
%TD*%
D23*
%TO.P,CO102,S*%
%TO.N,GND*%
X94850000Y-114725340D03*
X79150000Y-114725340D03*
D24*
%TO.P,CO102,Or\u002A*%
X84465000Y-110835340D03*
D25*
%TO.P,CO102,Or*%
%TO.N,D4*%
X83445000Y-112865340D03*
%TO.P,CO102,Gr\u002A*%
%TO.N,GND*%
X85475000Y-112865340D03*
%TO.P,CO102,Gr*%
%TO.N,D5*%
X88525000Y-110835340D03*
%TO.P,CO102,Br\u002A*%
%TO.N,GND*%
X90555000Y-110835340D03*
%TO.P,CO102,Br*%
%TO.N,D6*%
X89535000Y-112865340D03*
%TO.P,CO102,Bl\u002A*%
%TO.N,GND*%
X86495000Y-110835340D03*
%TO.P,CO102,Bl*%
%TO.N,D3*%
X87505000Y-112865340D03*
%TD*%
D26*
%TO.N,GND*%
X75600000Y-69800000D03*
X98600000Y-69200000D03*
X108600000Y-69400000D03*
X116800000Y-70400000D03*
X127200000Y-70600000D03*
X71400000Y-69800000D03*
X66600000Y-70600000D03*
X57400000Y-70600000D03*
X67400000Y-110800000D03*
X61400000Y-110800000D03*
X107250000Y-98750000D03*
X121000000Y-98750000D03*
X121000000Y-88750000D03*
X107000000Y-88500000D03*
X127000000Y-66500000D03*
X117000000Y-66500000D03*
X107000000Y-66750000D03*
X97000000Y-66750000D03*
X86750000Y-66750000D03*
X77250000Y-66250000D03*
X67000000Y-66750000D03*
X57000000Y-66500000D03*
X93000000Y-78500000D03*
X87000000Y-74500000D03*
%TD*%
D27*
%TO.N,GND*%
X76225000Y-70425000D02*
X75600000Y-69800000D01*
X76225000Y-70450000D02*
X76225000Y-70425000D01*
%TO.N,SCL*%
X79922233Y-86500000D02*
X81550000Y-86500000D01*
X79100000Y-85677767D02*
X79922233Y-86500000D01*
X85200000Y-72400000D02*
X79100000Y-78500000D01*
X92200000Y-72400000D02*
X85200000Y-72400000D01*
X94800000Y-75000000D02*
X92200000Y-72400000D01*
X81550000Y-86500000D02*
X82890000Y-85160000D01*
X79100000Y-78500000D02*
X79100000Y-85677767D01*
X93800000Y-76000000D02*
X94800000Y-75000000D01*
X92000000Y-76000000D02*
X93800000Y-76000000D01*
%TO.N,SDA*%
X92000000Y-75000000D02*
X90650000Y-73650000D01*
X90650000Y-73650000D02*
X85476472Y-73650000D01*
X85476472Y-73650000D02*
X84200000Y-74926472D01*
X84200000Y-77073528D02*
X85126472Y-78000000D01*
X84200000Y-74926472D02*
X84200000Y-77073528D01*
X85126472Y-78000000D02*
X85750000Y-78000000D01*
%TO.N,A4*%
X77810000Y-85160000D02*
X77810000Y-75775051D01*
X92800000Y-71400000D02*
X94050000Y-72650000D01*
X77810000Y-75775051D02*
X82185051Y-71400000D01*
X82185051Y-71400000D02*
X92800000Y-71400000D01*
X94050000Y-72650000D02*
X96814949Y-72650000D01*
X96814949Y-72650000D02*
X97089949Y-72925000D01*
X97089949Y-72925000D02*
X107050000Y-72925000D01*
X107050000Y-72925000D02*
X107975000Y-72000000D01*
%TO.N,A5*%
X98175000Y-72000000D02*
X95975000Y-69800000D01*
X95975000Y-69800000D02*
X81600000Y-69800000D01*
X81600000Y-69800000D02*
X75270000Y-76130000D01*
X75270000Y-76130000D02*
X75270000Y-85160000D01*
%TO.N,GND*%
X98225000Y-69575000D02*
X98600000Y-69200000D01*
X98225000Y-70450000D02*
X98225000Y-69575000D01*
%TO.N,Net-(C701-Pad1)*%
X94000000Y-64000000D02*
X95739949Y-64000000D01*
X95739949Y-64000000D02*
X99825000Y-68085051D01*
X99825000Y-68085051D02*
X99825000Y-72000000D01*
%TO.N,GND*%
X108025000Y-69975000D02*
X108600000Y-69400000D01*
X108025000Y-70450000D02*
X108025000Y-69975000D01*
%TO.N,Net-(C601-Pad1)*%
X109625000Y-72000000D02*
X109625000Y-67885051D01*
X109625000Y-67885051D02*
X105739949Y-64000000D01*
X105739949Y-64000000D02*
X104000000Y-64000000D01*
%TO.N,A1*%
X117775000Y-72000000D02*
X108775000Y-81000000D01*
X108775000Y-81000000D02*
X89750000Y-81000000D01*
X89750000Y-81000000D02*
X85590000Y-85160000D01*
X85590000Y-85160000D02*
X85430000Y-85160000D01*
%TO.N,GND*%
X116850000Y-70450000D02*
X116800000Y-70400000D01*
X117825000Y-70450000D02*
X116850000Y-70450000D01*
%TO.N,Net-(C301-Pad1)*%
X114000000Y-64000000D02*
X115739949Y-64000000D01*
X115739949Y-64000000D02*
X119425000Y-67685051D01*
X119425000Y-67685051D02*
X119425000Y-72000000D01*
%TO.N,GND*%
X127250000Y-70650000D02*
X127200000Y-70600000D01*
X128025000Y-70650000D02*
X127250000Y-70650000D01*
%TO.N,Net-(C201-Pad1)*%
X124000000Y-64000000D02*
X127400000Y-64000000D01*
X129625000Y-66225000D02*
X129625000Y-72200000D01*
X127400000Y-64000000D02*
X129625000Y-66225000D01*
%TO.N,A0*%
X87970000Y-85160000D02*
X87970000Y-85130000D01*
X119100000Y-82500000D02*
X127975000Y-73625000D01*
X87970000Y-85130000D02*
X90600000Y-82500000D01*
X90600000Y-82500000D02*
X119100000Y-82500000D01*
X127975000Y-73625000D02*
X127975000Y-72200000D01*
%TO.N,Net-(C901-Pad1)*%
X77825000Y-72000000D02*
X77775000Y-71950000D01*
X80600000Y-64000000D02*
X84000000Y-64000000D01*
X77775000Y-71950000D02*
X77775000Y-69664949D01*
X77775000Y-69664949D02*
X80600000Y-66839949D01*
X80600000Y-66839949D02*
X80600000Y-64000000D01*
%TO.N,A6*%
X76175000Y-72000000D02*
X76175000Y-72325000D01*
X76175000Y-72325000D02*
X72730000Y-75770000D01*
X72730000Y-75770000D02*
X72730000Y-85160000D01*
%TO.N,GND*%
X71425000Y-69825000D02*
X71400000Y-69800000D01*
X71425000Y-70650000D02*
X71425000Y-69825000D01*
%TO.N,Net-(C801-Pad1)*%
X73025000Y-72200000D02*
X73025000Y-68764949D01*
X73025000Y-68764949D02*
X70600000Y-66339949D01*
X70600000Y-66339949D02*
X70600000Y-64200000D01*
X70600000Y-64200000D02*
X70800000Y-64000000D01*
X70800000Y-64000000D02*
X74000000Y-64000000D01*
%TO.N,A7*%
X71375000Y-72200000D02*
X71375000Y-73125000D01*
X71375000Y-73125000D02*
X70190000Y-74310000D01*
%TO.N,GND*%
X67825000Y-70600000D02*
X66600000Y-70600000D01*
%TO.N,Net-(C401-Pad1)*%
X64000000Y-64000000D02*
X65739949Y-64000000D01*
X65739949Y-64000000D02*
X69425000Y-67685051D01*
X69425000Y-67685051D02*
X69425000Y-72150000D01*
%TO.N,A8*%
X67775000Y-72150000D02*
X67650000Y-72275000D01*
X67650000Y-72275000D02*
X67650000Y-85160000D01*
%TO.N,GND*%
X58625000Y-70600000D02*
X57400000Y-70600000D01*
%TO.N,A9*%
X58575000Y-72150000D02*
X58575000Y-75875000D01*
X58575000Y-75875000D02*
X65110000Y-82410000D01*
X65110000Y-82410000D02*
X65110000Y-85160000D01*
%TO.N,Net-(C501-Pad1)*%
X54000000Y-64000000D02*
X55739949Y-64000000D01*
X55739949Y-64000000D02*
X60225000Y-68485051D01*
X60225000Y-68485051D02*
X60225000Y-72150000D01*
%TO.N,GND*%
X67250000Y-110950000D02*
X67400000Y-110800000D01*
X67250000Y-114000000D02*
X67250000Y-110950000D01*
X61250000Y-110950000D02*
X61400000Y-110800000D01*
X61250000Y-114000000D02*
X61250000Y-110950000D01*
%TO.N,encoder_push*%
X65110000Y-100400000D02*
X65110000Y-112085000D01*
%TO.N,encoder_B*%
X62570000Y-100400000D02*
X63250000Y-101080000D01*
X63250000Y-101080000D02*
X63250000Y-114000000D01*
%TO.N,encoder_A*%
X60030000Y-100400000D02*
X60030000Y-102870000D01*
X60030000Y-102870000D02*
X59250000Y-103650000D01*
X59250000Y-103650000D02*
X59250000Y-113225000D01*
X59250000Y-113225000D02*
X59000000Y-113475000D01*
%TO.N,GND*%
X106750000Y-98250000D02*
X107250000Y-98750000D01*
X103500000Y-98250000D02*
X106750000Y-98250000D01*
X120500000Y-98250000D02*
X121000000Y-98750000D01*
X117500000Y-98250000D02*
X120500000Y-98250000D01*
X120750000Y-88500000D02*
X121000000Y-88750000D01*
X117475000Y-88500000D02*
X120750000Y-88500000D01*
X103500000Y-88500000D02*
X107000000Y-88500000D01*
%TO.N,SW_2*%
X117500000Y-96250000D02*
X110000000Y-96250000D01*
X98250000Y-95250000D02*
X94350000Y-99150000D01*
X110000000Y-96250000D02*
X109000000Y-95250000D01*
X109000000Y-95250000D02*
X98250000Y-95250000D01*
X94350000Y-99150000D02*
X89220000Y-99150000D01*
X89220000Y-99150000D02*
X87970000Y-100400000D01*
%TO.N,SW_1*%
X90510000Y-100400000D02*
X97350000Y-100400000D01*
X97350000Y-100400000D02*
X101500000Y-96250000D01*
X101500000Y-96250000D02*
X103500000Y-96250000D01*
%TO.N,SW_0*%
X117475000Y-86500000D02*
X110250000Y-86500000D01*
X110250000Y-86500000D02*
X109100000Y-85350000D01*
X109100000Y-85350000D02*
X90700000Y-85350000D01*
X90700000Y-85350000D02*
X90510000Y-85160000D01*
%TO.N,PGRM*%
X103500000Y-86500000D02*
X99750000Y-86500000D01*
X96010000Y-90240000D02*
X90510000Y-90240000D01*
X99750000Y-86500000D02*
X96010000Y-90240000D01*
%TO.N,GND*%
X126500000Y-66000000D02*
X127000000Y-66500000D01*
X124000000Y-66000000D02*
X126500000Y-66000000D01*
X116500000Y-66000000D02*
X117000000Y-66500000D01*
X114000000Y-66000000D02*
X116500000Y-66000000D01*
X106250000Y-66000000D02*
X107000000Y-66750000D01*
X104000000Y-66000000D02*
X106250000Y-66000000D01*
X96250000Y-66000000D02*
X97000000Y-66750000D01*
X94000000Y-66000000D02*
X96250000Y-66000000D01*
X86000000Y-66000000D02*
X86750000Y-66750000D01*
X84000000Y-66000000D02*
X86000000Y-66000000D01*
X77000000Y-66000000D02*
X77250000Y-66250000D01*
X74000000Y-66000000D02*
X77000000Y-66000000D01*
X66250000Y-66000000D02*
X67000000Y-66750000D01*
X64000000Y-66000000D02*
X66250000Y-66000000D01*
X56500000Y-66000000D02*
X57000000Y-66500000D01*
X54000000Y-66000000D02*
X56500000Y-66000000D01*
D28*
%TO.N,+3.3V*%
X62570000Y-85160000D02*
X56360000Y-78950000D01*
X56360000Y-78950000D02*
X53450000Y-78950000D01*
X50500000Y-62000000D02*
X91250000Y-62000000D01*
X53450000Y-78950000D02*
X49000000Y-74500000D01*
X49000000Y-74500000D02*
X49000000Y-63500000D01*
X49000000Y-63500000D02*
X50500000Y-62000000D01*
D27*
%TO.N,D4*%
X79165340Y-112865340D02*
X83445000Y-112865340D01*
X70190000Y-103890000D02*
X79165340Y-112865340D01*
X70190000Y-100400000D02*
X70190000Y-103890000D01*
%TO.N,+3.3V*%
X92000000Y-77000000D02*
X88750000Y-77000000D01*
X88750000Y-77000000D02*
X88250000Y-77500000D01*
X85750000Y-76000000D02*
X86750000Y-76000000D01*
X86750000Y-76000000D02*
X88250000Y-77500000D01*
X88250000Y-80296572D02*
X84140000Y-84406572D01*
X88250000Y-77500000D02*
X88250000Y-80296572D01*
X84140000Y-84406572D02*
X84140000Y-86985000D01*
X84140000Y-86985000D02*
X81375000Y-89750000D01*
X81375000Y-89750000D02*
X67160000Y-89750000D01*
X67160000Y-89750000D02*
X62570000Y-85160000D01*
%TO.N,A7*%
X70190000Y-74310000D02*
X70190000Y-85160000D01*
%TO.N,GND*%
X92500000Y-78000000D02*
X93000000Y-78500000D01*
X92000000Y-78000000D02*
X92500000Y-78000000D01*
X86500000Y-75000000D02*
X87000000Y-74500000D01*
X85750000Y-75000000D02*
X86500000Y-75000000D01*
%TO.N,SDA*%
X80350000Y-85160000D02*
X80350000Y-82900000D01*
X80350000Y-82900000D02*
X85250000Y-78000000D01*
X85250000Y-78000000D02*
X85750000Y-78000000D01*
%TO.N,SCL*%
X82890000Y-85160000D02*
X82890000Y-83360000D01*
X82890000Y-83360000D02*
X86975000Y-79275000D01*
X86975000Y-77601472D02*
X86373528Y-77000000D01*
X86975000Y-79275000D02*
X86975000Y-77601472D01*
X86373528Y-77000000D02*
X85750000Y-77000000D01*
D29*
%TO.N,+3.3V*%
X91250000Y-62000000D02*
X91325000Y-62075000D01*
D28*
X91250000Y-62000000D02*
X102000000Y-62000000D01*
X102000000Y-62000000D02*
X124500000Y-62000000D01*
D27*
%TO.N,D7*%
X77810000Y-100400000D02*
X77810000Y-101110000D01*
X77810000Y-101110000D02*
X82700000Y-106000000D01*
X82700000Y-106000000D02*
X92250000Y-106000000D01*
X103400000Y-120900000D02*
X108350000Y-120900000D01*
X92250000Y-106000000D02*
X101500000Y-115250000D01*
X101500000Y-115250000D02*
X101500000Y-119000000D01*
X101500000Y-119000000D02*
X103400000Y-120900000D01*
X112505000Y-116745000D02*
X112505000Y-112865340D01*
X108350000Y-120900000D02*
X112505000Y-116745000D01*
%TO.N,D8*%
X80350000Y-100400000D02*
X84700000Y-104750000D01*
X84700000Y-104750000D02*
X100329660Y-104750000D01*
X100329660Y-104750000D02*
X108445000Y-112865340D01*
%TO.N,D9*%
X82890000Y-100400000D02*
X85740000Y-103250000D01*
X85740000Y-103250000D02*
X105939660Y-103250000D01*
X105939660Y-103250000D02*
X113525000Y-110835340D01*
%TO.N,D10*%
X85430000Y-100400000D02*
X87030000Y-102000000D01*
X116934660Y-112865340D02*
X114535000Y-112865340D01*
X87030000Y-102000000D02*
X111600000Y-102000000D01*
X111600000Y-102000000D02*
X118200000Y-108600000D01*
X118200000Y-108600000D02*
X118200000Y-111600000D01*
X118200000Y-111600000D02*
X116934660Y-112865340D01*
%TO.N,D6*%
X75270000Y-100400000D02*
X75270000Y-101470000D01*
X75270000Y-101470000D02*
X81400000Y-107600000D01*
X81400000Y-107600000D02*
X89900000Y-107600000D01*
X89900000Y-107600000D02*
X92100000Y-109800000D01*
X92100000Y-109800000D02*
X92100000Y-112100000D01*
X92100000Y-112100000D02*
X91334660Y-112865340D01*
X91334660Y-112865340D02*
X89535000Y-112865340D01*
%TO.N,D5*%
X72730000Y-100400000D02*
X72730000Y-102430000D01*
X72730000Y-102430000D02*
X79400000Y-109100000D01*
X79400000Y-109100000D02*
X86789660Y-109100000D01*
X86789660Y-109100000D02*
X88525000Y-110835340D01*
%TO.N,D3*%
X67650000Y-100400000D02*
X67650000Y-106650000D01*
X67650000Y-106650000D02*
X75200000Y-114200000D01*
X75200000Y-114200000D02*
X75200000Y-118400000D01*
X75200000Y-118400000D02*
X79000000Y-122200000D01*
X79000000Y-122200000D02*
X83800000Y-122200000D01*
X83800000Y-122200000D02*
X87505000Y-118495000D01*
X87505000Y-118495000D02*
X87505000Y-112865340D01*
%TD*%
M02*
