%TF.GenerationSoftware,KiCad,Pcbnew,7.0.7-7.0.7~ubuntu20.04.1*%
%TF.CreationDate,2023-09-06T17:53:36-07:00*%
%TF.ProjectId,teensy-control-panel,7465656e-7379-42d6-936f-6e74726f6c2d,rev?*%
%TF.SameCoordinates,Original*%
%TF.FileFunction,Soldermask,Bot*%
%TF.FilePolarity,Negative*%
%FSLAX46Y46*%
G04 Gerber Fmt 4.6, Leading zero omitted, Abs format (unit mm)*
G04 Created by KiCad (PCBNEW 7.0.7-7.0.7~ubuntu20.04.1) date 2023-09-06 17:53:36*
%MOMM*%
%LPD*%
G01*
G04 APERTURE LIST*
%ADD10C,1.600000*%
%ADD11C,2.520000*%
%ADD12R,1.398000X1.398000*%
%ADD13C,1.398000*%
%ADD14C,3.250000*%
%ADD15C,3.200000*%
G04 APERTURE END LIST*
D10*
%TO.C,U101*%
X57490000Y-85160000D03*
X60030000Y-85160000D03*
X62570000Y-85160000D03*
X65110000Y-85160000D03*
X67650000Y-85160000D03*
X70190000Y-85160000D03*
X72730000Y-85160000D03*
X75270000Y-85160000D03*
X77810000Y-85160000D03*
X80350000Y-85160000D03*
X82890000Y-85160000D03*
X85430000Y-85160000D03*
X87970000Y-85160000D03*
X90510000Y-85160000D03*
X90510000Y-87700000D03*
X90510000Y-90240000D03*
X90510000Y-92780000D03*
X90510000Y-95320000D03*
X90510000Y-97860000D03*
X90510000Y-100400000D03*
X87970000Y-100400000D03*
X85430000Y-100400000D03*
X82890000Y-100400000D03*
X80350000Y-100400000D03*
X77810000Y-100400000D03*
X75270000Y-100400000D03*
X72730000Y-100400000D03*
X70190000Y-100400000D03*
X67650000Y-100400000D03*
X65110000Y-100400000D03*
X62570000Y-100400000D03*
X60030000Y-100400000D03*
X57490000Y-100400000D03*
%TD*%
D11*
%TO.C,CO101*%
X119850000Y-114725340D03*
X104150000Y-114725340D03*
D12*
X109465000Y-110835340D03*
D13*
X108445000Y-112865340D03*
X110475000Y-112865340D03*
X113525000Y-110835340D03*
X115555000Y-110835340D03*
X114535000Y-112865340D03*
X111495000Y-110835340D03*
X112505000Y-112865340D03*
D14*
X117715000Y-118585340D03*
X106285000Y-118585340D03*
%TD*%
D11*
%TO.C,CO102*%
X94850000Y-114725340D03*
X79150000Y-114725340D03*
D12*
X84465000Y-110835340D03*
D13*
X83445000Y-112865340D03*
X85475000Y-112865340D03*
X88525000Y-110835340D03*
X90555000Y-110835340D03*
X89535000Y-112865340D03*
X86495000Y-110835340D03*
X87505000Y-112865340D03*
D14*
X92715000Y-118585340D03*
X81285000Y-118585340D03*
%TD*%
D15*
%TO.C,H106*%
X127000000Y-54500000D03*
%TD*%
%TO.C,H110*%
X102500000Y-54500000D03*
%TD*%
%TO.C,H109*%
X90000000Y-54500000D03*
%TD*%
%TO.C,H108*%
X77500000Y-54500000D03*
%TD*%
%TO.C,H107*%
X53000000Y-54500000D03*
%TD*%
%TO.C,H105*%
X102500000Y-129500000D03*
%TD*%
%TO.C,H104*%
X127000000Y-129500000D03*
%TD*%
%TO.C,H103*%
X90000000Y-129500000D03*
%TD*%
%TO.C,H102*%
X53000000Y-129500000D03*
%TD*%
%TO.C,H101*%
X77500000Y-129500000D03*
%TD*%
M02*
