M48
; DRILL file {KiCad 7.0.7-7.0.7~ubuntu20.04.1} date Wed 06 Sep 2023 05:53:38 PM PDT
; FORMAT={-:-/ absolute / inch / decimal}
; #@! TF.CreationDate,2023-09-06T17:53:38-07:00
; #@! TF.GenerationSoftware,Kicad,Pcbnew,7.0.7-7.0.7~ubuntu20.04.1
; #@! TF.FileFunction,Plated,1,2,PTH
FMAT,2
INCH
; #@! TA.AperFunction,Plated,PTH,ViaDrill
T1C0.0157
; #@! TA.AperFunction,Plated,PTH,ComponentDrill
T2C0.0350
; #@! TA.AperFunction,Plated,PTH,ComponentDrill
T3C0.0433
; #@! TA.AperFunction,Plated,PTH,ComponentDrill
T4C0.0661
%
G90
G05
T1
X2.2441Y-2.6181
X2.2598Y-2.7795
X2.4173Y-4.3622
X2.622Y-2.7795
X2.6378Y-2.628
X2.6535Y-4.3622
X2.811Y-2.748
X2.9764Y-2.748
X3.0413Y-2.6083
X3.4154Y-2.628
X3.4252Y-2.9331
X3.6614Y-3.0906
X3.8189Y-2.628
X3.8819Y-2.7244
X4.2126Y-2.628
X4.2126Y-3.4843
X4.2224Y-3.8878
X4.2756Y-2.7323
X4.5984Y-2.7717
X4.6063Y-2.6181
X4.7638Y-3.4941
X4.7638Y-3.8878
X5.0Y-2.6181
X5.0079Y-2.7795
T2
X3.2852Y-4.4435
X3.3254Y-4.3636
X3.3652Y-4.4435
X3.4053Y-4.3636
X3.4451Y-4.4435
X3.4852Y-4.3636
X3.525Y-4.4435
X3.5652Y-4.3636
X4.2695Y-4.4435
X4.3096Y-4.3636
X4.3494Y-4.4435
X4.3896Y-4.3636
X4.4293Y-4.4435
X4.4695Y-4.3636
X4.5093Y-4.4435
X4.5494Y-4.3636
T3
X2.2634Y-3.3528
X2.2634Y-3.9528
X2.3634Y-3.3528
X2.3634Y-3.9528
X2.4634Y-3.3528
X2.4634Y-3.9528
X2.5634Y-3.3528
X2.5634Y-3.9528
X2.6634Y-3.3528
X2.6634Y-3.9528
X2.7634Y-3.3528
X2.7634Y-3.9528
X2.8634Y-3.3528
X2.8634Y-3.9528
X2.9634Y-3.3528
X2.9634Y-3.9528
X3.0634Y-3.3528
X3.0634Y-3.9528
X3.1634Y-3.3528
X3.1634Y-3.9528
X3.2634Y-3.3528
X3.2634Y-3.9528
X3.3634Y-3.3528
X3.3634Y-3.9528
X3.4634Y-3.3528
X3.4634Y-3.9528
X3.5634Y-3.3528
X3.5634Y-3.4528
X3.5634Y-3.5528
X3.5634Y-3.6528
X3.5634Y-3.7528
X3.5634Y-3.8528
X3.5634Y-3.9528
T4
X3.1161Y-4.5167
X3.7343Y-4.5167
X4.1004Y-4.5167
X4.7185Y-4.5167
T0
M30
